<svg width="1440" height="42" viewBox="0 0 1440 42" fill="none" xmlns="http://www.w3.org/2000/svg">
<path opacity="0.5" d="M1057 41.0001L91 41" stroke="url(#paint0_linear_2786_554)" stroke-linecap="round"/>
<path opacity="0.5" d="M62 21.0001L1028 21" stroke="url(#paint1_linear_2786_554)" stroke-linecap="round"/>
<path opacity="0.5" d="M-1.95503e-05 39H44.2043C48.7937 39 51.0884 39 53.3111 38.6866C57.074 38.1561 60.7123 36.9596 64.0556 35.1531C66.0305 34.086 67.8772 32.724 71.5708 30V30C75.2643 27.276 77.1111 25.914 79.0859 24.8469C82.4292 23.0404 86.0675 21.8439 89.8304 21.3134C92.0532 21 94.3479 21 98.9372 21H438" stroke="url(#paint2_linear_2786_554)" stroke-linecap="round"/>
<path opacity="0.5" d="M1440 19H1074.8C1070.21 19 1067.91 19 1065.69 18.6866C1061.93 18.1561 1058.29 16.9596 1054.94 15.1531C1052.97 14.086 1051.12 12.724 1047.43 10V10C1043.74 7.27601 1041.89 5.91402 1039.91 4.84693C1036.57 3.04045 1032.93 1.84392 1029.17 1.31339C1026.95 1 1024.65 1 1020.06 1H681" stroke="url(#paint3_linear_2786_554)" stroke-linecap="round"/>
<defs>
<linearGradient id="paint0_linear_2786_554" x1="91" y1="41" x2="91.0035" y2="39.0208" gradientUnits="userSpaceOnUse">
<stop stop-color="#8062FF"/>
<stop offset="1" stop-color="#999999" stop-opacity="0"/>
</linearGradient>
<linearGradient id="paint1_linear_2786_554" x1="1028" y1="21" x2="1027.99" y2="19.0208" gradientUnits="userSpaceOnUse">
<stop stop-color="white"/>
<stop offset="1" stop-color="#999999" stop-opacity="0"/>
</linearGradient>
<linearGradient id="paint2_linear_2786_554" x1="438" y1="21" x2="436.569" y2="56.5674" gradientUnits="userSpaceOnUse">
<stop stop-color="#999999" stop-opacity="0"/>
<stop offset="1" stop-color="white"/>
</linearGradient>
<linearGradient id="paint3_linear_2786_554" x1="681" y1="1" x2="682.431" y2="36.5674" gradientUnits="userSpaceOnUse">
<stop stop-color="#999999" stop-opacity="0"/>
<stop offset="1" stop-color="#8062FF"/>
</linearGradient>
</defs>
</svg>
