<svg width="82" height="37" viewBox="0 0 82 37" fill="none" xmlns="http://www.w3.org/2000/svg">
<path d="M39.4705 34.4121L18.8077 14.5884C17.3335 13.174 16.5 11.2194 16.5 9.17638L16.5 8C16.5 3.85787 19.8579 0.500003 24 0.500003L65.6625 0.500001C67.5978 0.500001 69.4582 1.24811 70.8548 2.58794L79.1923 10.5868C80.6665 12.0012 81.5 13.9558 81.5 15.9989L81.5 29C81.5 33.1421 78.1421 36.5 74 36.5L44.6628 36.5C42.7275 36.5 40.8671 35.7519 39.4705 34.4121Z" stroke="url(#paint0_linear_2744_757)"/>
<path opacity="0.5" d="M5.1425 17.4L8.5985 23H7.5345L6.5665 21.448H2.2705L1.3025 23H0.2305L3.6865 17.4H5.1425ZM4.4465 18H4.3985L2.7425 20.664H6.0945L4.4465 18ZM10.4696 21.024V23H9.52563V17.4H14.1656C14.987 17.4 15.579 17.536 15.9416 17.808C16.3043 18.08 16.4856 18.5333 16.4856 19.168V19.312C16.4856 19.9093 16.3043 20.344 15.9416 20.616C15.579 20.888 14.987 21.024 14.1656 21.024H10.4696ZM13.9336 18.176H10.4696V20.248H13.9416C14.5656 20.248 14.987 20.176 15.2056 20.032C15.4296 19.888 15.5416 19.632 15.5416 19.264V19.168C15.5416 18.7947 15.427 18.536 15.1976 18.392C14.9736 18.248 14.5523 18.176 13.9336 18.176ZM18.4931 20.768V23H17.5491V17.4H22.2611C23.0771 17.4 23.6557 17.512 23.9971 17.736C24.3384 17.96 24.5091 18.3173 24.5091 18.808V19.04C24.5091 19.4347 24.4131 19.7333 24.2211 19.936C24.0344 20.1333 23.7437 20.2533 23.3491 20.296V20.328C23.7544 20.3813 24.0477 20.4987 24.2291 20.68C24.4157 20.856 24.5091 21.16 24.5091 21.592V23H23.5651V21.752C23.5651 21.352 23.4557 21.088 23.2371 20.96C23.0184 20.832 22.5677 20.768 21.8851 20.768H18.4931ZM21.8851 18.176H18.4931V19.992H22.0371C22.6184 19.992 23.0184 19.9307 23.2371 19.808C23.4557 19.6853 23.5651 19.4587 23.5651 19.128V19.048C23.5651 18.7067 23.4477 18.4773 23.2131 18.36C22.9837 18.2373 22.5411 18.176 21.8851 18.176ZM26.8524 17.4V23H25.9084V17.4H26.8524ZM34.1852 22.176V23H28.3772V17.4H29.3212V22.176H34.1852ZM44.2177 22.272V23H37.4737V22.072C37.4737 21.4053 37.6257 20.9253 37.9297 20.632C38.239 20.3387 38.7884 20.152 39.5777 20.072L41.9297 19.84C42.4684 19.7813 42.831 19.696 43.0177 19.584C43.2044 19.472 43.2977 19.2773 43.2977 19V18.92C43.2977 18.6107 43.1244 18.392 42.7777 18.264C42.4364 18.1307 41.8497 18.064 41.0177 18.064C40.1964 18.064 39.6204 18.1333 39.2897 18.272C38.959 18.4053 38.735 18.6427 38.6177 18.984H37.6657C37.8044 18.3493 38.127 17.9147 38.6337 17.68C39.1457 17.44 39.8764 17.32 40.8257 17.32H41.1537C42.135 17.32 42.8897 17.432 43.4177 17.656C43.951 17.88 44.2177 18.2747 44.2177 18.84V19.008C44.2177 19.4773 44.0764 19.8347 43.7937 20.08C43.5164 20.3253 43.0044 20.4853 42.2577 20.56L39.7377 20.808C39.2257 20.856 38.871 20.9573 38.6737 21.112C38.4817 21.2613 38.3857 21.5173 38.3857 21.88V22.272H44.2177ZM49.398 23.088H48.71C47.4887 23.088 46.6113 22.888 46.078 22.488C45.55 22.0827 45.286 21.4347 45.286 20.544V19.864C45.286 18.9733 45.55 18.328 46.078 17.928C46.6113 17.5227 47.4887 17.32 48.71 17.32H49.398C50.6193 17.32 51.494 17.52 52.022 17.92C52.5553 18.32 52.822 18.9653 52.822 19.856V20.536C52.822 21.4267 52.5553 22.0747 52.022 22.48C51.494 22.8853 50.6193 23.088 49.398 23.088ZM49.054 22.336C49.6407 22.336 50.1207 22.2987 50.494 22.224C50.8673 22.1493 51.158 22.0267 51.366 21.856C51.574 21.6853 51.7153 21.4853 51.79 21.256C51.8647 21.0213 51.902 20.7227 51.902 20.36V20.048C51.902 19.6853 51.8647 19.3893 51.79 19.16C51.7153 18.9307 51.574 18.728 51.366 18.552C51.1633 18.376 50.8727 18.2507 50.494 18.176C50.1207 18.1013 49.6407 18.064 49.054 18.064C48.462 18.064 47.9793 18.1013 47.606 18.176C47.2327 18.2507 46.942 18.376 46.734 18.552C46.526 18.728 46.3847 18.9307 46.31 19.16C46.2353 19.3893 46.198 19.6853 46.198 20.048V20.36C46.198 20.7227 46.2353 21.0213 46.31 21.256C46.3847 21.4853 46.526 21.6853 46.734 21.856C46.942 22.0267 47.2327 22.1493 47.606 22.224C47.9793 22.2987 48.462 22.336 49.054 22.336ZM60.6474 22.272V23H53.9034V22.072C53.9034 21.4053 54.0554 20.9253 54.3594 20.632C54.6687 20.3387 55.218 20.152 56.0074 20.072L58.3594 19.84C58.898 19.7813 59.2607 19.696 59.4474 19.584C59.634 19.472 59.7274 19.2773 59.7274 19V18.92C59.7274 18.6107 59.554 18.392 59.2074 18.264C58.866 18.1307 58.2794 18.064 57.4474 18.064C56.626 18.064 56.05 18.1333 55.7194 18.272C55.3887 18.4053 55.1647 18.6427 55.0474 18.984H54.0954C54.234 18.3493 54.5567 17.9147 55.0634 17.68C55.5754 17.44 56.306 17.32 57.2554 17.32H57.5834C58.5647 17.32 59.3194 17.432 59.8474 17.656C60.3807 17.88 60.6474 18.2747 60.6474 18.84V19.008C60.6474 19.4773 60.506 19.8347 60.2234 20.08C59.946 20.3253 59.434 20.4853 58.6874 20.56L56.1674 20.808C55.6554 20.856 55.3007 20.9573 55.1034 21.112C54.9114 21.2613 54.8154 21.5173 54.8154 21.88V22.272H60.6474ZM67.5797 21.552V23H66.6677V21.552H61.7317V20.32L66.1397 17.4H67.5797V20.832H68.5957V21.552H67.5797ZM62.4517 20.784V20.832H66.6677V18.016H66.6197L62.4517 20.784Z" fill="white"/>
<defs>
<linearGradient id="paint0_linear_2744_757" x1="75.5" y1="4" x2="41" y2="33.5" gradientUnits="userSpaceOnUse">
<stop stop-color="white" stop-opacity="0.13"/>
<stop offset="1" stop-color="#311784" stop-opacity="0"/>
</linearGradient>
</defs>
</svg>
