<svg width="688" height="322" viewBox="0 0 688 322" fill="none" xmlns="http://www.w3.org/2000/svg">
<line opacity="0.1" x1="101.5" y1="-2.18557e-08" x2="101.5" y2="321" stroke="url(#paint0_linear_3182_840)"/>
<line opacity="0.1" x1="198.7" y1="-2.03353e-08" x2="198.7" y2="321" stroke="url(#paint1_linear_3182_840)"/>
<line opacity="0.1" x1="295.9" y1="-2.03353e-08" x2="295.9" y2="321" stroke="url(#paint2_linear_3182_840)"/>
<line opacity="0.1" x1="393.1" y1="-2.03353e-08" x2="393.1" y2="321" stroke="url(#paint3_linear_3182_840)"/>
<line opacity="0.1" x1="490.3" y1="-2.03353e-08" x2="490.3" y2="321" stroke="url(#paint4_linear_3182_840)"/>
<line opacity="0.1" x1="587.5" y1="-2.18557e-08" x2="587.5" y2="321" stroke="url(#paint5_linear_3182_840)"/>
<path opacity="0.5" d="M21.9677 80.272V81H15.2237V80.072C15.2237 79.4053 15.3757 78.9253 15.6797 78.632C15.989 78.3387 16.5384 78.152 17.3277 78.072L19.6797 77.84C20.2184 77.7813 20.581 77.696 20.7677 77.584C20.9544 77.472 21.0477 77.2773 21.0477 77V76.92C21.0477 76.6107 20.8744 76.392 20.5277 76.264C20.1864 76.1307 19.5997 76.064 18.7677 76.064C17.9464 76.064 17.3704 76.1333 17.0397 76.272C16.709 76.4053 16.485 76.6427 16.3677 76.984H15.4157C15.5544 76.3493 15.877 75.9147 16.3837 75.68C16.8957 75.44 17.6264 75.32 18.5757 75.32H18.9037C19.885 75.32 20.6397 75.432 21.1677 75.656C21.701 75.88 21.9677 76.2747 21.9677 76.84V77.008C21.9677 77.4773 21.8264 77.8347 21.5437 78.08C21.2664 78.3253 20.7544 78.4853 20.0077 78.56L17.4877 78.808C16.9757 78.856 16.621 78.9573 16.4237 79.112C16.2317 79.2613 16.1357 79.5173 16.1357 79.88V80.272H21.9677ZM26.748 81.08H26.22C25.0893 81.08 24.276 80.9067 23.78 80.56C23.284 80.208 23.036 79.584 23.036 78.688V77.992C23.036 77.032 23.276 76.3467 23.756 75.936C24.236 75.5253 25.0413 75.32 26.172 75.32H26.58C27.5933 75.32 28.34 75.4347 28.82 75.664C29.3 75.888 29.5907 76.264 29.692 76.792H28.74C28.6653 76.5147 28.46 76.3253 28.124 76.224C27.7933 76.1173 27.22 76.064 26.404 76.064C25.4227 76.064 24.764 76.1973 24.428 76.464C24.092 76.7307 23.924 77.2533 23.924 78.032V78.184H23.98C24.1027 77.896 24.3667 77.6907 24.772 77.568C25.1773 77.44 25.804 77.376 26.652 77.376C27.756 77.376 28.5453 77.4987 29.02 77.744C29.4947 77.984 29.732 78.4267 29.732 79.072V79.304C29.732 79.9653 29.484 80.4267 28.988 80.688C28.4973 80.9493 27.7507 81.08 26.748 81.08ZM24.548 80.136C24.9107 80.2853 25.5347 80.36 26.42 80.36C27.3053 80.36 27.9267 80.2853 28.284 80.136C28.6413 79.9813 28.82 79.712 28.82 79.328V79.136C28.82 78.752 28.6387 78.4827 28.276 78.328C27.9187 78.1733 27.3 78.096 26.42 78.096C25.5347 78.096 24.9107 78.1733 24.548 78.328C24.1907 78.4827 24.012 78.752 24.012 79.136V79.328C24.012 79.712 24.1907 79.9813 24.548 80.136Z" fill="white"/>
<path opacity="0.5" d="M119.968 80.272V81H113.224V80.072C113.224 79.4053 113.376 78.9253 113.68 78.632C113.989 78.3387 114.538 78.152 115.328 78.072L117.68 77.84C118.218 77.7813 118.581 77.696 118.768 77.584C118.954 77.472 119.048 77.2773 119.048 77V76.92C119.048 76.6107 118.874 76.392 118.528 76.264C118.186 76.1307 117.6 76.064 116.768 76.064C115.946 76.064 115.37 76.1333 115.04 76.272C114.709 76.4053 114.485 76.6427 114.368 76.984H113.416C113.554 76.3493 113.877 75.9147 114.384 75.68C114.896 75.44 115.626 75.32 116.576 75.32H116.904C117.885 75.32 118.64 75.432 119.168 75.656C119.701 75.88 119.968 76.2747 119.968 76.84V77.008C119.968 77.4773 119.826 77.8347 119.544 78.08C119.266 78.3253 118.754 78.4853 118.008 78.56L115.488 78.808C114.976 78.856 114.621 78.9573 114.424 79.112C114.232 79.2613 114.136 79.5173 114.136 79.88V80.272H119.968ZM127.812 76.128L123.588 81H122.404L126.66 76.176V76.12H120.94V75.4H127.812V76.128Z" fill="white"/>
<path opacity="0.5" d="M217.968 80.272V81H211.224V80.072C211.224 79.4053 211.376 78.9253 211.68 78.632C211.989 78.3387 212.538 78.152 213.328 78.072L215.68 77.84C216.218 77.7813 216.581 77.696 216.768 77.584C216.954 77.472 217.048 77.2773 217.048 77V76.92C217.048 76.6107 216.874 76.392 216.528 76.264C216.186 76.1307 215.6 76.064 214.768 76.064C213.946 76.064 213.37 76.1333 213.04 76.272C212.709 76.4053 212.485 76.6427 212.368 76.984H211.416C211.554 76.3493 211.877 75.9147 212.384 75.68C212.896 75.44 213.626 75.32 214.576 75.32H214.904C215.885 75.32 216.64 75.432 217.168 75.656C217.701 75.88 217.968 76.2747 217.968 76.84V77.008C217.968 77.4773 217.826 77.8347 217.544 78.08C217.266 78.3253 216.754 78.4853 216.008 78.56L213.488 78.808C212.976 78.856 212.621 78.9573 212.424 79.112C212.232 79.2613 212.136 79.5173 212.136 79.88V80.272H217.968ZM222.764 81.08H222.052C221.657 81.08 221.316 81.0667 221.028 81.04C220.745 81.0187 220.471 80.9733 220.204 80.904C219.943 80.8293 219.729 80.7333 219.564 80.616C219.404 80.4933 219.276 80.3333 219.18 80.136C219.084 79.9333 219.036 79.6933 219.036 79.416V79.28C219.036 78.896 219.127 78.6 219.308 78.392C219.489 78.1787 219.777 78.0427 220.172 77.984V77.936C219.543 77.8133 219.228 77.4453 219.228 76.832V76.736C219.228 76.2027 219.468 75.8347 219.948 75.632C220.433 75.424 221.185 75.32 222.204 75.32H222.604C223.623 75.32 224.375 75.424 224.86 75.632C225.345 75.8347 225.588 76.2027 225.588 76.736V76.832C225.588 77.4453 225.273 77.8133 224.644 77.936V77.984C225.407 78.096 225.788 78.5253 225.788 79.272V79.416C225.788 79.6933 225.74 79.9333 225.644 80.136C225.548 80.3333 225.417 80.4933 225.252 80.616C225.092 80.7333 224.879 80.8293 224.612 80.904C224.345 80.9733 224.068 81.0187 223.78 81.04C223.497 81.0667 223.159 81.08 222.764 81.08ZM221.292 77.72H223.524C223.924 77.72 224.212 77.6613 224.388 77.544C224.569 77.4213 224.66 77.2293 224.66 76.968V76.888C224.66 76.5573 224.5 76.336 224.18 76.224C223.865 76.1067 223.273 76.048 222.404 76.048C221.535 76.048 220.943 76.1067 220.628 76.224C220.313 76.336 220.156 76.5573 220.156 76.888V76.968C220.156 77.2293 220.244 77.4213 220.42 77.544C220.596 77.6613 220.887 77.72 221.292 77.72ZM220.468 80.152C220.82 80.2853 221.465 80.352 222.404 80.352C223.343 80.352 223.988 80.2853 224.34 80.152C224.692 80.0187 224.868 79.7707 224.868 79.408V79.288C224.868 79 224.761 78.784 224.548 78.64C224.335 78.496 223.985 78.424 223.5 78.424H221.308C220.828 78.424 220.481 78.496 220.268 78.64C220.055 78.784 219.948 79 219.948 79.288V79.408C219.948 79.7707 220.121 80.0187 220.468 80.152Z" fill="white"/>
<path opacity="0.5" d="M315.968 80.272V81H309.224V80.072C309.224 79.4053 309.376 78.9253 309.68 78.632C309.989 78.3387 310.538 78.152 311.328 78.072L313.68 77.84C314.218 77.7813 314.581 77.696 314.768 77.584C314.954 77.472 315.048 77.2773 315.048 77V76.92C315.048 76.6107 314.874 76.392 314.528 76.264C314.186 76.1307 313.6 76.064 312.768 76.064C311.946 76.064 311.37 76.1333 311.04 76.272C310.709 76.4053 310.485 76.6427 310.368 76.984H309.416C309.554 76.3493 309.877 75.9147 310.384 75.68C310.896 75.44 311.626 75.32 312.576 75.32H312.904C313.885 75.32 314.64 75.432 315.168 75.656C315.701 75.88 315.968 76.2747 315.968 76.84V77.008C315.968 77.4773 315.826 77.8347 315.544 78.08C315.266 78.3253 314.754 78.4853 314.008 78.56L311.488 78.808C310.976 78.856 310.621 78.9573 310.424 79.112C310.232 79.2613 310.136 79.5173 310.136 79.88V80.272H315.968ZM320.076 75.32H320.604C321.735 75.32 322.548 75.496 323.044 75.848C323.54 76.1947 323.788 76.816 323.788 77.712V78.408C323.788 79.368 323.548 80.0533 323.068 80.464C322.588 80.8747 321.783 81.08 320.652 81.08H320.244C319.236 81.08 318.492 80.9653 318.012 80.736C317.532 80.5067 317.239 80.1307 317.132 79.608H318.084C318.159 79.8853 318.361 80.0773 318.692 80.184C319.028 80.2853 319.604 80.336 320.42 80.336C321.401 80.336 322.06 80.2027 322.396 79.936C322.732 79.6693 322.9 79.1467 322.9 78.368V78.216H322.844C322.721 78.504 322.457 78.712 322.052 78.84C321.647 78.9627 321.02 79.024 320.172 79.024C319.068 79.024 318.279 78.904 317.804 78.664C317.329 78.4187 317.092 77.9733 317.092 77.328V77.096C317.092 76.4347 317.34 75.9733 317.836 75.712C318.327 75.4507 319.073 75.32 320.076 75.32ZM322.268 76.272C321.911 76.1173 321.289 76.04 320.404 76.04C319.519 76.04 318.897 76.1173 318.54 76.272C318.183 76.4213 318.004 76.688 318.004 77.072V77.264C318.004 77.648 318.183 77.9173 318.54 78.072C318.903 78.2267 319.524 78.304 320.404 78.304C321.289 78.304 321.911 78.2267 322.268 78.072C322.631 77.9173 322.812 77.648 322.812 77.264V77.072C322.812 76.688 322.631 76.4213 322.268 76.272Z" fill="white"/>
<path opacity="0.5" d="M410.485 81.08H410.077C408.989 81.08 408.189 80.9493 407.677 80.688C407.165 80.4267 406.861 79.9947 406.765 79.392H407.701C407.808 79.7493 408.048 79.9973 408.421 80.136C408.8 80.2693 409.432 80.336 410.317 80.336C411.245 80.336 411.89 80.264 412.253 80.12C412.621 79.9707 412.805 79.712 412.805 79.344V79.224C412.805 78.7173 412.386 78.464 411.549 78.464H408.613V77.736H411.573C411.941 77.736 412.21 77.68 412.381 77.568C412.557 77.456 412.645 77.2773 412.645 77.032V76.936C412.645 76.616 412.472 76.392 412.125 76.264C411.784 76.1307 411.184 76.064 410.325 76.064C409.562 76.064 409.005 76.1307 408.653 76.264C408.306 76.3973 408.082 76.632 407.981 76.968H407.037C407.186 76.3707 407.498 75.9467 407.973 75.696C408.453 75.4453 409.178 75.32 410.149 75.32H410.405C411.536 75.32 412.346 75.432 412.837 75.656C413.328 75.8747 413.573 76.24 413.573 76.752V76.856C413.573 77.4853 413.261 77.8507 412.637 77.952V78.008C413.026 78.072 413.304 78.2 413.469 78.392C413.64 78.584 413.725 78.8693 413.725 79.248V79.384C413.725 79.9973 413.477 80.4347 412.981 80.696C412.49 80.952 411.658 81.08 410.485 81.08ZM418.753 81.088H418.065C416.844 81.088 415.967 80.888 415.433 80.488C414.905 80.0827 414.641 79.4347 414.641 78.544V77.864C414.641 76.9733 414.905 76.328 415.433 75.928C415.967 75.5227 416.844 75.32 418.065 75.32H418.753C419.975 75.32 420.849 75.52 421.377 75.92C421.911 76.32 422.177 76.9653 422.177 77.856V78.536C422.177 79.4267 421.911 80.0747 421.377 80.48C420.849 80.8853 419.975 81.088 418.753 81.088ZM418.409 80.336C418.996 80.336 419.476 80.2987 419.849 80.224C420.223 80.1493 420.513 80.0267 420.721 79.856C420.929 79.6853 421.071 79.4853 421.145 79.256C421.22 79.0213 421.257 78.7227 421.257 78.36V78.048C421.257 77.6853 421.22 77.3893 421.145 77.16C421.071 76.9307 420.929 76.728 420.721 76.552C420.519 76.376 420.228 76.2507 419.849 76.176C419.476 76.1013 418.996 76.064 418.409 76.064C417.817 76.064 417.335 76.1013 416.961 76.176C416.588 76.2507 416.297 76.376 416.089 76.552C415.881 76.728 415.74 76.9307 415.665 77.16C415.591 77.3893 415.553 77.6853 415.553 78.048V78.36C415.553 78.7227 415.591 79.0213 415.665 79.256C415.74 79.4853 415.881 79.6853 416.089 79.856C416.297 80.0267 416.588 80.1493 416.961 80.224C417.335 80.2987 417.817 80.336 418.409 80.336Z" fill="white"/>
<path opacity="0.5" d="M510.352 81.08H509.944C508.856 81.08 508.056 80.9493 507.544 80.688C507.032 80.4267 506.728 79.9947 506.632 79.392H507.568C507.675 79.7493 507.915 79.9973 508.288 80.136C508.667 80.2693 509.299 80.336 510.184 80.336C511.112 80.336 511.758 80.264 512.12 80.12C512.488 79.9707 512.672 79.712 512.672 79.344V79.224C512.672 78.7173 512.254 78.464 511.416 78.464H508.48V77.736H511.44C511.808 77.736 512.078 77.68 512.248 77.568C512.424 77.456 512.512 77.2773 512.512 77.032V76.936C512.512 76.616 512.339 76.392 511.992 76.264C511.651 76.1307 511.051 76.064 510.192 76.064C509.43 76.064 508.872 76.1307 508.52 76.264C508.174 76.3973 507.95 76.632 507.848 76.968H506.904C507.054 76.3707 507.366 75.9467 507.84 75.696C508.32 75.4453 509.046 75.32 510.016 75.32H510.272C511.403 75.32 512.214 75.432 512.704 75.656C513.195 75.8747 513.44 76.24 513.44 76.752V76.856C513.44 77.4853 513.128 77.8507 512.504 77.952V78.008C512.894 78.072 513.171 78.2 513.336 78.392C513.507 78.584 513.592 78.8693 513.592 79.248V79.384C513.592 79.9973 513.344 80.4347 512.848 80.696C512.358 80.952 511.526 81.08 510.352 81.08ZM518.013 75.4V81H517.101V76.12H517.053L514.221 77.312V76.416L516.749 75.4H518.013Z" fill="white"/>
<path opacity="0.5" d="M612.102 75.4V81H611.191V76.12H611.143L608.311 77.312V76.416L610.839 75.4H612.102Z" fill="white"/>
<path opacity="0.5" d="M25.8778 160.272V161H19.1338V160.072C19.1338 159.405 19.2858 158.925 19.5898 158.632C19.8992 158.339 20.4485 158.152 21.2378 158.072L23.5898 157.84C24.1285 157.781 24.4912 157.696 24.6778 157.584C24.8645 157.472 24.9578 157.277 24.9578 157V156.92C24.9578 156.611 24.7845 156.392 24.4378 156.264C24.0965 156.131 23.5098 156.064 22.6778 156.064C21.8565 156.064 21.2805 156.133 20.9498 156.272C20.6192 156.405 20.3952 156.643 20.2778 156.984H19.3258C19.4645 156.349 19.7872 155.915 20.2938 155.68C20.8058 155.44 21.5365 155.32 22.4858 155.32H22.8138C23.7952 155.32 24.5498 155.432 25.0778 155.656C25.6112 155.88 25.8778 156.275 25.8778 156.84V157.008C25.8778 157.477 25.7365 157.835 25.4538 158.08C25.1765 158.325 24.6645 158.485 23.9178 158.56L21.3978 158.808C20.8858 158.856 20.5312 158.957 20.3338 159.112C20.1418 159.261 20.0458 159.517 20.0458 159.88V160.272H25.8778Z" fill="white"/>
<path opacity="0.5" d="M120.79 161.08H120.382C119.294 161.08 118.494 160.949 117.982 160.688C117.47 160.427 117.166 159.995 117.07 159.392H118.006C118.113 159.749 118.353 159.997 118.726 160.136C119.105 160.269 119.737 160.336 120.622 160.336C121.55 160.336 122.195 160.264 122.558 160.12C122.926 159.971 123.11 159.712 123.11 159.344V159.224C123.11 158.717 122.691 158.464 121.854 158.464H118.918V157.736H121.878C122.246 157.736 122.515 157.68 122.686 157.568C122.862 157.456 122.95 157.277 122.95 157.032V156.936C122.95 156.616 122.777 156.392 122.43 156.264C122.089 156.131 121.489 156.064 120.63 156.064C119.867 156.064 119.31 156.131 118.958 156.264C118.611 156.397 118.387 156.632 118.286 156.968H117.342C117.491 156.371 117.803 155.947 118.278 155.696C118.758 155.445 119.483 155.32 120.454 155.32H120.71C121.841 155.32 122.651 155.432 123.142 155.656C123.633 155.875 123.878 156.24 123.878 156.752V156.856C123.878 157.485 123.566 157.851 122.942 157.952V158.008C123.331 158.072 123.609 158.2 123.774 158.392C123.945 158.584 124.03 158.869 124.03 159.248V159.384C124.03 159.997 123.782 160.435 123.286 160.696C122.795 160.952 121.963 161.08 120.79 161.08Z" fill="white"/>
<path opacity="0.5" d="M220.99 159.552V161H220.078V159.552H215.142V158.32L219.55 155.4H220.99V158.832H222.006V159.552H220.99ZM215.862 158.784V158.832H220.078V156.016H220.03L215.862 158.784Z" fill="white"/>
<path opacity="0.5" d="M316.926 161.08H316.406C315.425 161.08 314.689 160.96 314.198 160.72C313.713 160.48 313.411 160.091 313.294 159.552H314.238C314.318 159.835 314.542 160.037 314.91 160.16C315.283 160.277 315.862 160.336 316.646 160.336C317.521 160.336 318.137 160.253 318.494 160.088C318.857 159.923 319.038 159.64 319.038 159.24V159.088C319.038 158.672 318.87 158.387 318.534 158.232C318.203 158.072 317.585 157.992 316.678 157.992C315.979 157.992 315.443 158.037 315.07 158.128C314.697 158.219 314.427 158.371 314.262 158.584H313.406L313.766 155.4H319.526V156.128H314.59L314.366 157.832H314.414C314.713 157.437 315.574 157.24 316.998 157.24C318.059 157.24 318.817 157.381 319.27 157.664C319.729 157.947 319.958 158.419 319.958 159.08V159.24C319.958 159.891 319.721 160.36 319.246 160.648C318.771 160.936 317.998 161.08 316.926 161.08Z" fill="white"/>
<path opacity="0.5" d="M414.838 161.08H414.31C413.179 161.08 412.366 160.907 411.87 160.56C411.374 160.208 411.126 159.584 411.126 158.688V157.992C411.126 157.032 411.366 156.347 411.846 155.936C412.326 155.525 413.131 155.32 414.262 155.32H414.67C415.683 155.32 416.43 155.435 416.91 155.664C417.39 155.888 417.681 156.264 417.782 156.792H416.83C416.755 156.515 416.55 156.325 416.214 156.224C415.883 156.117 415.31 156.064 414.494 156.064C413.513 156.064 412.854 156.197 412.518 156.464C412.182 156.731 412.014 157.253 412.014 158.032V158.184H412.07C412.193 157.896 412.457 157.691 412.862 157.568C413.267 157.44 413.894 157.376 414.742 157.376C415.846 157.376 416.635 157.499 417.11 157.744C417.585 157.984 417.822 158.427 417.822 159.072V159.304C417.822 159.965 417.574 160.427 417.078 160.688C416.587 160.949 415.841 161.08 414.838 161.08ZM412.638 160.136C413.001 160.285 413.625 160.36 414.51 160.36C415.395 160.36 416.017 160.285 416.374 160.136C416.731 159.981 416.91 159.712 416.91 159.328V159.136C416.91 158.752 416.729 158.483 416.366 158.328C416.009 158.173 415.39 158.096 414.51 158.096C413.625 158.096 413.001 158.173 412.638 158.328C412.281 158.483 412.102 158.752 412.102 159.136V159.328C412.102 159.712 412.281 159.981 412.638 160.136Z" fill="white"/>
<path opacity="0.5" d="M515.902 156.128L511.678 161H510.494L514.75 156.176V156.12H509.03V155.4H515.902V156.128Z" fill="white"/>
<path opacity="0.5" d="M610.854 161.08H610.142C609.747 161.08 609.406 161.067 609.118 161.04C608.835 161.019 608.561 160.973 608.294 160.904C608.033 160.829 607.819 160.733 607.654 160.616C607.494 160.493 607.366 160.333 607.27 160.136C607.174 159.933 607.126 159.693 607.126 159.416V159.28C607.126 158.896 607.217 158.6 607.398 158.392C607.579 158.179 607.867 158.043 608.262 157.984V157.936C607.633 157.813 607.318 157.445 607.318 156.832V156.736C607.318 156.203 607.558 155.835 608.038 155.632C608.523 155.424 609.275 155.32 610.294 155.32H610.694C611.713 155.32 612.465 155.424 612.95 155.632C613.435 155.835 613.678 156.203 613.678 156.736V156.832C613.678 157.445 613.363 157.813 612.734 157.936V157.984C613.497 158.096 613.878 158.525 613.878 159.272V159.416C613.878 159.693 613.83 159.933 613.734 160.136C613.638 160.333 613.507 160.493 613.342 160.616C613.182 160.733 612.969 160.829 612.702 160.904C612.435 160.973 612.158 161.019 611.87 161.04C611.587 161.067 611.249 161.08 610.854 161.08ZM609.382 157.72H611.614C612.014 157.72 612.302 157.661 612.478 157.544C612.659 157.421 612.75 157.229 612.75 156.968V156.888C612.75 156.557 612.59 156.336 612.27 156.224C611.955 156.107 611.363 156.048 610.494 156.048C609.625 156.048 609.033 156.107 608.718 156.224C608.403 156.336 608.246 156.557 608.246 156.888V156.968C608.246 157.229 608.334 157.421 608.51 157.544C608.686 157.661 608.977 157.72 609.382 157.72ZM608.558 160.152C608.91 160.285 609.555 160.352 610.494 160.352C611.433 160.352 612.078 160.285 612.43 160.152C612.782 160.019 612.958 159.771 612.958 159.408V159.288C612.958 159 612.851 158.784 612.638 158.64C612.425 158.496 612.075 158.424 611.59 158.424H609.398C608.918 158.424 608.571 158.496 608.358 158.64C608.145 158.784 608.038 159 608.038 159.288V159.408C608.038 159.771 608.211 160.019 608.558 160.152Z" fill="white"/>
<path opacity="0.5" d="M22.1658 236.32H22.6938C23.8245 236.32 24.6378 236.496 25.1338 236.848C25.6298 237.195 25.8778 237.816 25.8778 238.712V239.408C25.8778 240.368 25.6378 241.053 25.1578 241.464C24.6778 241.875 23.8725 242.08 22.7418 242.08H22.3338C21.3258 242.08 20.5818 241.965 20.1018 241.736C19.6218 241.507 19.3285 241.131 19.2218 240.608H20.1738C20.2485 240.885 20.4512 241.077 20.7818 241.184C21.1178 241.285 21.6938 241.336 22.5098 241.336C23.4912 241.336 24.1498 241.203 24.4858 240.936C24.8218 240.669 24.9898 240.147 24.9898 239.368V239.216H24.9338C24.8112 239.504 24.5472 239.712 24.1418 239.84C23.7365 239.963 23.1098 240.024 22.2618 240.024C21.1578 240.024 20.3685 239.904 19.8938 239.664C19.4192 239.419 19.1818 238.973 19.1818 238.328V238.096C19.1818 237.435 19.4298 236.973 19.9258 236.712C20.4165 236.451 21.1632 236.32 22.1658 236.32ZM24.3578 237.272C24.0005 237.117 23.3792 237.04 22.4938 237.04C21.6085 237.04 20.9872 237.117 20.6298 237.272C20.2725 237.421 20.0938 237.688 20.0938 238.072V238.264C20.0938 238.648 20.2725 238.917 20.6298 239.072C20.9925 239.227 21.6138 239.304 22.4938 239.304C23.3792 239.304 24.0005 239.227 24.3578 239.072C24.7205 238.917 24.9018 238.648 24.9018 238.264V238.072C24.9018 237.688 24.7205 237.421 24.3578 237.272Z" fill="white"/>
<path opacity="0.5" d="M117.798 236.4V242H116.886V237.12H116.838L114.006 238.312V237.416L116.534 236.4H117.798ZM123.281 242.088H122.593C121.371 242.088 120.494 241.888 119.961 241.488C119.433 241.083 119.169 240.435 119.169 239.544V238.864C119.169 237.973 119.433 237.328 119.961 236.928C120.494 236.523 121.371 236.32 122.593 236.32H123.281C124.502 236.32 125.377 236.52 125.905 236.92C126.438 237.32 126.705 237.965 126.705 238.856V239.536C126.705 240.427 126.438 241.075 125.905 241.48C125.377 241.885 124.502 242.088 123.281 242.088ZM122.937 241.336C123.523 241.336 124.003 241.299 124.377 241.224C124.75 241.149 125.041 241.027 125.249 240.856C125.457 240.685 125.598 240.485 125.673 240.256C125.747 240.021 125.785 239.723 125.785 239.36V239.048C125.785 238.685 125.747 238.389 125.673 238.16C125.598 237.931 125.457 237.728 125.249 237.552C125.046 237.376 124.755 237.251 124.377 237.176C124.003 237.101 123.523 237.064 122.937 237.064C122.345 237.064 121.862 237.101 121.489 237.176C121.115 237.251 120.825 237.376 120.617 237.552C120.409 237.728 120.267 237.931 120.193 238.16C120.118 238.389 120.081 238.685 120.081 239.048V239.36C120.081 239.723 120.118 240.021 120.193 240.256C120.267 240.485 120.409 240.685 120.617 240.856C120.825 241.027 121.115 241.149 121.489 241.224C121.862 241.299 122.345 241.336 122.937 241.336Z" fill="white"/>
<path opacity="0.5" d="M217.665 236.4V242H216.753V237.12H216.705L213.873 238.312V237.416L216.401 236.4H217.665ZM222.54 236.4V242H221.628V237.12H221.58L218.748 238.312V237.416L221.276 236.4H222.54Z" fill="white"/>
<path opacity="0.5" d="M314.192 236.4V242H313.28V237.12H313.232L310.4 238.312V237.416L312.928 236.4H314.192ZM322.315 241.272V242H315.571V241.072C315.571 240.405 315.723 239.925 316.027 239.632C316.337 239.339 316.886 239.152 317.675 239.072L320.027 238.84C320.566 238.781 320.929 238.696 321.115 238.584C321.302 238.472 321.395 238.277 321.395 238V237.92C321.395 237.611 321.222 237.392 320.875 237.264C320.534 237.131 319.947 237.064 319.115 237.064C318.294 237.064 317.718 237.133 317.387 237.272C317.057 237.405 316.833 237.643 316.715 237.984H315.763C315.902 237.349 316.225 236.915 316.731 236.68C317.243 236.44 317.974 236.32 318.923 236.32H319.251C320.233 236.32 320.987 236.432 321.515 236.656C322.049 236.88 322.315 237.275 322.315 237.84V238.008C322.315 238.477 322.174 238.835 321.891 239.08C321.614 239.325 321.102 239.485 320.355 239.56L317.835 239.808C317.323 239.856 316.969 239.957 316.771 240.112C316.579 240.261 316.483 240.517 316.483 240.88V241.272H322.315Z" fill="white"/>
<path opacity="0.5" d="M412.192 236.4V242H411.28V237.12H411.232L408.4 238.312V237.416L410.928 236.4H412.192ZM417.227 242.08H416.819C415.731 242.08 414.931 241.949 414.419 241.688C413.907 241.427 413.603 240.995 413.507 240.392H414.443C414.55 240.749 414.79 240.997 415.163 241.136C415.542 241.269 416.174 241.336 417.059 241.336C417.987 241.336 418.633 241.264 418.995 241.12C419.363 240.971 419.547 240.712 419.547 240.344V240.224C419.547 239.717 419.129 239.464 418.291 239.464H415.355V238.736H418.315C418.683 238.736 418.953 238.68 419.123 238.568C419.299 238.456 419.387 238.277 419.387 238.032V237.936C419.387 237.616 419.214 237.392 418.867 237.264C418.526 237.131 417.926 237.064 417.067 237.064C416.305 237.064 415.747 237.131 415.395 237.264C415.049 237.397 414.825 237.632 414.723 237.968H413.779C413.929 237.371 414.241 236.947 414.715 236.696C415.195 236.445 415.921 236.32 416.891 236.32H417.147C418.278 236.32 419.089 236.432 419.579 236.656C420.07 236.875 420.315 237.24 420.315 237.752V237.856C420.315 238.485 420.003 238.851 419.379 238.952V239.008C419.769 239.072 420.046 239.2 420.211 239.392C420.382 239.584 420.467 239.869 420.467 240.248V240.384C420.467 240.997 420.219 241.435 419.723 241.696C419.233 241.952 418.401 242.08 417.227 242.08Z" fill="white"/>
<path opacity="0.5" d="M510.192 236.4V242H509.28V237.12H509.232L506.4 238.312V237.416L508.928 236.4H510.192ZM517.427 240.552V242H516.515V240.552H511.579V239.32L515.987 236.4H517.427V239.832H518.443V240.552H517.427ZM512.299 239.784V239.832H516.515V237.016H516.467L512.299 239.784Z" fill="white"/>
<path opacity="0.5" d="M608.192 236.4V242H607.28V237.12H607.232L604.4 238.312V237.416L606.928 236.4H608.192ZM613.363 242.08H612.843C611.862 242.08 611.126 241.96 610.635 241.72C610.15 241.48 609.849 241.091 609.731 240.552H610.675C610.755 240.835 610.979 241.037 611.347 241.16C611.721 241.277 612.299 241.336 613.083 241.336C613.958 241.336 614.574 241.253 614.931 241.088C615.294 240.923 615.475 240.64 615.475 240.24V240.088C615.475 239.672 615.307 239.387 614.971 239.232C614.641 239.072 614.022 238.992 613.115 238.992C612.417 238.992 611.881 239.037 611.507 239.128C611.134 239.219 610.865 239.371 610.699 239.584H609.843L610.203 236.4H615.963V237.128H611.027L610.803 238.832H610.851C611.15 238.437 612.011 238.24 613.435 238.24C614.497 238.24 615.254 238.381 615.707 238.664C616.166 238.947 616.395 239.419 616.395 240.08V240.24C616.395 240.891 616.158 241.36 615.683 241.648C615.209 241.936 614.435 242.08 613.363 242.08Z" fill="white"/>
<path d="M0.5 44.6569V172V277.343C0.5 278.271 0.868774 279.162 1.52515 279.818L42.182 320.475C42.8383 321.131 43.7286 321.5 44.6569 321.5H643.343C644.271 321.5 645.162 321.131 645.818 320.475L685.975 280.318C686.631 279.662 687 278.771 687 277.843V4C687 2.067 685.433 0.5 683.5 0.5H44.6569C43.7286 0.5 42.8383 0.868753 42.182 1.52512L1.52515 42.182C0.868774 42.8384 0.5 43.7286 0.5 44.6569Z" stroke="url(#paint6_linear_3182_840)"/>
<path opacity="0.5" d="M41.8642 45.12H41.5042C40.8322 45.12 40.2282 45.088 39.6922 45.024C39.1562 44.96 38.6362 44.852 38.1322 44.7C37.6282 44.548 37.2122 44.32 36.8842 44.016C36.5562 43.712 36.3282 43.34 36.2002 42.9H37.7002C37.9402 43.324 38.3962 43.616 39.0682 43.776C39.7482 43.936 40.6602 44.016 41.8042 44.016C43.1242 44.016 44.1002 43.908 44.7322 43.692C45.3642 43.476 45.6802 43.096 45.6802 42.552V42.444C45.6802 42.052 45.5362 41.776 45.2482 41.616C44.9602 41.456 44.4242 41.364 43.6402 41.34L39.8722 41.208C38.6962 41.16 37.8642 40.976 37.3762 40.656C36.8882 40.328 36.6442 39.808 36.6442 39.096V39.012C36.6442 38.092 37.0402 37.44 37.8322 37.056C38.6322 36.672 39.8242 36.48 41.4082 36.48H41.7442C42.4002 36.48 42.9802 36.512 43.4842 36.576C43.9962 36.64 44.4922 36.752 44.9722 36.912C45.4522 37.064 45.8482 37.296 46.1602 37.608C46.4802 37.912 46.7042 38.292 46.8322 38.748H45.3322C45.1402 38.308 44.7242 38.004 44.0842 37.836C43.4442 37.668 42.5922 37.584 41.5282 37.584C40.2642 37.584 39.3722 37.688 38.8522 37.896C38.3402 38.104 38.0842 38.444 38.0842 38.916V38.94C38.0842 39.34 38.2282 39.62 38.5162 39.78C38.8042 39.94 39.3402 40.032 40.1242 40.056L43.8922 40.176C45.0762 40.224 45.9082 40.412 46.3882 40.74C46.8762 41.06 47.1202 41.576 47.1202 42.288V42.384C47.1202 42.92 47.0002 43.372 46.7602 43.74C46.5202 44.1 46.1562 44.38 45.6682 44.58C45.1882 44.78 44.6442 44.92 44.0362 45C43.4362 45.08 42.7122 45.12 41.8642 45.12ZM54.6974 45.12H53.2214C51.5974 45.12 50.4374 44.84 49.7414 44.28C49.0534 43.72 48.7094 42.84 48.7094 41.64V36.6H50.1374V41.508C50.1374 42.364 50.3894 42.988 50.8934 43.38C51.4054 43.764 52.3094 43.956 53.6054 43.956H54.3134C55.6094 43.956 56.5094 43.764 57.0134 43.38C57.5174 42.988 57.7694 42.364 57.7694 41.508V36.6H59.2094V41.64C59.2094 42.84 58.8614 43.72 58.1654 44.28C57.4774 44.84 56.3214 45.12 54.6974 45.12ZM72.3524 36.6V45H70.1924L62.7884 37.872H62.7044V45H61.2884V36.6H63.4604L70.8644 43.74H70.9364V36.6H72.3524Z" fill="white"/>
<path opacity="0.5" d="M144.468 36.6V45H143.052V37.728H142.992L138.384 45H136.824L132.3 37.728H132.216V45H130.8V36.6H133.32L137.64 43.524H137.712L142.116 36.6H144.468ZM152.989 45.12H151.597C149.733 45.12 148.405 44.82 147.613 44.22C146.821 43.62 146.425 42.632 146.425 41.256V40.344C146.425 38.968 146.821 37.98 147.613 37.38C148.405 36.78 149.733 36.48 151.597 36.48H152.989C154.853 36.48 156.181 36.78 156.973 37.38C157.773 37.98 158.173 38.968 158.173 40.344V41.256C158.173 42.632 157.773 43.62 156.973 44.22C156.181 44.82 154.853 45.12 152.989 45.12ZM151.897 43.956H152.689C153.521 43.956 154.201 43.904 154.729 43.8C155.257 43.688 155.669 43.508 155.965 43.26C156.261 43.012 156.461 42.716 156.565 42.372C156.677 42.028 156.733 41.584 156.733 41.04V40.572C156.733 40.028 156.677 39.584 156.565 39.24C156.461 38.896 156.261 38.6 155.965 38.352C155.669 38.096 155.257 37.916 154.729 37.812C154.201 37.7 153.521 37.644 152.689 37.644H151.897C151.057 37.644 150.373 37.7 149.845 37.812C149.325 37.916 148.917 38.096 148.621 38.352C148.325 38.6 148.125 38.896 148.021 39.24C147.917 39.576 147.865 40.02 147.865 40.572V41.04C147.865 41.472 147.897 41.836 147.961 42.132C148.025 42.428 148.141 42.7 148.309 42.948C148.485 43.196 148.725 43.392 149.029 43.536C149.333 43.672 149.717 43.776 150.181 43.848C150.653 43.92 151.225 43.956 151.897 43.956ZM171.184 36.6V45H169.024L161.62 37.872H161.536V45H160.12V36.6H162.292L169.696 43.74H169.768V36.6H171.184Z" fill="white"/>
<path opacity="0.5" d="M236.302 37.836V45H234.886V37.836H230.386V36.6H240.802V37.836H236.302ZM248.037 45.12H246.561C244.937 45.12 243.777 44.84 243.081 44.28C242.393 43.72 242.049 42.84 242.049 41.64V36.6H243.477V41.508C243.477 42.364 243.729 42.988 244.233 43.38C244.745 43.764 245.649 43.956 246.945 43.956H247.653C248.949 43.956 249.849 43.764 250.353 43.38C250.857 42.988 251.109 42.364 251.109 41.508V36.6H252.549V41.64C252.549 42.84 252.201 43.72 251.505 44.28C250.817 44.84 249.661 45.12 248.037 45.12ZM264 43.836V45H254.628V36.6H264V37.764H256.044V40.212H264V41.376H256.044V43.836H264Z" fill="white"/>
<path opacity="0.5" d="M340.304 36.6L337.1 45H335.252L331.868 37.956L328.508 45H326.492L323.312 36.6H324.872L327.56 43.704H327.632L331.016 36.6H332.72L336.116 43.704H336.188L338.876 36.6H340.304ZM351.137 43.836V45H341.765V36.6H351.137V37.764H343.181V40.212H351.137V41.376H343.181V43.836H351.137ZM364.207 40.464V41.136C364.207 42.52 363.827 43.512 363.067 44.112C362.315 44.704 361.019 45 359.179 45H353.203V36.6H359.131C360.979 36.6 362.287 36.9 363.055 37.5C363.823 38.092 364.207 39.08 364.207 40.464ZM358.687 37.764H354.619V43.836H358.687C359.807 43.836 360.663 43.732 361.255 43.524C361.847 43.316 362.247 43.012 362.455 42.612C362.663 42.212 362.767 41.648 362.767 40.92V40.692C362.767 40.14 362.711 39.692 362.599 39.348C362.495 39.004 362.291 38.708 361.987 38.46C361.691 38.204 361.279 38.024 360.751 37.92C360.223 37.816 359.535 37.764 358.687 37.764Z" fill="white"/>
<path opacity="0.5" d="M428.558 37.836V45H427.142V37.836H422.642V36.6H433.058V37.836H428.558ZM445.153 36.6V45H443.737V41.388H435.925V45H434.509V36.6H435.925V40.212H443.737V36.6H445.153ZM453.219 45.12H451.743C450.119 45.12 448.959 44.84 448.263 44.28C447.575 43.72 447.231 42.84 447.231 41.64V36.6H448.659V41.508C448.659 42.364 448.911 42.988 449.415 43.38C449.927 43.764 450.831 43.956 452.127 43.956H452.835C454.131 43.956 455.031 43.764 455.535 43.38C456.039 42.988 456.291 42.364 456.291 41.508V36.6H457.731V41.64C457.731 42.84 457.383 43.72 456.687 44.28C455.999 44.84 454.843 45.12 453.219 45.12Z" fill="white"/>
<path opacity="0.5" d="M525.827 41.412V45H524.411V36.6H533.783V37.764H525.827V40.236H533.783V41.412H525.827ZM537.042 41.652V45H535.626V36.6H542.694C543.918 36.6 544.786 36.768 545.298 37.104C545.81 37.44 546.066 37.976 546.066 38.712V39.06C546.066 39.652 545.922 40.1 545.634 40.404C545.354 40.7 544.918 40.88 544.326 40.944V40.992C544.934 41.072 545.374 41.248 545.646 41.52C545.926 41.784 546.066 42.24 546.066 42.888V45H544.65V43.128C544.65 42.528 544.486 42.132 544.158 41.94C543.83 41.748 543.154 41.652 542.13 41.652H537.042ZM542.13 37.764H537.042V40.488H542.358C543.23 40.488 543.83 40.396 544.158 40.212C544.486 40.028 544.65 39.688 544.65 39.192V39.072C544.65 38.56 544.474 38.216 544.122 38.04C543.778 37.856 543.114 37.764 542.13 37.764ZM549.581 36.6V45H548.165V36.6H549.581Z" fill="white"/>
<path opacity="0.5" d="M622.833 45.12H622.473C621.801 45.12 621.197 45.088 620.661 45.024C620.125 44.96 619.605 44.852 619.101 44.7C618.597 44.548 618.181 44.32 617.853 44.016C617.525 43.712 617.297 43.34 617.169 42.9H618.669C618.909 43.324 619.365 43.616 620.037 43.776C620.717 43.936 621.629 44.016 622.773 44.016C624.093 44.016 625.069 43.908 625.701 43.692C626.333 43.476 626.649 43.096 626.649 42.552V42.444C626.649 42.052 626.505 41.776 626.217 41.616C625.929 41.456 625.393 41.364 624.609 41.34L620.841 41.208C619.665 41.16 618.833 40.976 618.345 40.656C617.857 40.328 617.613 39.808 617.613 39.096V39.012C617.613 38.092 618.009 37.44 618.801 37.056C619.601 36.672 620.793 36.48 622.377 36.48H622.713C623.369 36.48 623.949 36.512 624.453 36.576C624.965 36.64 625.461 36.752 625.941 36.912C626.421 37.064 626.817 37.296 627.129 37.608C627.449 37.912 627.673 38.292 627.801 38.748H626.301C626.109 38.308 625.693 38.004 625.053 37.836C624.413 37.668 623.561 37.584 622.497 37.584C621.233 37.584 620.341 37.688 619.821 37.896C619.309 38.104 619.053 38.444 619.053 38.916V38.94C619.053 39.34 619.197 39.62 619.485 39.78C619.773 39.94 620.309 40.032 621.093 40.056L624.861 40.176C626.045 40.224 626.877 40.412 627.357 40.74C627.845 41.06 628.089 41.576 628.089 42.288V42.384C628.089 42.92 627.969 43.372 627.729 43.74C627.489 44.1 627.125 44.38 626.637 44.58C626.157 44.78 625.613 44.92 625.005 45C624.405 45.08 623.681 45.12 622.833 45.12ZM635.987 36.6L641.171 45H639.575L638.123 42.672H631.679L630.227 45H628.619L633.803 36.6H635.987ZM634.943 37.5H634.871L632.387 41.496H637.415L634.943 37.5ZM645.728 37.836V45H644.312V37.836H639.812V36.6H650.228V37.836H645.728Z" fill="white"/>
<path d="M32.5259 102.6L37.5419 111H34.8899L33.7859 109.152H27.6299L26.5259 111H23.8979L28.9139 102.6H32.5259ZM30.7619 104.052H30.6659L28.6739 107.376H32.7299L30.7619 104.052ZM44.2681 111.12H42.9721C41.0201 111.12 39.6401 110.824 38.8321 110.232C38.0241 109.632 37.6201 108.588 37.6201 107.1V106.5C37.6201 105.012 38.0241 103.972 38.8321 103.38C39.6401 102.78 41.0201 102.48 42.9721 102.48H44.2681C45.9961 102.48 47.2681 102.708 48.0841 103.164C48.9001 103.62 49.3841 104.404 49.5361 105.516H47.1241C47.0281 105.212 46.8681 104.976 46.6441 104.808C46.4281 104.632 46.0961 104.504 45.6481 104.424C45.2081 104.336 44.6121 104.292 43.8601 104.292H43.3921C42.4401 104.292 41.7201 104.372 41.2321 104.532C40.7521 104.684 40.4281 104.92 40.2601 105.24C40.1001 105.56 40.0201 106.036 40.0201 106.668V106.944C40.0201 107.568 40.1001 108.04 40.2601 108.36C40.4281 108.68 40.7521 108.92 41.2321 109.08C41.7201 109.232 42.4401 109.308 43.3921 109.308H43.8601C44.6121 109.308 45.2081 109.268 45.6481 109.188C46.0961 109.1 46.4281 108.972 46.6441 108.804C46.8681 108.628 47.0281 108.388 47.1241 108.084H49.5361C49.3841 109.196 48.9001 109.98 48.0841 110.436C47.2681 110.892 45.9961 111.12 44.2681 111.12ZM57.3931 111.12H56.0971C54.1451 111.12 52.7651 110.824 51.9571 110.232C51.1491 109.632 50.7451 108.588 50.7451 107.1V106.5C50.7451 105.012 51.1491 103.972 51.9571 103.38C52.7651 102.78 54.1451 102.48 56.0971 102.48H57.3931C59.1211 102.48 60.3931 102.708 61.2091 103.164C62.0251 103.62 62.5091 104.404 62.6611 105.516H60.2491C60.1531 105.212 59.9931 104.976 59.7691 104.808C59.5531 104.632 59.2211 104.504 58.7731 104.424C58.3331 104.336 57.7371 104.292 56.9851 104.292H56.5171C55.5651 104.292 54.8451 104.372 54.3571 104.532C53.8771 104.684 53.5531 104.92 53.3851 105.24C53.2251 105.56 53.1451 106.036 53.1451 106.668V106.944C53.1451 107.568 53.2251 108.04 53.3851 108.36C53.5531 108.68 53.8771 108.92 54.3571 109.08C54.8451 109.232 55.5651 109.308 56.5171 109.308H56.9851C57.7371 109.308 58.3331 109.268 58.7731 109.188C59.2211 109.1 59.5531 108.972 59.7691 108.804C59.9931 108.628 60.1531 108.388 60.2491 108.084H62.6611C62.5091 109.196 62.0251 109.98 61.2091 110.436C60.3931 110.892 59.1211 111.12 57.3931 111.12Z" fill="white"/>
<path opacity="0.7" d="M27.6834 125.88V127.26H26.6994V125.88C23.8514 125.88 22.1674 125.22 21.6474 123.9H23.2074C23.6394 124.516 24.9074 124.824 27.0114 124.824C28.3714 124.824 29.3554 124.736 29.9634 124.56C30.5954 124.384 30.9114 124.012 30.9114 123.444V123.372C30.9114 122.98 30.7594 122.72 30.4554 122.592C30.1514 122.456 29.5434 122.376 28.6314 122.352L25.1514 122.232C23.9034 122.184 23.0514 122.016 22.5954 121.728C22.1394 121.432 21.9114 120.932 21.9114 120.228V120.036C21.9114 119.228 22.2874 118.644 23.0394 118.284C23.7914 117.924 24.9394 117.736 26.4834 117.72V116.34H27.4674V117.732C28.8034 117.772 29.8474 117.952 30.5994 118.272C31.3514 118.584 31.8354 119.06 32.0514 119.7H30.5034C30.2954 119.356 29.8954 119.116 29.3034 118.98C28.7194 118.844 27.8834 118.776 26.7954 118.776C25.6034 118.776 24.7354 118.872 24.1914 119.064C23.6554 119.248 23.3794 119.556 23.3634 119.988V120.06C23.3634 120.46 23.5114 120.724 23.8074 120.852C24.1034 120.972 24.7194 121.052 25.6554 121.092L29.1354 121.212C30.3594 121.244 31.2034 121.416 31.6674 121.728C32.1314 122.032 32.3634 122.528 32.3634 123.216V123.384C32.3634 123.84 32.2594 124.232 32.0514 124.56C31.8434 124.88 31.5314 125.136 31.1154 125.328C30.6994 125.512 30.2114 125.648 29.6514 125.736C29.0994 125.816 28.4434 125.864 27.6834 125.88ZM38.8979 117.6V126H37.5299V118.68H37.4579L33.2099 120.468V119.124L37.0019 117.6H38.8979ZM47.1224 126.132H46.0904C44.2584 126.132 42.9424 125.832 42.1424 125.232C41.3504 124.624 40.9544 123.652 40.9544 122.316V121.296C40.9544 119.96 41.3504 118.992 42.1424 118.392C42.9424 117.784 44.2584 117.48 46.0904 117.48H47.1224C48.9544 117.48 50.2664 117.78 51.0584 118.38C51.8584 118.98 52.2584 119.948 52.2584 121.284V122.304C52.2584 123.64 51.8584 124.612 51.0584 125.22C50.2664 125.828 48.9544 126.132 47.1224 126.132ZM46.6064 125.004C47.4864 125.004 48.2064 124.948 48.7664 124.836C49.3264 124.724 49.7624 124.54 50.0744 124.284C50.3864 124.028 50.5984 123.728 50.7104 123.384C50.8224 123.032 50.8784 122.584 50.8784 122.04V121.572C50.8784 121.028 50.8224 120.584 50.7104 120.24C50.5984 119.896 50.3864 119.592 50.0744 119.328C49.7704 119.064 49.3344 118.876 48.7664 118.764C48.2064 118.652 47.4864 118.596 46.6064 118.596C45.7184 118.596 44.9944 118.652 44.4344 118.764C43.8744 118.876 43.4384 119.064 43.1264 119.328C42.8144 119.592 42.6024 119.896 42.4904 120.24C42.3784 120.584 42.3224 121.028 42.3224 121.572V122.04C42.3224 122.584 42.3784 123.032 42.4904 123.384C42.6024 123.728 42.8144 124.028 43.1264 124.284C43.4384 124.54 43.8744 124.724 44.4344 124.836C44.9944 124.948 45.7184 125.004 46.6064 125.004ZM60.0365 126.132H59.0045C57.1725 126.132 55.8565 125.832 55.0565 125.232C54.2645 124.624 53.8685 123.652 53.8685 122.316V121.296C53.8685 119.96 54.2645 118.992 55.0565 118.392C55.8565 117.784 57.1725 117.48 59.0045 117.48H60.0365C61.8685 117.48 63.1805 117.78 63.9725 118.38C64.7725 118.98 65.1725 119.948 65.1725 121.284V122.304C65.1725 123.64 64.7725 124.612 63.9725 125.22C63.1805 125.828 61.8685 126.132 60.0365 126.132ZM59.5205 125.004C60.4005 125.004 61.1205 124.948 61.6805 124.836C62.2405 124.724 62.6765 124.54 62.9885 124.284C63.3005 124.028 63.5125 123.728 63.6245 123.384C63.7365 123.032 63.7925 122.584 63.7925 122.04V121.572C63.7925 121.028 63.7365 120.584 63.6245 120.24C63.5125 119.896 63.3005 119.592 62.9885 119.328C62.6845 119.064 62.2485 118.876 61.6805 118.764C61.1205 118.652 60.4005 118.596 59.5205 118.596C58.6325 118.596 57.9085 118.652 57.3485 118.764C56.7885 118.876 56.3525 119.064 56.0405 119.328C55.7285 119.592 55.5165 119.896 55.4045 120.24C55.2925 120.584 55.2365 121.028 55.2365 121.572V122.04C55.2365 122.584 55.2925 123.032 55.4045 123.384C55.5165 123.728 55.7285 124.028 56.0405 124.284C56.3525 124.54 56.7885 124.724 57.3485 124.836C57.9085 124.948 58.6325 125.004 59.5205 125.004ZM72.9505 126.132H71.9185C70.0865 126.132 68.7705 125.832 67.9705 125.232C67.1785 124.624 66.7825 123.652 66.7825 122.316V121.296C66.7825 119.96 67.1785 118.992 67.9705 118.392C68.7705 117.784 70.0865 117.48 71.9185 117.48H72.9505C74.7825 117.48 76.0945 117.78 76.8865 118.38C77.6865 118.98 78.0865 119.948 78.0865 121.284V122.304C78.0865 123.64 77.6865 124.612 76.8865 125.22C76.0945 125.828 74.7825 126.132 72.9505 126.132ZM72.4345 125.004C73.3145 125.004 74.0345 124.948 74.5945 124.836C75.1545 124.724 75.5905 124.54 75.9025 124.284C76.2145 124.028 76.4265 123.728 76.5385 123.384C76.6505 123.032 76.7065 122.584 76.7065 122.04V121.572C76.7065 121.028 76.6505 120.584 76.5385 120.24C76.4265 119.896 76.2145 119.592 75.9025 119.328C75.5985 119.064 75.1625 118.876 74.5945 118.764C74.0345 118.652 73.3145 118.596 72.4345 118.596C71.5465 118.596 70.8225 118.652 70.2625 118.764C69.7025 118.876 69.2665 119.064 68.9545 119.328C68.6425 119.592 68.4305 119.896 68.3185 120.24C68.2065 120.584 68.1505 121.028 68.1505 121.572V122.04C68.1505 122.584 68.2065 123.032 68.3185 123.384C68.4305 123.728 68.6425 124.028 68.9545 124.284C69.2665 124.54 69.7025 124.724 70.2625 124.836C70.8225 124.948 71.5465 125.004 72.4345 125.004Z" fill="#00FFD1"/>
<path d="M132.526 102.6L137.542 111H134.89L133.786 109.152H127.63L126.526 111H123.898L128.914 102.6H132.526ZM130.762 104.052H130.666L128.674 107.376H132.73L130.762 104.052ZM144.268 111.12H142.972C141.02 111.12 139.64 110.824 138.832 110.232C138.024 109.632 137.62 108.588 137.62 107.1V106.5C137.62 105.012 138.024 103.972 138.832 103.38C139.64 102.78 141.02 102.48 142.972 102.48H144.268C145.996 102.48 147.268 102.708 148.084 103.164C148.9 103.62 149.384 104.404 149.536 105.516H147.124C147.028 105.212 146.868 104.976 146.644 104.808C146.428 104.632 146.096 104.504 145.648 104.424C145.208 104.336 144.612 104.292 143.86 104.292H143.392C142.44 104.292 141.72 104.372 141.232 104.532C140.752 104.684 140.428 104.92 140.26 105.24C140.1 105.56 140.02 106.036 140.02 106.668V106.944C140.02 107.568 140.1 108.04 140.26 108.36C140.428 108.68 140.752 108.92 141.232 109.08C141.72 109.232 142.44 109.308 143.392 109.308H143.86C144.612 109.308 145.208 109.268 145.648 109.188C146.096 109.1 146.428 108.972 146.644 108.804C146.868 108.628 147.028 108.388 147.124 108.084H149.536C149.384 109.196 148.9 109.98 148.084 110.436C147.268 110.892 145.996 111.12 144.268 111.12ZM157.393 111.12H156.097C154.145 111.12 152.765 110.824 151.957 110.232C151.149 109.632 150.745 108.588 150.745 107.1V106.5C150.745 105.012 151.149 103.972 151.957 103.38C152.765 102.78 154.145 102.48 156.097 102.48H157.393C159.121 102.48 160.393 102.708 161.209 103.164C162.025 103.62 162.509 104.404 162.661 105.516H160.249C160.153 105.212 159.993 104.976 159.769 104.808C159.553 104.632 159.221 104.504 158.773 104.424C158.333 104.336 157.737 104.292 156.985 104.292H156.517C155.565 104.292 154.845 104.372 154.357 104.532C153.877 104.684 153.553 104.92 153.385 105.24C153.225 105.56 153.145 106.036 153.145 106.668V106.944C153.145 107.568 153.225 108.04 153.385 108.36C153.553 108.68 153.877 108.92 154.357 109.08C154.845 109.232 155.565 109.308 156.517 109.308H156.985C157.737 109.308 158.333 109.268 158.773 109.188C159.221 109.1 159.553 108.972 159.769 108.804C159.993 108.628 160.153 108.388 160.249 108.084H162.661C162.509 109.196 162.025 109.98 161.209 110.436C160.393 110.892 159.121 111.12 157.393 111.12Z" fill="white"/>
<path opacity="0.7" d="M127.683 125.88V127.26H126.699V125.88C123.851 125.88 122.167 125.22 121.647 123.9H123.207C123.639 124.516 124.907 124.824 127.011 124.824C128.371 124.824 129.355 124.736 129.963 124.56C130.595 124.384 130.911 124.012 130.911 123.444V123.372C130.911 122.98 130.759 122.72 130.455 122.592C130.151 122.456 129.543 122.376 128.631 122.352L125.151 122.232C123.903 122.184 123.051 122.016 122.595 121.728C122.139 121.432 121.911 120.932 121.911 120.228V120.036C121.911 119.228 122.287 118.644 123.039 118.284C123.791 117.924 124.939 117.736 126.483 117.72V116.34H127.467V117.732C128.803 117.772 129.847 117.952 130.599 118.272C131.351 118.584 131.835 119.06 132.051 119.7H130.503C130.295 119.356 129.895 119.116 129.303 118.98C128.719 118.844 127.883 118.776 126.795 118.776C125.603 118.776 124.735 118.872 124.191 119.064C123.655 119.248 123.379 119.556 123.363 119.988V120.06C123.363 120.46 123.511 120.724 123.807 120.852C124.103 120.972 124.719 121.052 125.655 121.092L129.135 121.212C130.359 121.244 131.203 121.416 131.667 121.728C132.131 122.032 132.363 122.528 132.363 123.216V123.384C132.363 123.84 132.259 124.232 132.051 124.56C131.843 124.88 131.531 125.136 131.115 125.328C130.699 125.512 130.211 125.648 129.651 125.736C129.099 125.816 128.443 125.864 127.683 125.88ZM138.898 117.6V126H137.53V118.68H137.458L133.21 120.468V119.124L137.002 117.6H138.898ZM147.122 126.132H146.09C144.258 126.132 142.942 125.832 142.142 125.232C141.35 124.624 140.954 123.652 140.954 122.316V121.296C140.954 119.96 141.35 118.992 142.142 118.392C142.942 117.784 144.258 117.48 146.09 117.48H147.122C148.954 117.48 150.266 117.78 151.058 118.38C151.858 118.98 152.258 119.948 152.258 121.284V122.304C152.258 123.64 151.858 124.612 151.058 125.22C150.266 125.828 148.954 126.132 147.122 126.132ZM146.606 125.004C147.486 125.004 148.206 124.948 148.766 124.836C149.326 124.724 149.762 124.54 150.074 124.284C150.386 124.028 150.598 123.728 150.71 123.384C150.822 123.032 150.878 122.584 150.878 122.04V121.572C150.878 121.028 150.822 120.584 150.71 120.24C150.598 119.896 150.386 119.592 150.074 119.328C149.77 119.064 149.334 118.876 148.766 118.764C148.206 118.652 147.486 118.596 146.606 118.596C145.718 118.596 144.994 118.652 144.434 118.764C143.874 118.876 143.438 119.064 143.126 119.328C142.814 119.592 142.602 119.896 142.49 120.24C142.378 120.584 142.322 121.028 142.322 121.572V122.04C142.322 122.584 142.378 123.032 142.49 123.384C142.602 123.728 142.814 124.028 143.126 124.284C143.438 124.54 143.874 124.724 144.434 124.836C144.994 124.948 145.718 125.004 146.606 125.004ZM160.036 126.132H159.004C157.172 126.132 155.856 125.832 155.056 125.232C154.264 124.624 153.868 123.652 153.868 122.316V121.296C153.868 119.96 154.264 118.992 155.056 118.392C155.856 117.784 157.172 117.48 159.004 117.48H160.036C161.868 117.48 163.18 117.78 163.972 118.38C164.772 118.98 165.172 119.948 165.172 121.284V122.304C165.172 123.64 164.772 124.612 163.972 125.22C163.18 125.828 161.868 126.132 160.036 126.132ZM159.52 125.004C160.4 125.004 161.12 124.948 161.68 124.836C162.24 124.724 162.676 124.54 162.988 124.284C163.3 124.028 163.512 123.728 163.624 123.384C163.736 123.032 163.792 122.584 163.792 122.04V121.572C163.792 121.028 163.736 120.584 163.624 120.24C163.512 119.896 163.3 119.592 162.988 119.328C162.684 119.064 162.248 118.876 161.68 118.764C161.12 118.652 160.4 118.596 159.52 118.596C158.632 118.596 157.908 118.652 157.348 118.764C156.788 118.876 156.352 119.064 156.04 119.328C155.728 119.592 155.516 119.896 155.404 120.24C155.292 120.584 155.236 121.028 155.236 121.572V122.04C155.236 122.584 155.292 123.032 155.404 123.384C155.516 123.728 155.728 124.028 156.04 124.284C156.352 124.54 156.788 124.724 157.348 124.836C157.908 124.948 158.632 125.004 159.52 125.004ZM172.951 126.132H171.919C170.087 126.132 168.771 125.832 167.971 125.232C167.179 124.624 166.783 123.652 166.783 122.316V121.296C166.783 119.96 167.179 118.992 167.971 118.392C168.771 117.784 170.087 117.48 171.919 117.48H172.951C174.783 117.48 176.095 117.78 176.887 118.38C177.687 118.98 178.087 119.948 178.087 121.284V122.304C178.087 123.64 177.687 124.612 176.887 125.22C176.095 125.828 174.783 126.132 172.951 126.132ZM172.435 125.004C173.315 125.004 174.035 124.948 174.595 124.836C175.155 124.724 175.591 124.54 175.903 124.284C176.215 124.028 176.427 123.728 176.539 123.384C176.651 123.032 176.707 122.584 176.707 122.04V121.572C176.707 121.028 176.651 120.584 176.539 120.24C176.427 119.896 176.215 119.592 175.903 119.328C175.599 119.064 175.163 118.876 174.595 118.764C174.035 118.652 173.315 118.596 172.435 118.596C171.547 118.596 170.823 118.652 170.263 118.764C169.703 118.876 169.267 119.064 168.955 119.328C168.643 119.592 168.431 119.896 168.319 120.24C168.207 120.584 168.151 121.028 168.151 121.572V122.04C168.151 122.584 168.207 123.032 168.319 123.384C168.431 123.728 168.643 124.028 168.955 124.284C169.267 124.54 169.703 124.724 170.263 124.836C170.823 124.948 171.547 125.004 172.435 125.004Z" fill="#00FFD1"/>
<path d="M132.526 182.6L137.542 191H134.89L133.786 189.152H127.63L126.526 191H123.898L128.914 182.6H132.526ZM130.762 184.052H130.666L128.674 187.376H132.73L130.762 184.052ZM144.268 191.12H142.972C141.02 191.12 139.64 190.824 138.832 190.232C138.024 189.632 137.62 188.588 137.62 187.1V186.5C137.62 185.012 138.024 183.972 138.832 183.38C139.64 182.78 141.02 182.48 142.972 182.48H144.268C145.996 182.48 147.268 182.708 148.084 183.164C148.9 183.62 149.384 184.404 149.536 185.516H147.124C147.028 185.212 146.868 184.976 146.644 184.808C146.428 184.632 146.096 184.504 145.648 184.424C145.208 184.336 144.612 184.292 143.86 184.292H143.392C142.44 184.292 141.72 184.372 141.232 184.532C140.752 184.684 140.428 184.92 140.26 185.24C140.1 185.56 140.02 186.036 140.02 186.668V186.944C140.02 187.568 140.1 188.04 140.26 188.36C140.428 188.68 140.752 188.92 141.232 189.08C141.72 189.232 142.44 189.308 143.392 189.308H143.86C144.612 189.308 145.208 189.268 145.648 189.188C146.096 189.1 146.428 188.972 146.644 188.804C146.868 188.628 147.028 188.388 147.124 188.084H149.536C149.384 189.196 148.9 189.98 148.084 190.436C147.268 190.892 145.996 191.12 144.268 191.12ZM157.393 191.12H156.097C154.145 191.12 152.765 190.824 151.957 190.232C151.149 189.632 150.745 188.588 150.745 187.1V186.5C150.745 185.012 151.149 183.972 151.957 183.38C152.765 182.78 154.145 182.48 156.097 182.48H157.393C159.121 182.48 160.393 182.708 161.209 183.164C162.025 183.62 162.509 184.404 162.661 185.516H160.249C160.153 185.212 159.993 184.976 159.769 184.808C159.553 184.632 159.221 184.504 158.773 184.424C158.333 184.336 157.737 184.292 156.985 184.292H156.517C155.565 184.292 154.845 184.372 154.357 184.532C153.877 184.684 153.553 184.92 153.385 185.24C153.225 185.56 153.145 186.036 153.145 186.668V186.944C153.145 187.568 153.225 188.04 153.385 188.36C153.553 188.68 153.877 188.92 154.357 189.08C154.845 189.232 155.565 189.308 156.517 189.308H156.985C157.737 189.308 158.333 189.268 158.773 189.188C159.221 189.1 159.553 188.972 159.769 188.804C159.993 188.628 160.153 188.388 160.249 188.084H162.661C162.509 189.196 162.025 189.98 161.209 190.436C160.393 190.892 159.121 191.12 157.393 191.12Z" fill="white"/>
<path opacity="0.7" d="M127.683 205.88V207.26H126.699V205.88C123.851 205.88 122.167 205.22 121.647 203.9H123.207C123.639 204.516 124.907 204.824 127.011 204.824C128.371 204.824 129.355 204.736 129.963 204.56C130.595 204.384 130.911 204.012 130.911 203.444V203.372C130.911 202.98 130.759 202.72 130.455 202.592C130.151 202.456 129.543 202.376 128.631 202.352L125.151 202.232C123.903 202.184 123.051 202.016 122.595 201.728C122.139 201.432 121.911 200.932 121.911 200.228V200.036C121.911 199.228 122.287 198.644 123.039 198.284C123.791 197.924 124.939 197.736 126.483 197.72V196.34H127.467V197.732C128.803 197.772 129.847 197.952 130.599 198.272C131.351 198.584 131.835 199.06 132.051 199.7H130.503C130.295 199.356 129.895 199.116 129.303 198.98C128.719 198.844 127.883 198.776 126.795 198.776C125.603 198.776 124.735 198.872 124.191 199.064C123.655 199.248 123.379 199.556 123.363 199.988V200.06C123.363 200.46 123.511 200.724 123.807 200.852C124.103 200.972 124.719 201.052 125.655 201.092L129.135 201.212C130.359 201.244 131.203 201.416 131.667 201.728C132.131 202.032 132.363 202.528 132.363 203.216V203.384C132.363 203.84 132.259 204.232 132.051 204.56C131.843 204.88 131.531 205.136 131.115 205.328C130.699 205.512 130.211 205.648 129.651 205.736C129.099 205.816 128.443 205.864 127.683 205.88ZM138.898 197.6V206H137.53V198.68H137.458L133.21 200.468V199.124L137.002 197.6H138.898ZM147.122 206.132H146.09C144.258 206.132 142.942 205.832 142.142 205.232C141.35 204.624 140.954 203.652 140.954 202.316V201.296C140.954 199.96 141.35 198.992 142.142 198.392C142.942 197.784 144.258 197.48 146.09 197.48H147.122C148.954 197.48 150.266 197.78 151.058 198.38C151.858 198.98 152.258 199.948 152.258 201.284V202.304C152.258 203.64 151.858 204.612 151.058 205.22C150.266 205.828 148.954 206.132 147.122 206.132ZM146.606 205.004C147.486 205.004 148.206 204.948 148.766 204.836C149.326 204.724 149.762 204.54 150.074 204.284C150.386 204.028 150.598 203.728 150.71 203.384C150.822 203.032 150.878 202.584 150.878 202.04V201.572C150.878 201.028 150.822 200.584 150.71 200.24C150.598 199.896 150.386 199.592 150.074 199.328C149.77 199.064 149.334 198.876 148.766 198.764C148.206 198.652 147.486 198.596 146.606 198.596C145.718 198.596 144.994 198.652 144.434 198.764C143.874 198.876 143.438 199.064 143.126 199.328C142.814 199.592 142.602 199.896 142.49 200.24C142.378 200.584 142.322 201.028 142.322 201.572V202.04C142.322 202.584 142.378 203.032 142.49 203.384C142.602 203.728 142.814 204.028 143.126 204.284C143.438 204.54 143.874 204.724 144.434 204.836C144.994 204.948 145.718 205.004 146.606 205.004ZM160.036 206.132H159.004C157.172 206.132 155.856 205.832 155.056 205.232C154.264 204.624 153.868 203.652 153.868 202.316V201.296C153.868 199.96 154.264 198.992 155.056 198.392C155.856 197.784 157.172 197.48 159.004 197.48H160.036C161.868 197.48 163.18 197.78 163.972 198.38C164.772 198.98 165.172 199.948 165.172 201.284V202.304C165.172 203.64 164.772 204.612 163.972 205.22C163.18 205.828 161.868 206.132 160.036 206.132ZM159.52 205.004C160.4 205.004 161.12 204.948 161.68 204.836C162.24 204.724 162.676 204.54 162.988 204.284C163.3 204.028 163.512 203.728 163.624 203.384C163.736 203.032 163.792 202.584 163.792 202.04V201.572C163.792 201.028 163.736 200.584 163.624 200.24C163.512 199.896 163.3 199.592 162.988 199.328C162.684 199.064 162.248 198.876 161.68 198.764C161.12 198.652 160.4 198.596 159.52 198.596C158.632 198.596 157.908 198.652 157.348 198.764C156.788 198.876 156.352 199.064 156.04 199.328C155.728 199.592 155.516 199.896 155.404 200.24C155.292 200.584 155.236 201.028 155.236 201.572V202.04C155.236 202.584 155.292 203.032 155.404 203.384C155.516 203.728 155.728 204.028 156.04 204.284C156.352 204.54 156.788 204.724 157.348 204.836C157.908 204.948 158.632 205.004 159.52 205.004ZM172.951 206.132H171.919C170.087 206.132 168.771 205.832 167.971 205.232C167.179 204.624 166.783 203.652 166.783 202.316V201.296C166.783 199.96 167.179 198.992 167.971 198.392C168.771 197.784 170.087 197.48 171.919 197.48H172.951C174.783 197.48 176.095 197.78 176.887 198.38C177.687 198.98 178.087 199.948 178.087 201.284V202.304C178.087 203.64 177.687 204.612 176.887 205.22C176.095 205.828 174.783 206.132 172.951 206.132ZM172.435 205.004C173.315 205.004 174.035 204.948 174.595 204.836C175.155 204.724 175.591 204.54 175.903 204.284C176.215 204.028 176.427 203.728 176.539 203.384C176.651 203.032 176.707 202.584 176.707 202.04V201.572C176.707 201.028 176.651 200.584 176.539 200.24C176.427 199.896 176.215 199.592 175.903 199.328C175.599 199.064 175.163 198.876 174.595 198.764C174.035 198.652 173.315 198.596 172.435 198.596C171.547 198.596 170.823 198.652 170.263 198.764C169.703 198.876 169.267 199.064 168.955 199.328C168.643 199.592 168.431 199.896 168.319 200.24C168.207 200.584 168.151 201.028 168.151 201.572V202.04C168.151 202.584 168.207 203.032 168.319 203.384C168.431 203.728 168.643 204.028 168.955 204.284C169.267 204.54 169.703 204.724 170.263 204.836C170.823 204.948 171.547 205.004 172.435 205.004Z" fill="#00FFD1"/>
<path d="M521.526 263.6L526.542 272H523.89L522.786 270.152H516.63L515.526 272H512.898L517.914 263.6H521.526ZM519.762 265.052H519.666L517.674 268.376H521.73L519.762 265.052ZM533.268 272.12H531.972C530.02 272.12 528.64 271.824 527.832 271.232C527.024 270.632 526.62 269.588 526.62 268.1V267.5C526.62 266.012 527.024 264.972 527.832 264.38C528.64 263.78 530.02 263.48 531.972 263.48H533.268C534.996 263.48 536.268 263.708 537.084 264.164C537.9 264.62 538.384 265.404 538.536 266.516H536.124C536.028 266.212 535.868 265.976 535.644 265.808C535.428 265.632 535.096 265.504 534.648 265.424C534.208 265.336 533.612 265.292 532.86 265.292H532.392C531.44 265.292 530.72 265.372 530.232 265.532C529.752 265.684 529.428 265.92 529.26 266.24C529.1 266.56 529.02 267.036 529.02 267.668V267.944C529.02 268.568 529.1 269.04 529.26 269.36C529.428 269.68 529.752 269.92 530.232 270.08C530.72 270.232 531.44 270.308 532.392 270.308H532.86C533.612 270.308 534.208 270.268 534.648 270.188C535.096 270.1 535.428 269.972 535.644 269.804C535.868 269.628 536.028 269.388 536.124 269.084H538.536C538.384 270.196 537.9 270.98 537.084 271.436C536.268 271.892 534.996 272.12 533.268 272.12ZM546.393 272.12H545.097C543.145 272.12 541.765 271.824 540.957 271.232C540.149 270.632 539.745 269.588 539.745 268.1V267.5C539.745 266.012 540.149 264.972 540.957 264.38C541.765 263.78 543.145 263.48 545.097 263.48H546.393C548.121 263.48 549.393 263.708 550.209 264.164C551.025 264.62 551.509 265.404 551.661 266.516H549.249C549.153 266.212 548.993 265.976 548.769 265.808C548.553 265.632 548.221 265.504 547.773 265.424C547.333 265.336 546.737 265.292 545.985 265.292H545.517C544.565 265.292 543.845 265.372 543.357 265.532C542.877 265.684 542.553 265.92 542.385 266.24C542.225 266.56 542.145 267.036 542.145 267.668V267.944C542.145 268.568 542.225 269.04 542.385 269.36C542.553 269.68 542.877 269.92 543.357 270.08C543.845 270.232 544.565 270.308 545.517 270.308H545.985C546.737 270.308 547.333 270.268 547.773 270.188C548.221 270.1 548.553 269.972 548.769 269.804C548.993 269.628 549.153 269.388 549.249 269.084H551.661C551.509 270.196 551.025 270.98 550.209 271.436C549.393 271.892 548.121 272.12 546.393 272.12Z" fill="white"/>
<path opacity="0.7" d="M516.683 286.88V288.26H515.699V286.88C512.851 286.88 511.167 286.22 510.647 284.9H512.207C512.639 285.516 513.907 285.824 516.011 285.824C517.371 285.824 518.355 285.736 518.963 285.56C519.595 285.384 519.911 285.012 519.911 284.444V284.372C519.911 283.98 519.759 283.72 519.455 283.592C519.151 283.456 518.543 283.376 517.631 283.352L514.151 283.232C512.903 283.184 512.051 283.016 511.595 282.728C511.139 282.432 510.911 281.932 510.911 281.228V281.036C510.911 280.228 511.287 279.644 512.039 279.284C512.791 278.924 513.939 278.736 515.483 278.72V277.34H516.467V278.732C517.803 278.772 518.847 278.952 519.599 279.272C520.351 279.584 520.835 280.06 521.051 280.7H519.503C519.295 280.356 518.895 280.116 518.303 279.98C517.719 279.844 516.883 279.776 515.795 279.776C514.603 279.776 513.735 279.872 513.191 280.064C512.655 280.248 512.379 280.556 512.363 280.988V281.06C512.363 281.46 512.511 281.724 512.807 281.852C513.103 281.972 513.719 282.052 514.655 282.092L518.135 282.212C519.359 282.244 520.203 282.416 520.667 282.728C521.131 283.032 521.363 283.528 521.363 284.216V284.384C521.363 284.84 521.259 285.232 521.051 285.56C520.843 285.88 520.531 286.136 520.115 286.328C519.699 286.512 519.211 286.648 518.651 286.736C518.099 286.816 517.443 286.864 516.683 286.88ZM527.898 278.6V287H526.53V279.68H526.458L522.21 281.468V280.124L526.002 278.6H527.898ZM536.122 287.132H535.09C533.258 287.132 531.942 286.832 531.142 286.232C530.35 285.624 529.954 284.652 529.954 283.316V282.296C529.954 280.96 530.35 279.992 531.142 279.392C531.942 278.784 533.258 278.48 535.09 278.48H536.122C537.954 278.48 539.266 278.78 540.058 279.38C540.858 279.98 541.258 280.948 541.258 282.284V283.304C541.258 284.64 540.858 285.612 540.058 286.22C539.266 286.828 537.954 287.132 536.122 287.132ZM535.606 286.004C536.486 286.004 537.206 285.948 537.766 285.836C538.326 285.724 538.762 285.54 539.074 285.284C539.386 285.028 539.598 284.728 539.71 284.384C539.822 284.032 539.878 283.584 539.878 283.04V282.572C539.878 282.028 539.822 281.584 539.71 281.24C539.598 280.896 539.386 280.592 539.074 280.328C538.77 280.064 538.334 279.876 537.766 279.764C537.206 279.652 536.486 279.596 535.606 279.596C534.718 279.596 533.994 279.652 533.434 279.764C532.874 279.876 532.438 280.064 532.126 280.328C531.814 280.592 531.602 280.896 531.49 281.24C531.378 281.584 531.322 282.028 531.322 282.572V283.04C531.322 283.584 531.378 284.032 531.49 284.384C531.602 284.728 531.814 285.028 532.126 285.284C532.438 285.54 532.874 285.724 533.434 285.836C533.994 285.948 534.718 286.004 535.606 286.004ZM549.036 287.132H548.004C546.172 287.132 544.856 286.832 544.056 286.232C543.264 285.624 542.868 284.652 542.868 283.316V282.296C542.868 280.96 543.264 279.992 544.056 279.392C544.856 278.784 546.172 278.48 548.004 278.48H549.036C550.868 278.48 552.18 278.78 552.972 279.38C553.772 279.98 554.172 280.948 554.172 282.284V283.304C554.172 284.64 553.772 285.612 552.972 286.22C552.18 286.828 550.868 287.132 549.036 287.132ZM548.52 286.004C549.4 286.004 550.12 285.948 550.68 285.836C551.24 285.724 551.676 285.54 551.988 285.284C552.3 285.028 552.512 284.728 552.624 284.384C552.736 284.032 552.792 283.584 552.792 283.04V282.572C552.792 282.028 552.736 281.584 552.624 281.24C552.512 280.896 552.3 280.592 551.988 280.328C551.684 280.064 551.248 279.876 550.68 279.764C550.12 279.652 549.4 279.596 548.52 279.596C547.632 279.596 546.908 279.652 546.348 279.764C545.788 279.876 545.352 280.064 545.04 280.328C544.728 280.592 544.516 280.896 544.404 281.24C544.292 281.584 544.236 282.028 544.236 282.572V283.04C544.236 283.584 544.292 284.032 544.404 284.384C544.516 284.728 544.728 285.028 545.04 285.284C545.352 285.54 545.788 285.724 546.348 285.836C546.908 285.948 547.632 286.004 548.52 286.004ZM561.951 287.132H560.919C559.087 287.132 557.771 286.832 556.971 286.232C556.179 285.624 555.783 284.652 555.783 283.316V282.296C555.783 280.96 556.179 279.992 556.971 279.392C557.771 278.784 559.087 278.48 560.919 278.48H561.951C563.783 278.48 565.095 278.78 565.887 279.38C566.687 279.98 567.087 280.948 567.087 282.284V283.304C567.087 284.64 566.687 285.612 565.887 286.22C565.095 286.828 563.783 287.132 561.951 287.132ZM561.435 286.004C562.315 286.004 563.035 285.948 563.595 285.836C564.155 285.724 564.591 285.54 564.903 285.284C565.215 285.028 565.427 284.728 565.539 284.384C565.651 284.032 565.707 283.584 565.707 283.04V282.572C565.707 282.028 565.651 281.584 565.539 281.24C565.427 280.896 565.215 280.592 564.903 280.328C564.599 280.064 564.163 279.876 563.595 279.764C563.035 279.652 562.315 279.596 561.435 279.596C560.547 279.596 559.823 279.652 559.263 279.764C558.703 279.876 558.267 280.064 557.955 280.328C557.643 280.592 557.431 280.896 557.319 281.24C557.207 281.584 557.151 282.028 557.151 282.572V283.04C557.151 283.584 557.207 284.032 557.319 284.384C557.431 284.728 557.643 285.028 557.955 285.284C558.267 285.54 558.703 285.724 559.263 285.836C559.823 285.948 560.547 286.004 561.435 286.004Z" fill="#00FFD1"/>
<path d="M229.526 102.6L234.542 111H231.89L230.786 109.152H224.63L223.526 111H220.898L225.914 102.6H229.526ZM227.762 104.052H227.666L225.674 107.376H229.73L227.762 104.052ZM241.268 111.12H239.972C238.02 111.12 236.64 110.824 235.832 110.232C235.024 109.632 234.62 108.588 234.62 107.1V106.5C234.62 105.012 235.024 103.972 235.832 103.38C236.64 102.78 238.02 102.48 239.972 102.48H241.268C242.996 102.48 244.268 102.708 245.084 103.164C245.9 103.62 246.384 104.404 246.536 105.516H244.124C244.028 105.212 243.868 104.976 243.644 104.808C243.428 104.632 243.096 104.504 242.648 104.424C242.208 104.336 241.612 104.292 240.86 104.292H240.392C239.44 104.292 238.72 104.372 238.232 104.532C237.752 104.684 237.428 104.92 237.26 105.24C237.1 105.56 237.02 106.036 237.02 106.668V106.944C237.02 107.568 237.1 108.04 237.26 108.36C237.428 108.68 237.752 108.92 238.232 109.08C238.72 109.232 239.44 109.308 240.392 109.308H240.86C241.612 109.308 242.208 109.268 242.648 109.188C243.096 109.1 243.428 108.972 243.644 108.804C243.868 108.628 244.028 108.388 244.124 108.084H246.536C246.384 109.196 245.9 109.98 245.084 110.436C244.268 110.892 242.996 111.12 241.268 111.12ZM254.393 111.12H253.097C251.145 111.12 249.765 110.824 248.957 110.232C248.149 109.632 247.745 108.588 247.745 107.1V106.5C247.745 105.012 248.149 103.972 248.957 103.38C249.765 102.78 251.145 102.48 253.097 102.48H254.393C256.121 102.48 257.393 102.708 258.209 103.164C259.025 103.62 259.509 104.404 259.661 105.516H257.249C257.153 105.212 256.993 104.976 256.769 104.808C256.553 104.632 256.221 104.504 255.773 104.424C255.333 104.336 254.737 104.292 253.985 104.292H253.517C252.565 104.292 251.845 104.372 251.357 104.532C250.877 104.684 250.553 104.92 250.385 105.24C250.225 105.56 250.145 106.036 250.145 106.668V106.944C250.145 107.568 250.225 108.04 250.385 108.36C250.553 108.68 250.877 108.92 251.357 109.08C251.845 109.232 252.565 109.308 253.517 109.308H253.985C254.737 109.308 255.333 109.268 255.773 109.188C256.221 109.1 256.553 108.972 256.769 108.804C256.993 108.628 257.153 108.388 257.249 108.084H259.661C259.509 109.196 259.025 109.98 258.209 110.436C257.393 110.892 256.121 111.12 254.393 111.12Z" fill="white"/>
<path opacity="0.7" d="M224.683 125.88V127.26H223.699V125.88C220.851 125.88 219.167 125.22 218.647 123.9H220.207C220.639 124.516 221.907 124.824 224.011 124.824C225.371 124.824 226.355 124.736 226.963 124.56C227.595 124.384 227.911 124.012 227.911 123.444V123.372C227.911 122.98 227.759 122.72 227.455 122.592C227.151 122.456 226.543 122.376 225.631 122.352L222.151 122.232C220.903 122.184 220.051 122.016 219.595 121.728C219.139 121.432 218.911 120.932 218.911 120.228V120.036C218.911 119.228 219.287 118.644 220.039 118.284C220.791 117.924 221.939 117.736 223.483 117.72V116.34H224.467V117.732C225.803 117.772 226.847 117.952 227.599 118.272C228.351 118.584 228.835 119.06 229.051 119.7H227.503C227.295 119.356 226.895 119.116 226.303 118.98C225.719 118.844 224.883 118.776 223.795 118.776C222.603 118.776 221.735 118.872 221.191 119.064C220.655 119.248 220.379 119.556 220.363 119.988V120.06C220.363 120.46 220.511 120.724 220.807 120.852C221.103 120.972 221.719 121.052 222.655 121.092L226.135 121.212C227.359 121.244 228.203 121.416 228.667 121.728C229.131 122.032 229.363 122.528 229.363 123.216V123.384C229.363 123.84 229.259 124.232 229.051 124.56C228.843 124.88 228.531 125.136 228.115 125.328C227.699 125.512 227.211 125.648 226.651 125.736C226.099 125.816 225.443 125.864 224.683 125.88ZM235.898 117.6V126H234.53V118.68H234.458L230.21 120.468V119.124L234.002 117.6H235.898ZM244.122 126.132H243.09C241.258 126.132 239.942 125.832 239.142 125.232C238.35 124.624 237.954 123.652 237.954 122.316V121.296C237.954 119.96 238.35 118.992 239.142 118.392C239.942 117.784 241.258 117.48 243.09 117.48H244.122C245.954 117.48 247.266 117.78 248.058 118.38C248.858 118.98 249.258 119.948 249.258 121.284V122.304C249.258 123.64 248.858 124.612 248.058 125.22C247.266 125.828 245.954 126.132 244.122 126.132ZM243.606 125.004C244.486 125.004 245.206 124.948 245.766 124.836C246.326 124.724 246.762 124.54 247.074 124.284C247.386 124.028 247.598 123.728 247.71 123.384C247.822 123.032 247.878 122.584 247.878 122.04V121.572C247.878 121.028 247.822 120.584 247.71 120.24C247.598 119.896 247.386 119.592 247.074 119.328C246.77 119.064 246.334 118.876 245.766 118.764C245.206 118.652 244.486 118.596 243.606 118.596C242.718 118.596 241.994 118.652 241.434 118.764C240.874 118.876 240.438 119.064 240.126 119.328C239.814 119.592 239.602 119.896 239.49 120.24C239.378 120.584 239.322 121.028 239.322 121.572V122.04C239.322 122.584 239.378 123.032 239.49 123.384C239.602 123.728 239.814 124.028 240.126 124.284C240.438 124.54 240.874 124.724 241.434 124.836C241.994 124.948 242.718 125.004 243.606 125.004ZM257.036 126.132H256.004C254.172 126.132 252.856 125.832 252.056 125.232C251.264 124.624 250.868 123.652 250.868 122.316V121.296C250.868 119.96 251.264 118.992 252.056 118.392C252.856 117.784 254.172 117.48 256.004 117.48H257.036C258.868 117.48 260.18 117.78 260.972 118.38C261.772 118.98 262.172 119.948 262.172 121.284V122.304C262.172 123.64 261.772 124.612 260.972 125.22C260.18 125.828 258.868 126.132 257.036 126.132ZM256.52 125.004C257.4 125.004 258.12 124.948 258.68 124.836C259.24 124.724 259.676 124.54 259.988 124.284C260.3 124.028 260.512 123.728 260.624 123.384C260.736 123.032 260.792 122.584 260.792 122.04V121.572C260.792 121.028 260.736 120.584 260.624 120.24C260.512 119.896 260.3 119.592 259.988 119.328C259.684 119.064 259.248 118.876 258.68 118.764C258.12 118.652 257.4 118.596 256.52 118.596C255.632 118.596 254.908 118.652 254.348 118.764C253.788 118.876 253.352 119.064 253.04 119.328C252.728 119.592 252.516 119.896 252.404 120.24C252.292 120.584 252.236 121.028 252.236 121.572V122.04C252.236 122.584 252.292 123.032 252.404 123.384C252.516 123.728 252.728 124.028 253.04 124.284C253.352 124.54 253.788 124.724 254.348 124.836C254.908 124.948 255.632 125.004 256.52 125.004ZM269.951 126.132H268.919C267.087 126.132 265.771 125.832 264.971 125.232C264.179 124.624 263.783 123.652 263.783 122.316V121.296C263.783 119.96 264.179 118.992 264.971 118.392C265.771 117.784 267.087 117.48 268.919 117.48H269.951C271.783 117.48 273.095 117.78 273.887 118.38C274.687 118.98 275.087 119.948 275.087 121.284V122.304C275.087 123.64 274.687 124.612 273.887 125.22C273.095 125.828 271.783 126.132 269.951 126.132ZM269.435 125.004C270.315 125.004 271.035 124.948 271.595 124.836C272.155 124.724 272.591 124.54 272.903 124.284C273.215 124.028 273.427 123.728 273.539 123.384C273.651 123.032 273.707 122.584 273.707 122.04V121.572C273.707 121.028 273.651 120.584 273.539 120.24C273.427 119.896 273.215 119.592 272.903 119.328C272.599 119.064 272.163 118.876 271.595 118.764C271.035 118.652 270.315 118.596 269.435 118.596C268.547 118.596 267.823 118.652 267.263 118.764C266.703 118.876 266.267 119.064 265.955 119.328C265.643 119.592 265.431 119.896 265.319 120.24C265.207 120.584 265.151 121.028 265.151 121.572V122.04C265.151 122.584 265.207 123.032 265.319 123.384C265.431 123.728 265.643 124.028 265.955 124.284C266.267 124.54 266.703 124.724 267.263 124.836C267.823 124.948 268.547 125.004 269.435 125.004Z" fill="#00FFD1"/>
<line opacity="0.1" x1="688" y1="63.5" y2="63.5" stroke="url(#paint7_linear_3182_840)"/>
<defs>
<linearGradient id="paint0_linear_3182_840" x1="100.5" y1="2.18557e-08" x2="100.5" y2="321" gradientUnits="userSpaceOnUse">
<stop stop-color="#999999" stop-opacity="0"/>
<stop offset="1" stop-color="white"/>
</linearGradient>
<linearGradient id="paint1_linear_3182_840" x1="197.7" y1="2.03353e-08" x2="197.7" y2="321" gradientUnits="userSpaceOnUse">
<stop stop-color="#999999" stop-opacity="0"/>
<stop offset="1" stop-color="white"/>
</linearGradient>
<linearGradient id="paint2_linear_3182_840" x1="294.9" y1="2.03353e-08" x2="294.9" y2="321" gradientUnits="userSpaceOnUse">
<stop stop-color="#999999" stop-opacity="0"/>
<stop offset="1" stop-color="white"/>
</linearGradient>
<linearGradient id="paint3_linear_3182_840" x1="392.1" y1="2.03353e-08" x2="392.1" y2="321" gradientUnits="userSpaceOnUse">
<stop stop-color="#999999" stop-opacity="0"/>
<stop offset="1" stop-color="white"/>
</linearGradient>
<linearGradient id="paint4_linear_3182_840" x1="489.3" y1="2.03353e-08" x2="489.3" y2="321" gradientUnits="userSpaceOnUse">
<stop stop-color="#999999" stop-opacity="0"/>
<stop offset="1" stop-color="white"/>
</linearGradient>
<linearGradient id="paint5_linear_3182_840" x1="586.5" y1="2.18557e-08" x2="586.5" y2="321" gradientUnits="userSpaceOnUse">
<stop stop-color="#999999" stop-opacity="0"/>
<stop offset="1" stop-color="white"/>
</linearGradient>
<linearGradient id="paint6_linear_3182_840" x1="215.5" y1="12.5" x2="80.5001" y2="373.5" gradientUnits="userSpaceOnUse">
<stop stop-color="#8062FF" stop-opacity="0"/>
<stop offset="0.94" stop-color="#F9F9F9" stop-opacity="0.94"/>
</linearGradient>
<linearGradient id="paint7_linear_3182_840" x1="688" y1="62.5" x2="0" y2="62.5" gradientUnits="userSpaceOnUse">
<stop stop-color="#999999" stop-opacity="0"/>
<stop offset="1" stop-color="white"/>
</linearGradient>
</defs>
</svg>
