<svg width="124" height="33" viewBox="0 0 124 33" fill="none" xmlns="http://www.w3.org/2000/svg">
<path opacity="0.5" d="M86.0319 30.7317L68.3872 13.5512C66.8609 12.0651 66 10.0252 66 7.89485C66 3.53464 69.5346 2.38076e-06 73.8948 2.19017e-06L109.218 6.46122e-07C111.303 5.54992e-07 113.306 0.813851 114.799 2.26826L121.581 8.8714C123.128 10.3774 124 12.4444 124 14.6031L124 25C124 29.4183 120.418 33 116 33L91.6129 33C89.5281 33 87.5256 32.1861 86.0319 30.7317Z" fill="url(#paint0_linear_2744_972)"/>
<g opacity="0.5">
<path d="M1.75565 13.547V15.5H0.929648V10.6H5.05265C5.76665 10.6 6.27298 10.698 6.57165 10.894C6.87032 11.09 7.01965 11.4027 7.01965 11.832V12.035C7.01965 12.3803 6.93565 12.6417 6.76765 12.819C6.60432 12.9917 6.34998 13.0967 6.00465 13.134V13.162C6.35932 13.2087 6.61598 13.3113 6.77465 13.47C6.93798 13.624 7.01965 13.89 7.01965 14.268V15.5H6.19365V14.408C6.19365 14.058 6.09798 13.827 5.90665 13.715C5.71532 13.603 5.32098 13.547 4.72365 13.547H1.75565ZM4.72365 11.279H1.75565V12.868H4.85665C5.36532 12.868 5.71532 12.8143 5.90665 12.707C6.09798 12.5997 6.19365 12.4013 6.19365 12.112V12.042C6.19365 11.7433 6.09098 11.5427 5.88565 11.44C5.68498 11.3327 5.29765 11.279 4.72365 11.279ZM11.8701 14.436H12.6611C12.5538 14.828 12.3204 15.115 11.9611 15.297C11.6018 15.479 11.0884 15.57 10.4211 15.57H10.2041C9.4341 15.57 8.8601 15.4347 8.4821 15.164C8.10877 14.8887 7.9221 14.4407 7.9221 13.82V13.477C7.9221 12.8517 8.10877 12.4037 8.4821 12.133C8.85543 11.8577 9.42943 11.72 10.2041 11.72H10.4001C11.1748 11.72 11.7534 11.8577 12.1361 12.133C12.5188 12.4037 12.7101 12.8517 12.7101 13.477V13.806H8.6851C8.6851 14.268 8.8111 14.5807 9.0631 14.744C9.31977 14.9027 9.73744 14.982 10.3161 14.982C10.7874 14.982 11.1374 14.9447 11.3661 14.87C11.5948 14.7907 11.7628 14.646 11.8701 14.436ZM10.3161 12.259C9.77477 12.259 9.37577 12.3337 9.1191 12.483C8.86243 12.6323 8.7201 12.9077 8.6921 13.309H11.9471V13.281C11.9471 12.9123 11.8118 12.651 11.5411 12.497C11.2704 12.3383 10.8621 12.259 10.3161 12.259ZM20.9536 11.79L19.5186 15.5H18.4896L17.0056 12.476L15.5286 15.5H14.4366L13.0086 11.79H13.8556L15.0386 14.828H15.0806L16.5646 11.79H17.4816L18.9656 14.828H19.0076L20.1906 11.79H20.9536ZM25.7965 13.218V15.5H25.0335V14.723H25.0055C24.7908 15.2877 24.1328 15.57 23.0315 15.57C21.8088 15.57 21.1975 15.1803 21.1975 14.401V14.352C21.1975 13.68 21.6315 13.33 22.4995 13.302L25.0335 13.218V13.183C25.0335 12.8237 24.9192 12.581 24.6905 12.455C24.4665 12.3243 24.0978 12.259 23.5845 12.259C23.1738 12.259 22.8612 12.3033 22.6465 12.392C22.4365 12.476 22.2825 12.63 22.1845 12.854H21.3865C21.4938 12.462 21.7132 12.175 22.0445 11.993C22.3805 11.811 22.8868 11.72 23.5635 11.72H23.7385C24.4572 11.72 24.9798 11.8367 25.3065 12.07C25.6332 12.2987 25.7965 12.6813 25.7965 13.218ZM21.9675 14.345V14.373C21.9675 14.6157 22.0725 14.7883 22.2825 14.891C22.4925 14.9937 22.8122 15.045 23.2415 15.045C23.7875 15.045 24.2215 14.9447 24.5435 14.744C24.8702 14.5433 25.0335 14.254 25.0335 13.876V13.715L22.7865 13.792C22.5018 13.8013 22.2942 13.8503 22.1635 13.939C22.0328 14.023 21.9675 14.1583 21.9675 14.345ZM29.1467 11.79H29.5527V12.406H28.9857C28.519 12.406 28.1504 12.4853 27.8797 12.644C27.6137 12.798 27.4807 13.0757 27.4807 13.477V15.5H26.7177V11.79H27.4807V12.476H27.5087C27.7187 12.0187 28.2647 11.79 29.1467 11.79ZM34.9798 10.6V15.5H34.2168V14.8H34.1888C33.9508 15.3133 33.3372 15.57 32.3478 15.57H32.1098C31.4052 15.57 30.8732 15.4323 30.5138 15.157C30.1545 14.8817 29.9748 14.436 29.9748 13.82V13.477C29.9748 12.8377 30.1592 12.385 30.5278 12.119C30.8965 11.853 31.4238 11.72 32.1098 11.72H32.3478C33.3372 11.72 33.9508 11.9767 34.1888 12.49H34.2168V10.6H34.9798ZM32.4808 14.947C33.0922 14.947 33.5332 14.8677 33.8038 14.709C34.0792 14.5457 34.2168 14.247 34.2168 13.813V13.54C34.2168 13.078 34.0815 12.763 33.8108 12.595C33.5402 12.427 33.0968 12.343 32.4808 12.343C31.8648 12.343 31.4192 12.427 31.1438 12.595C30.8732 12.763 30.7378 13.078 30.7378 13.54V13.75C30.7378 14.212 30.8732 14.527 31.1438 14.695C31.4192 14.863 31.8648 14.947 32.4808 14.947ZM42.4045 13.204V15.5H41.6415V13.337C41.6415 12.9543 41.5272 12.693 41.2985 12.553C41.0699 12.413 40.7595 12.343 40.3675 12.343C39.8869 12.343 39.5159 12.434 39.2545 12.616C38.9932 12.798 38.8625 13.099 38.8625 13.519V15.5H38.0995V11.79H38.8625V12.49H38.9045C39.1472 11.9767 39.7072 11.72 40.5845 11.72C41.1492 11.72 41.5925 11.832 41.9145 12.056C42.2412 12.2753 42.4045 12.658 42.4045 13.204ZM47.7809 13.218V15.5H47.0179V14.723H46.9899C46.7752 15.2877 46.1172 15.57 45.0159 15.57C43.7932 15.57 43.1819 15.1803 43.1819 14.401V14.352C43.1819 13.68 43.6159 13.33 44.4839 13.302L47.0179 13.218V13.183C47.0179 12.8237 46.9035 12.581 46.6749 12.455C46.4509 12.3243 46.0822 12.259 45.5689 12.259C45.1582 12.259 44.8455 12.3033 44.6309 12.392C44.4209 12.476 44.2669 12.63 44.1689 12.854H43.3709C43.4782 12.462 43.6975 12.175 44.0289 11.993C44.3649 11.811 44.8712 11.72 45.5479 11.72H45.7229C46.4415 11.72 46.9642 11.8367 47.2909 12.07C47.6175 12.2987 47.7809 12.6813 47.7809 13.218ZM43.9519 14.345V14.373C43.9519 14.6157 44.0569 14.7883 44.2669 14.891C44.4769 14.9937 44.7965 15.045 45.2259 15.045C45.7719 15.045 46.2059 14.9447 46.5279 14.744C46.8545 14.5433 47.0179 14.254 47.0179 13.876V13.715L44.7709 13.792C44.4862 13.8013 44.2785 13.8503 44.1479 13.939C44.0172 14.023 43.9519 14.1583 43.9519 14.345ZM56.1221 13.204V15.5H55.3521V13.337C55.3521 13.1363 55.3194 12.9683 55.2541 12.833C55.1934 12.693 55.1047 12.5903 54.9881 12.525C54.8714 12.455 54.7477 12.4083 54.6171 12.385C54.4911 12.357 54.3464 12.343 54.1831 12.343C53.7397 12.343 53.3967 12.4363 53.1541 12.623C52.9114 12.805 52.7901 13.1153 52.7901 13.554V15.5H52.0271V13.337C52.0271 12.9543 51.9197 12.693 51.7051 12.553C51.4951 12.413 51.2104 12.343 50.8511 12.343C50.4077 12.343 50.0647 12.4363 49.8221 12.623C49.5841 12.805 49.4651 13.1153 49.4651 13.554V15.5H48.7021V11.79H49.4651V12.469H49.5071C49.7544 11.9697 50.2771 11.72 51.0751 11.72C51.9244 11.72 52.4564 11.9813 52.6711 12.504H52.7131C52.9744 11.9813 53.5274 11.72 54.3721 11.72C54.9321 11.72 55.3637 11.8297 55.6671 12.049C55.9704 12.2683 56.1221 12.6533 56.1221 13.204ZM60.8359 14.436H61.6269C61.5196 14.828 61.2863 15.115 60.9269 15.297C60.5676 15.479 60.0543 15.57 59.3869 15.57H59.1699C58.3999 15.57 57.8259 15.4347 57.4479 15.164C57.0746 14.8887 56.8879 14.4407 56.8879 13.82V13.477C56.8879 12.8517 57.0746 12.4037 57.4479 12.133C57.8213 11.8577 58.3953 11.72 59.1699 11.72H59.3659C60.1406 11.72 60.7193 11.8577 61.1019 12.133C61.4846 12.4037 61.6759 12.8517 61.6759 13.477V13.806H57.6509C57.6509 14.268 57.7769 14.5807 58.0289 14.744C58.2856 14.9027 58.7033 14.982 59.2819 14.982C59.7533 14.982 60.1033 14.9447 60.3319 14.87C60.5606 14.7907 60.7286 14.646 60.8359 14.436ZM59.2819 12.259C58.7406 12.259 58.3416 12.3337 58.0849 12.483C57.8283 12.6323 57.6859 12.9077 57.6579 13.309H60.9129V13.281C60.9129 12.9123 60.7776 12.651 60.5069 12.497C60.2363 12.3383 59.8279 12.259 59.2819 12.259Z" fill="white"/>
<path d="M4.95139 21.994L7.97539 24.5H6.48439L4.18139 22.547H4.14639L1.83639 24.5H0.394391L3.41839 21.987L0.534391 19.6H2.01839L4.20239 21.434H4.23039L6.42139 19.6H7.86339L4.95139 21.994ZM11.8197 24.57H11.3997C10.429 24.57 9.71504 24.4557 9.2577 24.227C8.80504 23.9983 8.53204 23.6203 8.4387 23.093H9.4957C9.58904 23.3403 9.78737 23.5107 10.0907 23.604C10.394 23.6973 10.9074 23.744 11.6307 23.744C12.4054 23.744 12.9397 23.6903 13.2337 23.583C13.5324 23.4757 13.6817 23.2843 13.6817 23.009V22.953C13.6817 22.575 13.3504 22.386 12.6877 22.386H10.1817V21.581H12.6807C12.9794 21.581 13.1964 21.5413 13.3317 21.462C13.467 21.378 13.5347 21.245 13.5347 21.063V21C13.5347 20.762 13.397 20.5963 13.1217 20.503C12.8464 20.405 12.361 20.356 11.6657 20.356C11.0357 20.356 10.5807 20.4003 10.3007 20.489C10.0207 20.5777 9.83404 20.7317 9.7407 20.951H8.6837C8.8237 20.4377 9.10837 20.0737 9.5377 19.859C9.96704 19.6397 10.6157 19.53 11.4837 19.53H11.7497C12.7437 19.53 13.4624 19.628 13.9057 19.824C14.349 20.02 14.5707 20.3373 14.5707 20.776V20.853C14.5707 21.413 14.279 21.735 13.6957 21.819V21.868C14.055 21.9147 14.3117 22.0243 14.4657 22.197C14.6244 22.3697 14.7037 22.6333 14.7037 22.988V23.086C14.7037 23.6273 14.4844 24.01 14.0457 24.234C13.6117 24.458 12.8697 24.57 11.8197 24.57Z" fill="white"/>
</g>
<defs>
<linearGradient id="paint0_linear_2744_972" x1="118.288" y1="3.56757" x2="82.2779" y2="32.478" gradientUnits="userSpaceOnUse">
<stop stop-color="white" stop-opacity="0.72"/>
<stop offset="1" stop-color="#311784" stop-opacity="0"/>
</linearGradient>
</defs>
</svg>
