<svg width="124" height="33" viewBox="0 0 124 33" fill="none" xmlns="http://www.w3.org/2000/svg">
<path opacity="0.5" d="M37.9681 2.26826L55.6128 19.4488C57.1391 20.9349 58 22.9748 58 25.1052C58 29.4654 54.4654 33 50.1052 33L14.7815 33C12.6967 33 10.6943 32.1861 9.20058 30.7317L2.41904 24.1286C0.872397 22.6226 -5.43964e-07 20.5556 -6.38324e-07 18.3969L-1.09278e-06 8C-1.28591e-06 3.58173 3.58172 3.65814e-06 8 3.46501e-06L32.3871 2.39901e-06C34.4719 2.30788e-06 36.4744 0.813853 37.9681 2.26826Z" fill="url(#paint0_linear_2744_948)"/>
<g opacity="0.5">
<path d="M63.7556 13.547V15.5H62.9296V10.6H67.0526C67.7666 10.6 68.273 10.698 68.5716 10.894C68.8703 11.09 69.0196 11.4027 69.0196 11.832V12.035C69.0196 12.3803 68.9356 12.6417 68.7676 12.819C68.6043 12.9917 68.35 13.0967 68.0046 13.134V13.162C68.3593 13.2087 68.616 13.3113 68.7746 13.47C68.938 13.624 69.0196 13.89 69.0196 14.268V15.5H68.1936V14.408C68.1936 14.058 68.098 13.827 67.9066 13.715C67.7153 13.603 67.321 13.547 66.7236 13.547H63.7556ZM66.7236 11.279H63.7556V12.868H66.8566C67.3653 12.868 67.7153 12.8143 67.9066 12.707C68.098 12.5997 68.1936 12.4013 68.1936 12.112V12.042C68.1936 11.7433 68.091 11.5427 67.8856 11.44C67.685 11.3327 67.2976 11.279 66.7236 11.279ZM73.8701 14.436H74.6611C74.5538 14.828 74.3204 15.115 73.9611 15.297C73.6018 15.479 73.0884 15.57 72.4211 15.57H72.2041C71.4341 15.57 70.8601 15.4347 70.4821 15.164C70.1088 14.8887 69.9221 14.4407 69.9221 13.82V13.477C69.9221 12.8517 70.1088 12.4037 70.4821 12.133C70.8554 11.8577 71.4294 11.72 72.2041 11.72H72.4001C73.1748 11.72 73.7534 11.8577 74.1361 12.133C74.5188 12.4037 74.7101 12.8517 74.7101 13.477V13.806H70.6851C70.6851 14.268 70.8111 14.5807 71.0631 14.744C71.3198 14.9027 71.7374 14.982 72.3161 14.982C72.7874 14.982 73.1374 14.9447 73.3661 14.87C73.5948 14.7907 73.7628 14.646 73.8701 14.436ZM72.3161 12.259C71.7748 12.259 71.3758 12.3337 71.1191 12.483C70.8624 12.6323 70.7201 12.9077 70.6921 13.309H73.9471V13.281C73.9471 12.9123 73.8118 12.651 73.5411 12.497C73.2704 12.3383 72.8621 12.259 72.3161 12.259ZM82.9536 11.79L81.5186 15.5H80.4896L79.0056 12.476L77.5286 15.5H76.4366L75.0086 11.79H75.8556L77.0386 14.828H77.0806L78.5646 11.79H79.4816L80.9656 14.828H81.0076L82.1906 11.79H82.9536ZM87.7965 13.218V15.5H87.0335V14.723H87.0055C86.7908 15.2877 86.1328 15.57 85.0315 15.57C83.8088 15.57 83.1975 15.1803 83.1975 14.401V14.352C83.1975 13.68 83.6315 13.33 84.4995 13.302L87.0335 13.218V13.183C87.0335 12.8237 86.9192 12.581 86.6905 12.455C86.4665 12.3243 86.0978 12.259 85.5845 12.259C85.1738 12.259 84.8612 12.3033 84.6465 12.392C84.4365 12.476 84.2825 12.63 84.1845 12.854H83.3865C83.4938 12.462 83.7132 12.175 84.0445 11.993C84.3805 11.811 84.8868 11.72 85.5635 11.72H85.7385C86.4572 11.72 86.9798 11.8367 87.3065 12.07C87.6332 12.2987 87.7965 12.6813 87.7965 13.218ZM83.9675 14.345V14.373C83.9675 14.6157 84.0725 14.7883 84.2825 14.891C84.4925 14.9937 84.8122 15.045 85.2415 15.045C85.7875 15.045 86.2215 14.9447 86.5435 14.744C86.8702 14.5433 87.0335 14.254 87.0335 13.876V13.715L84.7865 13.792C84.5018 13.8013 84.2942 13.8503 84.1635 13.939C84.0328 14.023 83.9675 14.1583 83.9675 14.345ZM91.1467 11.79H91.5527V12.406H90.9857C90.519 12.406 90.1504 12.4853 89.8797 12.644C89.6137 12.798 89.4807 13.0757 89.4807 13.477V15.5H88.7177V11.79H89.4807V12.476H89.5087C89.7187 12.0187 90.2647 11.79 91.1467 11.79ZM96.9798 10.6V15.5H96.2168V14.8H96.1888C95.9508 15.3133 95.3372 15.57 94.3478 15.57H94.1098C93.4052 15.57 92.8732 15.4323 92.5138 15.157C92.1545 14.8817 91.9748 14.436 91.9748 13.82V13.477C91.9748 12.8377 92.1592 12.385 92.5278 12.119C92.8965 11.853 93.4238 11.72 94.1098 11.72H94.3478C95.3372 11.72 95.9508 11.9767 96.1888 12.49H96.2168V10.6H96.9798ZM94.4808 14.947C95.0922 14.947 95.5332 14.8677 95.8038 14.709C96.0792 14.5457 96.2168 14.247 96.2168 13.813V13.54C96.2168 13.078 96.0815 12.763 95.8108 12.595C95.5402 12.427 95.0968 12.343 94.4808 12.343C93.8648 12.343 93.4192 12.427 93.1438 12.595C92.8732 12.763 92.7378 13.078 92.7378 13.54V13.75C92.7378 14.212 92.8732 14.527 93.1438 14.695C93.4192 14.863 93.8648 14.947 94.4808 14.947ZM104.405 13.204V15.5H103.642V13.337C103.642 12.9543 103.527 12.693 103.299 12.553C103.07 12.413 102.76 12.343 102.368 12.343C101.887 12.343 101.516 12.434 101.255 12.616C100.993 12.798 100.863 13.099 100.863 13.519V15.5H100.1V11.79H100.863V12.49H100.905C101.147 11.9767 101.707 11.72 102.585 11.72C103.149 11.72 103.593 11.832 103.915 12.056C104.241 12.2753 104.405 12.658 104.405 13.204ZM109.781 13.218V15.5H109.018V14.723H108.99C108.775 15.2877 108.117 15.57 107.016 15.57C105.793 15.57 105.182 15.1803 105.182 14.401V14.352C105.182 13.68 105.616 13.33 106.484 13.302L109.018 13.218V13.183C109.018 12.8237 108.904 12.581 108.675 12.455C108.451 12.3243 108.082 12.259 107.569 12.259C107.158 12.259 106.846 12.3033 106.631 12.392C106.421 12.476 106.267 12.63 106.169 12.854H105.371C105.478 12.462 105.698 12.175 106.029 11.993C106.365 11.811 106.871 11.72 107.548 11.72H107.723C108.442 11.72 108.964 11.8367 109.291 12.07C109.618 12.2987 109.781 12.6813 109.781 13.218ZM105.952 14.345V14.373C105.952 14.6157 106.057 14.7883 106.267 14.891C106.477 14.9937 106.797 15.045 107.226 15.045C107.772 15.045 108.206 14.9447 108.528 14.744C108.855 14.5433 109.018 14.254 109.018 13.876V13.715L106.771 13.792C106.486 13.8013 106.279 13.8503 106.148 13.939C106.017 14.023 105.952 14.1583 105.952 14.345ZM118.122 13.204V15.5H117.352V13.337C117.352 13.1363 117.319 12.9683 117.254 12.833C117.193 12.693 117.105 12.5903 116.988 12.525C116.871 12.455 116.748 12.4083 116.617 12.385C116.491 12.357 116.346 12.343 116.183 12.343C115.74 12.343 115.397 12.4363 115.154 12.623C114.911 12.805 114.79 13.1153 114.79 13.554V15.5H114.027V13.337C114.027 12.9543 113.92 12.693 113.705 12.553C113.495 12.413 113.21 12.343 112.851 12.343C112.408 12.343 112.065 12.4363 111.822 12.623C111.584 12.805 111.465 13.1153 111.465 13.554V15.5H110.702V11.79H111.465V12.469H111.507C111.754 11.9697 112.277 11.72 113.075 11.72C113.924 11.72 114.456 11.9813 114.671 12.504H114.713C114.974 11.9813 115.527 11.72 116.372 11.72C116.932 11.72 117.364 11.8297 117.667 12.049C117.97 12.2683 118.122 12.6533 118.122 13.204ZM122.836 14.436H123.627C123.52 14.828 123.286 15.115 122.927 15.297C122.568 15.479 122.054 15.57 121.387 15.57H121.17C120.4 15.57 119.826 15.4347 119.448 15.164C119.075 14.8887 118.888 14.4407 118.888 13.82V13.477C118.888 12.8517 119.075 12.4037 119.448 12.133C119.821 11.8577 120.395 11.72 121.17 11.72H121.366C122.141 11.72 122.719 11.8577 123.102 12.133C123.485 12.4037 123.676 12.8517 123.676 13.477V13.806H119.651C119.651 14.268 119.777 14.5807 120.029 14.744C120.286 14.9027 120.703 14.982 121.282 14.982C121.753 14.982 122.103 14.9447 122.332 14.87C122.561 14.7907 122.729 14.646 122.836 14.436ZM121.282 12.259C120.741 12.259 120.342 12.3337 120.085 12.483C119.828 12.6323 119.686 12.9077 119.658 13.309H122.913V13.281C122.913 12.9123 122.778 12.651 122.507 12.497C122.236 12.3383 121.828 12.259 121.282 12.259Z" fill="white"/>
<path d="M114.825 22.596L116.974 24.5H115.889L114.258 23.002H114.23L112.571 24.5H111.549L113.712 22.596L111.689 20.79H112.774L114.293 22.176H114.321L115.868 20.79H116.848L114.825 22.596ZM120.832 24.57H120.475C119.523 24.57 118.823 24.4557 118.375 24.227C117.927 23.9983 117.661 23.6203 117.577 23.093H118.396C118.49 23.4057 118.7 23.6227 119.026 23.744C119.358 23.8607 119.911 23.919 120.685 23.919C121.497 23.919 122.062 23.856 122.379 23.73C122.701 23.5993 122.862 23.373 122.862 23.051V22.946C122.862 22.5027 122.496 22.281 121.763 22.281H119.194V21.644H121.784C122.106 21.644 122.342 21.595 122.491 21.497C122.645 21.399 122.722 21.2427 122.722 21.028V20.944C122.722 20.664 122.571 20.468 122.267 20.356C121.969 20.2393 121.444 20.181 120.692 20.181C120.025 20.181 119.537 20.2393 119.229 20.356C118.926 20.4727 118.73 20.678 118.641 20.972H117.815C117.946 20.4493 118.219 20.0783 118.634 19.859C119.054 19.6397 119.689 19.53 120.538 19.53H120.762C121.752 19.53 122.461 19.628 122.89 19.824C123.32 20.0153 123.534 20.335 123.534 20.783V20.874C123.534 21.4247 123.261 21.7443 122.715 21.833V21.882C123.056 21.938 123.299 22.05 123.443 22.218C123.593 22.386 123.667 22.6357 123.667 22.967V23.086C123.667 23.6227 123.45 24.0053 123.016 24.234C122.587 24.458 121.859 24.57 120.832 24.57Z" fill="white"/>
</g>
<defs>
<linearGradient id="paint0_linear_2744_948" x1="5.71212" y1="29.4324" x2="41.7221" y2="0.522034" gradientUnits="userSpaceOnUse">
<stop stop-color="white" stop-opacity="0.72"/>
<stop offset="1" stop-color="#311784" stop-opacity="0"/>
</linearGradient>
</defs>
</svg>
