<svg width="25" height="25" viewBox="0 0 25 25" fill="none" xmlns="http://www.w3.org/2000/svg">
<path d="M12.8398 20.4999C10.6178 20.4999 8.72884 19.7219 7.17284 18.1659C5.61684 16.6099 4.83918 14.7212 4.83984 12.4999C4.83984 10.8532 5.31084 9.34156 6.25284 7.9649C7.19551 6.5869 8.53218 5.5959 10.2628 4.9919C10.4668 4.92056 10.6455 4.9019 10.7988 4.9359C10.9522 4.9699 11.0792 5.03623 11.1798 5.1349C11.2805 5.23356 11.3445 5.36023 11.3718 5.5149C11.3985 5.67023 11.3775 5.83323 11.3088 6.0039C11.1795 6.3219 11.0855 6.64556 11.0268 6.9749C10.9682 7.30423 10.9392 7.6459 10.9398 7.9999C10.9398 9.7819 11.5608 11.2942 12.8028 12.5369C14.0455 13.7789 15.5578 14.3999 17.3398 14.3999C17.8052 14.3999 18.2308 14.3506 18.6168 14.2519C19.0035 14.1532 19.3328 14.0732 19.6048 14.0119C19.7502 13.9852 19.8832 13.9886 20.0038 14.0219C20.1245 14.0552 20.2218 14.1139 20.2958 14.1979C20.3725 14.2812 20.4245 14.3839 20.4518 14.5059C20.4792 14.6279 20.4635 14.7669 20.4048 14.9229C19.9282 16.5562 18.9938 17.8939 17.6018 18.9359C16.2098 19.9779 14.6225 20.4992 12.8398 20.4999Z" fill="url(#paint0_linear_2744_1098)"/>
<defs>
<linearGradient id="paint0_linear_2744_1098" x1="20.4649" y1="12.7097" x2="4.83984" y2="12.7097" gradientUnits="userSpaceOnUse">
<stop stop-color="#00FFD1"/>
<stop offset="1" stop-color="#4723C0"/>
</linearGradient>
</defs>
</svg>
