<svg width="21" height="21" viewBox="0 0 21 21" fill="none" xmlns="http://www.w3.org/2000/svg">
<path fill-rule="evenodd" clip-rule="evenodd" d="M10.2812 0.5C10.5465 0.5 10.8008 0.605357 10.9884 0.792893C11.1759 0.98043 11.2812 1.23478 11.2812 1.5V2.5C11.2812 2.76522 11.1759 3.01957 10.9884 3.20711C10.8008 3.39464 10.5465 3.5 10.2812 3.5C10.016 3.5 9.76168 3.39464 9.57414 3.20711C9.38661 3.01957 9.28125 2.76522 9.28125 2.5V1.5C9.28125 1.23478 9.38661 0.98043 9.57414 0.792893C9.76168 0.605357 10.016 0.5 10.2812 0.5ZM0.28125 10.5C0.28125 10.2348 0.386607 9.98043 0.574143 9.79289C0.76168 9.60536 1.01603 9.5 1.28125 9.5H2.28125C2.54647 9.5 2.80082 9.60536 2.98836 9.79289C3.17589 9.98043 3.28125 10.2348 3.28125 10.5C3.28125 10.7652 3.17589 11.0196 2.98836 11.2071C2.80082 11.3946 2.54647 11.5 2.28125 11.5H1.28125C1.01603 11.5 0.76168 11.3946 0.574143 11.2071C0.386607 11.0196 0.28125 10.7652 0.28125 10.5ZM17.2812 10.5C17.2812 10.2348 17.3866 9.98043 17.5741 9.79289C17.7617 9.60536 18.016 9.5 18.2812 9.5H19.2812C19.5465 9.5 19.8008 9.60536 19.9884 9.79289C20.1759 9.98043 20.2812 10.2348 20.2812 10.5C20.2812 10.7652 20.1759 11.0196 19.9884 11.2071C19.8008 11.3946 19.5465 11.5 19.2812 11.5H18.2812C18.016 11.5 17.7617 11.3946 17.5741 11.2071C17.3866 11.0196 17.2812 10.7652 17.2812 10.5ZM11.2812 18.5C11.2812 18.2348 11.1759 17.9804 10.9884 17.7929C10.8008 17.6054 10.5465 17.5 10.2812 17.5C10.016 17.5 9.76168 17.6054 9.57414 17.7929C9.38661 17.9804 9.28125 18.2348 9.28125 18.5V19.5C9.28125 19.7652 9.38661 20.0196 9.57414 20.2071C9.76168 20.3946 10.016 20.5 10.2812 20.5C10.5465 20.5 10.8008 20.3946 10.9884 20.2071C11.1759 20.0196 11.2812 19.7652 11.2812 19.5V18.5ZM16.6453 15.45C16.553 15.3545 16.4427 15.2783 16.3207 15.2259C16.1987 15.1735 16.0674 15.1459 15.9347 15.1447C15.8019 15.1436 15.6702 15.1689 15.5473 15.2192C15.4244 15.2695 15.3127 15.3437 15.2189 15.4376C15.125 15.5315 15.0507 15.6432 15.0004 15.766C14.9501 15.8889 14.9248 16.0206 14.926 16.1534C14.9272 16.2862 14.9547 16.4174 15.0071 16.5394C15.0596 16.6614 15.1357 16.7718 15.2313 16.864L15.9382 17.571C16.1269 17.7532 16.3795 17.854 16.6417 17.8517C16.9038 17.8494 17.1547 17.7442 17.3401 17.5588C17.5255 17.3734 17.6306 17.1226 17.6329 16.8604C17.6352 16.5982 17.5344 16.3456 17.3522 16.157L16.6453 15.45ZM3.21025 3.429C3.39778 3.24153 3.65209 3.13621 3.91725 3.13621C4.18241 3.13621 4.43672 3.24153 4.62425 3.429L5.33125 4.136C5.51341 4.3246 5.6142 4.5772 5.61192 4.8394C5.60965 5.1016 5.50448 5.35241 5.31907 5.53782C5.13366 5.72323 4.88285 5.8284 4.62065 5.83067C4.35845 5.83295 4.10585 5.73216 3.91725 5.55L3.21025 4.843C3.02278 4.65547 2.91746 4.40116 2.91746 4.136C2.91746 3.87084 3.02278 3.61653 3.21025 3.429ZM5.33125 16.864C5.42676 16.7718 5.50294 16.6614 5.55535 16.5394C5.60776 16.4174 5.63535 16.2862 5.6365 16.1534C5.63765 16.0206 5.61235 15.8889 5.56207 15.766C5.51179 15.6432 5.43754 15.5315 5.34365 15.4376C5.24975 15.3437 5.1381 15.2695 5.0152 15.2192C4.89231 15.1689 4.76063 15.1436 4.62785 15.1447C4.49507 15.1459 4.36385 15.1735 4.24185 15.2259C4.11984 15.2783 4.0095 15.3545 3.91725 15.45L3.21025 16.157C3.11474 16.2492 3.03856 16.3596 2.98615 16.4816C2.93374 16.6036 2.90615 16.7348 2.905 16.8676C2.90385 17.0004 2.92915 17.1321 2.97943 17.255C3.02971 17.3778 3.10396 17.4895 3.19785 17.5834C3.29175 17.6773 3.4034 17.7515 3.5263 17.8018C3.64919 17.8521 3.78087 17.8774 3.91365 17.8763C4.04643 17.8751 4.17765 17.8475 4.29965 17.7951C4.42166 17.7427 4.532 17.6665 4.62425 17.571L5.33125 16.864ZM17.3522 3.429C17.5397 3.61653 17.645 3.87084 17.645 4.136C17.645 4.40116 17.5397 4.65547 17.3522 4.843L16.6453 5.55C16.553 5.64551 16.4427 5.72169 16.3207 5.7741C16.1987 5.82651 16.0674 5.8541 15.9347 5.85525C15.8019 5.8564 15.6702 5.8311 15.5473 5.78082C15.4244 5.73054 15.3127 5.65629 15.2189 5.5624C15.125 5.4685 15.0507 5.35685 15.0004 5.23395C14.9501 5.11106 14.9248 4.97938 14.926 4.8466C14.9272 4.71382 14.9547 4.5826 15.0071 4.4606C15.0596 4.33859 15.1357 4.22825 15.2313 4.136L15.9382 3.429C16.1258 3.24153 16.3801 3.13621 16.6453 3.13621C16.9104 3.13621 17.1647 3.24153 17.3522 3.429ZM5.28125 10.5C5.28125 9.17392 5.80803 7.90215 6.74572 6.96447C7.6834 6.02678 8.95517 5.5 10.2812 5.5C11.6073 5.5 12.8791 6.02678 13.8168 6.96447C14.7545 7.90215 15.2812 9.17392 15.2812 10.5C15.2812 11.8261 14.7545 13.0979 13.8168 14.0355C12.8791 14.9732 11.6073 15.5 10.2812 15.5C8.95517 15.5 7.6834 14.9732 6.74572 14.0355C5.80803 13.0979 5.28125 11.8261 5.28125 10.5Z" fill="url(#paint0_linear_2744_1097)"/>
<defs>
<linearGradient id="paint0_linear_2744_1097" x1="20.2812" y1="10.5" x2="0.28125" y2="10.5" gradientUnits="userSpaceOnUse">
<stop stop-color="#00FFD1"/>
<stop offset="1" stop-color="#4723C0"/>
</linearGradient>
</defs>
</svg>
