<svg width="28" height="29" viewBox="0 0 28 29" fill="none" xmlns="http://www.w3.org/2000/svg">
<path d="M6.99967 8.6665H12.833C13.1424 8.6665 13.4392 8.78942 13.658 9.00821C13.8768 9.22701 13.9997 9.52375 13.9997 9.83317C13.9997 10.1426 13.8768 10.4393 13.658 10.6581C13.4392 10.8769 13.1424 10.9998 12.833 10.9998H6.99967C6.69026 10.9998 6.39351 10.8769 6.17472 10.6581C5.95592 10.4393 5.83301 10.1426 5.83301 9.83317C5.83301 9.52375 5.95592 9.22701 6.17472 9.00821C6.39351 8.78942 6.69026 8.6665 6.99967 8.6665ZM15.1663 17.9998H20.9997C21.3091 17.9998 21.6058 18.1228 21.8246 18.3415C22.0434 18.5603 22.1663 18.8571 22.1663 19.1665C22.1663 19.4759 22.0434 19.7727 21.8246 19.9915C21.6058 20.2103 21.3091 20.3332 20.9997 20.3332H15.1663C14.8569 20.3332 14.5602 20.2103 14.3414 19.9915C14.1226 19.7727 13.9997 19.4759 13.9997 19.1665C13.9997 18.8571 14.1226 18.5603 14.3414 18.3415C14.5602 18.1228 14.8569 17.9998 15.1663 17.9998ZM6.99967 13.3332H20.9997C21.3091 13.3332 21.6058 13.4561 21.8246 13.6749C22.0434 13.8937 22.1663 14.1904 22.1663 14.4998C22.1663 14.8093 22.0434 15.106 21.8246 15.3248C21.6058 15.5436 21.3091 15.6665 20.9997 15.6665H6.99967C6.69026 15.6665 6.39351 15.5436 6.17472 15.3248C5.95592 15.106 5.83301 14.8093 5.83301 14.4998C5.83301 14.1904 5.95592 13.8937 6.17472 13.6749C6.39351 13.4561 6.69026 13.3332 6.99967 13.3332Z" fill="white"/>
</svg>
