<svg width="1032" height="172" viewBox="0 0 1032 172" fill="none" xmlns="http://www.w3.org/2000/svg">
<path d="M129.818 1.52512L130.171 1.17219L129.818 1.52513L170.475 42.182C171.131 42.8384 171.5 43.7286 171.5 44.6569V168C171.5 169.933 169.933 171.5 168 171.5H86H44.6569C43.7286 171.5 42.8384 171.131 42.182 170.475L1.52513 129.818L1.17219 130.171L1.52512 129.818C0.86875 129.162 0.5 128.271 0.5 127.343V4C0.5 2.067 2.067 0.5 4 0.5H86H127.343C128.271 0.5 129.162 0.86875 129.818 1.52512Z" stroke="url(#paint0_linear_2803_537)"/>
<path d="M301.818 1.52512L302.171 1.17219L301.818 1.52513L342.475 42.182C343.131 42.8384 343.5 43.7286 343.5 44.6569V168C343.5 169.933 341.933 171.5 340 171.5H258H216.657C215.729 171.5 214.838 171.131 214.182 170.475L173.525 129.818L173.172 130.171L173.525 129.818C172.869 129.162 172.5 128.271 172.5 127.343V4C172.5 2.067 174.067 0.5 176 0.5H258H299.343C300.271 0.5 301.162 0.86875 301.818 1.52512Z" stroke="url(#paint1_linear_2803_537)"/>
<path d="M473.818 1.52512L474.171 1.17219L473.818 1.52513L514.475 42.182C515.131 42.8384 515.5 43.7286 515.5 44.6569V168C515.5 169.933 513.933 171.5 512 171.5H430H388.657C387.729 171.5 386.838 171.131 386.182 170.475L345.525 129.818L345.172 130.171L345.525 129.818C344.869 129.162 344.5 128.271 344.5 127.343V4C344.5 2.067 346.067 0.5 348 0.5H430H471.343C472.271 0.5 473.162 0.86875 473.818 1.52512Z" stroke="url(#paint2_linear_2803_537)"/>
<path d="M645.818 1.52512L646.171 1.17219L645.818 1.52513L686.475 42.182C687.131 42.8384 687.5 43.7286 687.5 44.6569V168C687.5 169.933 685.933 171.5 684 171.5H602H560.657C559.729 171.5 558.838 171.131 558.182 170.475L517.525 129.818L517.172 130.171L517.525 129.818C516.869 129.162 516.5 128.271 516.5 127.343V4C516.5 2.067 518.067 0.5 520 0.5H602H643.343C644.271 0.5 645.162 0.86875 645.818 1.52512Z" stroke="url(#paint3_linear_2803_537)"/>
<path d="M817.818 1.52512L818.171 1.17219L817.818 1.52513L858.475 42.182C859.131 42.8384 859.5 43.7286 859.5 44.6569V168C859.5 169.933 857.933 171.5 856 171.5H774H732.657C731.729 171.5 730.838 171.131 730.182 170.475L689.525 129.818L689.172 130.171L689.525 129.818C688.869 129.162 688.5 128.271 688.5 127.343V4C688.5 2.067 690.067 0.5 692 0.5H774H815.343C816.271 0.5 817.162 0.86875 817.818 1.52512Z" stroke="url(#paint4_linear_2803_537)"/>
<path d="M989.818 1.52512L990.171 1.17219L989.818 1.52513L1030.47 42.182C1031.13 42.8384 1031.5 43.7286 1031.5 44.6569V168C1031.5 169.933 1029.93 171.5 1028 171.5H946H904.657C903.729 171.5 902.838 171.131 902.182 170.475L861.525 129.818L861.172 130.171L861.525 129.818C860.869 129.162 860.5 128.271 860.5 127.343V4C860.5 2.067 862.067 0.5 864 0.5H946H987.343C988.271 0.5 989.162 0.86875 989.818 1.52512Z" stroke="url(#paint5_linear_2803_537)"/>
<defs>
<linearGradient id="paint0_linear_2803_537" x1="0" y1="0" x2="86" y2="172" gradientUnits="userSpaceOnUse">
<stop offset="0.06" stop-color="#F9F9F9" stop-opacity="0.94"/>
<stop offset="1" stop-color="#8062FF" stop-opacity="0"/>
</linearGradient>
<linearGradient id="paint1_linear_2803_537" x1="172" y1="0" x2="258" y2="172" gradientUnits="userSpaceOnUse">
<stop offset="0.06" stop-color="#F9F9F9" stop-opacity="0.94"/>
<stop offset="1" stop-color="#8062FF" stop-opacity="0"/>
</linearGradient>
<linearGradient id="paint2_linear_2803_537" x1="344" y1="0" x2="430" y2="172" gradientUnits="userSpaceOnUse">
<stop offset="0.06" stop-color="#F9F9F9" stop-opacity="0.94"/>
<stop offset="1" stop-color="#8062FF" stop-opacity="0"/>
</linearGradient>
<linearGradient id="paint3_linear_2803_537" x1="516" y1="0" x2="602" y2="172" gradientUnits="userSpaceOnUse">
<stop offset="0.06" stop-color="#F9F9F9" stop-opacity="0.94"/>
<stop offset="1" stop-color="#8062FF" stop-opacity="0"/>
</linearGradient>
<linearGradient id="paint4_linear_2803_537" x1="688" y1="0" x2="774" y2="172" gradientUnits="userSpaceOnUse">
<stop offset="0.06" stop-color="#F9F9F9" stop-opacity="0.94"/>
<stop offset="1" stop-color="#8062FF" stop-opacity="0"/>
</linearGradient>
<linearGradient id="paint5_linear_2803_537" x1="874" y1="150" x2="959" y2="59.5" gradientUnits="userSpaceOnUse">
<stop offset="0.06" stop-color="#F9F9F9" stop-opacity="0.94"/>
<stop offset="1" stop-color="#8062FF" stop-opacity="0"/>
</linearGradient>
</defs>
</svg>
