<svg width="357" height="596" viewBox="0 0 357 596" fill="none" xmlns="http://www.w3.org/2000/svg">
<path opacity="0.5" d="M0 1L19.6184 20.6184C22.027 23.027 23.2313 24.2313 23.8657 25.7628C24.5 27.2942 24.5 28.9973 24.5 32.4036V78.0964C24.5 81.5027 24.5 83.2058 25.1343 84.7372C25.7687 86.2687 26.973 87.473 29.3816 89.8816L39.6185 100.118C42.027 102.527 43.2313 103.731 44.7628 104.366C46.2942 105 47.9973 105 51.4036 105H73.5H317.596C321.003 105 322.706 105 324.237 105.634C325.769 106.269 326.973 107.473 329.382 109.882L351.618 132.118C354.027 134.527 355.231 135.731 355.866 137.263C356.5 138.794 356.5 140.497 356.5 143.904V284.096C356.5 287.503 356.5 289.206 355.866 290.737C355.231 292.269 354.027 293.473 351.618 295.882L341.882 305.618C339.473 308.027 338.269 309.231 337.634 310.763C337 312.294 337 313.997 337 317.404V352V476.596C337 480.003 337 481.706 337.634 483.237C338.269 484.769 339.473 485.973 341.882 488.382L351.618 498.118C354.027 500.527 355.231 501.731 355.866 503.263C356.5 504.794 356.5 506.497 356.5 509.904V595.5" stroke="url(#paint0_linear_3447_361)" stroke-width="0.5" stroke-linecap="round"/>
<defs>
<linearGradient id="paint0_linear_3447_361" x1="-51.5049" y1="1.00323" x2="565.051" y2="376.21" gradientUnits="userSpaceOnUse">
<stop stop-color="white" stop-opacity="0"/>
<stop offset="0.484413" stop-color="white"/>
<stop offset="1" stop-color="#999999" stop-opacity="0"/>
</linearGradient>
</defs>
</svg>
