<svg width="375" height="362" viewBox="0 0 375 362" fill="none" xmlns="http://www.w3.org/2000/svg">
<g filter="url(#filter0_bd_3215_390)">
<path d="M339 195H212.45C209.28 195 206.241 196.259 204 198.5C201.759 200.741 198.72 202 195.55 202H82C73.1635 202 66 194.837 66 186V142.377C66 138.134 67.6857 134.064 70.6863 131.064L77.0637 124.686C80.0643 121.686 84.1339 120 88.3774 120H323.373C327.616 120 331.686 121.686 334.686 124.686L350.314 140.314C353.314 143.314 355 147.384 355 151.627V179C355 187.837 347.837 195 339 195Z" fill="#6562FF" shape-rendering="crispEdges"/>
<path d="M339 195H212.45C209.28 195 206.241 196.259 204 198.5C201.759 200.741 198.72 202 195.55 202H82C73.1635 202 66 194.837 66 186V142.377C66 138.134 67.6857 134.064 70.6863 131.064L77.0637 124.686C80.0643 121.686 84.1339 120 88.3774 120H323.373C327.616 120 331.686 121.686 334.686 124.686L350.314 140.314C353.314 143.314 355 147.384 355 151.627V179C355 187.837 347.837 195 339 195Z" stroke="#8062FF" stroke-opacity="0.24" stroke-width="9" stroke-linecap="round" shape-rendering="crispEdges"/>
</g>
<path d="M87.416 152V143.418H84.056V142.2H92.162V143.418H88.802V152H87.416ZM97.4528 144.51C98.0595 144.51 98.5915 144.627 99.0488 144.86C99.5155 145.093 99.8795 145.448 100.141 145.924C100.402 146.4 100.533 147.002 100.533 147.73V152H99.1888V147.884C99.1888 147.165 99.0115 146.624 98.6568 146.26C98.3115 145.896 97.8215 145.714 97.1868 145.714C96.7108 145.714 96.2955 145.807 95.9408 145.994C95.5861 146.181 95.3108 146.456 95.1148 146.82C94.9281 147.184 94.8348 147.637 94.8348 148.178V152H93.4908V141.612H94.8348V146.582L94.5688 146.05C94.8115 145.565 95.1848 145.187 95.6888 144.916C96.1928 144.645 96.7808 144.51 97.4528 144.51ZM106.324 152.084C105.531 152.084 104.831 151.921 104.224 151.594C103.627 151.267 103.16 150.819 102.824 150.25C102.497 149.681 102.334 149.027 102.334 148.29C102.334 147.553 102.493 146.899 102.81 146.33C103.137 145.761 103.58 145.317 104.14 145C104.709 144.673 105.349 144.51 106.058 144.51C106.777 144.51 107.411 144.669 107.962 144.986C108.513 145.303 108.942 145.751 109.25 146.33C109.567 146.899 109.726 147.567 109.726 148.332C109.726 148.388 109.721 148.453 109.712 148.528C109.712 148.603 109.707 148.673 109.698 148.738H103.384V147.772H108.998L108.452 148.108C108.461 147.632 108.363 147.207 108.158 146.834C107.953 146.461 107.668 146.171 107.304 145.966C106.949 145.751 106.534 145.644 106.058 145.644C105.591 145.644 105.176 145.751 104.812 145.966C104.448 146.171 104.163 146.465 103.958 146.848C103.753 147.221 103.65 147.651 103.65 148.136V148.36C103.65 148.855 103.762 149.298 103.986 149.69C104.219 150.073 104.541 150.371 104.952 150.586C105.363 150.801 105.834 150.908 106.366 150.908C106.805 150.908 107.201 150.833 107.556 150.684C107.92 150.535 108.237 150.311 108.508 150.012L109.25 150.88C108.914 151.272 108.494 151.571 107.99 151.776C107.495 151.981 106.94 152.084 106.324 152.084ZM122.576 142.2H123.976V152H122.576V142.2ZM116.948 152H115.548V142.2H116.948V152ZM122.702 147.632H116.808V146.414H122.702V147.632ZM127.035 154.8C126.681 154.8 126.335 154.739 125.999 154.618C125.663 154.506 125.374 154.338 125.131 154.114L125.705 153.106C125.892 153.283 126.097 153.419 126.321 153.512C126.545 153.605 126.783 153.652 127.035 153.652C127.362 153.652 127.633 153.568 127.847 153.4C128.062 153.232 128.263 152.933 128.449 152.504L128.911 151.482L129.051 151.314L131.963 144.58H133.279L129.681 152.742C129.467 153.265 129.224 153.675 128.953 153.974C128.692 154.273 128.403 154.483 128.085 154.604C127.768 154.735 127.418 154.8 127.035 154.8ZM128.799 152.238L125.411 144.58H126.811L129.695 151.188L128.799 152.238ZM138.468 152.084C137.852 152.084 137.287 151.944 136.774 151.664C136.27 151.375 135.864 150.95 135.556 150.39C135.257 149.83 135.108 149.13 135.108 148.29C135.108 147.45 135.252 146.75 135.542 146.19C135.84 145.63 136.242 145.21 136.746 144.93C137.259 144.65 137.833 144.51 138.468 144.51C139.196 144.51 139.84 144.669 140.4 144.986C140.96 145.303 141.403 145.747 141.73 146.316C142.056 146.876 142.22 147.534 142.22 148.29C142.22 149.046 142.056 149.709 141.73 150.278C141.403 150.847 140.96 151.291 140.4 151.608C139.84 151.925 139.196 152.084 138.468 152.084ZM134.534 154.716V144.58H135.822V146.582L135.738 148.304L135.878 150.026V154.716H134.534ZM138.356 150.908C138.832 150.908 139.256 150.801 139.63 150.586C140.012 150.371 140.311 150.068 140.526 149.676C140.75 149.275 140.862 148.813 140.862 148.29C140.862 147.758 140.75 147.301 140.526 146.918C140.311 146.526 140.012 146.223 139.63 146.008C139.256 145.793 138.832 145.686 138.356 145.686C137.889 145.686 137.464 145.793 137.082 146.008C136.708 146.223 136.41 146.526 136.186 146.918C135.971 147.301 135.864 147.758 135.864 148.29C135.864 148.813 135.971 149.275 136.186 149.676C136.41 150.068 136.708 150.371 137.082 150.586C137.464 150.801 137.889 150.908 138.356 150.908ZM147.381 152.084C146.587 152.084 145.887 151.921 145.281 151.594C144.683 151.267 144.217 150.819 143.881 150.25C143.554 149.681 143.391 149.027 143.391 148.29C143.391 147.553 143.549 146.899 143.867 146.33C144.193 145.761 144.637 145.317 145.197 145C145.766 144.673 146.405 144.51 147.115 144.51C147.833 144.51 148.468 144.669 149.019 144.986C149.569 145.303 149.999 145.751 150.307 146.33C150.624 146.899 150.783 147.567 150.783 148.332C150.783 148.388 150.778 148.453 150.769 148.528C150.769 148.603 150.764 148.673 150.755 148.738H144.441V147.772H150.055L149.509 148.108C149.518 147.632 149.42 147.207 149.215 146.834C149.009 146.461 148.725 146.171 148.361 145.966C148.006 145.751 147.591 145.644 147.115 145.644C146.648 145.644 146.233 145.751 145.869 145.966C145.505 146.171 145.22 146.465 145.015 146.848C144.809 147.221 144.707 147.651 144.707 148.136V148.36C144.707 148.855 144.819 149.298 145.043 149.69C145.276 150.073 145.598 150.371 146.009 150.586C146.419 150.801 146.891 150.908 147.423 150.908C147.861 150.908 148.258 150.833 148.613 150.684C148.977 150.535 149.294 150.311 149.565 150.012L150.307 150.88C149.971 151.272 149.551 151.571 149.047 151.776C148.552 151.981 147.997 152.084 147.381 152.084ZM152.649 152V144.58H153.937V146.596L153.811 146.092C154.016 145.579 154.362 145.187 154.847 144.916C155.332 144.645 155.93 144.51 156.639 144.51V145.812C156.583 145.803 156.527 145.798 156.471 145.798C156.424 145.798 156.378 145.798 156.331 145.798C155.612 145.798 155.043 146.013 154.623 146.442C154.203 146.871 153.993 147.492 153.993 148.304V152H152.649ZM165.175 152L160.863 142.2H162.375L166.337 151.244H165.469L169.459 142.2H170.859L166.561 152H165.175ZM175.958 152V150.432L175.888 150.138V147.464C175.888 146.895 175.72 146.456 175.384 146.148C175.057 145.831 174.563 145.672 173.9 145.672C173.461 145.672 173.032 145.747 172.612 145.896C172.192 146.036 171.837 146.227 171.548 146.47L170.988 145.462C171.371 145.154 171.828 144.921 172.36 144.762C172.901 144.594 173.466 144.51 174.054 144.51C175.071 144.51 175.855 144.757 176.406 145.252C176.957 145.747 177.232 146.503 177.232 147.52V152H175.958ZM173.522 152.084C172.971 152.084 172.486 151.991 172.066 151.804C171.655 151.617 171.338 151.361 171.114 151.034C170.89 150.698 170.778 150.32 170.778 149.9C170.778 149.499 170.871 149.135 171.058 148.808C171.254 148.481 171.567 148.22 171.996 148.024C172.435 147.828 173.023 147.73 173.76 147.73H176.112V148.696H173.816C173.144 148.696 172.691 148.808 172.458 149.032C172.225 149.256 172.108 149.527 172.108 149.844C172.108 150.208 172.253 150.502 172.542 150.726C172.831 150.941 173.233 151.048 173.746 151.048C174.25 151.048 174.689 150.936 175.062 150.712C175.445 150.488 175.72 150.161 175.888 149.732L176.154 150.656C175.977 151.095 175.664 151.445 175.216 151.706C174.768 151.958 174.203 152.084 173.522 152.084ZM179.719 152V144.58H181.007V146.596L180.881 146.092C181.087 145.579 181.432 145.187 181.917 144.916C182.403 144.645 183 144.51 183.709 144.51V145.812C183.653 145.803 183.597 145.798 183.541 145.798C183.495 145.798 183.448 145.798 183.401 145.798C182.683 145.798 182.113 146.013 181.693 146.442C181.273 146.871 181.063 147.492 181.063 148.304V152H179.719ZM185.366 152V144.58H186.71V152H185.366ZM186.038 143.152C185.776 143.152 185.557 143.068 185.38 142.9C185.212 142.732 185.128 142.527 185.128 142.284C185.128 142.032 185.212 141.822 185.38 141.654C185.557 141.486 185.776 141.402 186.038 141.402C186.299 141.402 186.514 141.486 186.682 141.654C186.859 141.813 186.948 142.013 186.948 142.256C186.948 142.508 186.864 142.723 186.696 142.9C186.528 143.068 186.308 143.152 186.038 143.152ZM193.882 152V150.432L193.812 150.138V147.464C193.812 146.895 193.644 146.456 193.308 146.148C192.981 145.831 192.487 145.672 191.824 145.672C191.385 145.672 190.956 145.747 190.536 145.896C190.116 146.036 189.761 146.227 189.472 146.47L188.912 145.462C189.295 145.154 189.752 144.921 190.284 144.762C190.825 144.594 191.39 144.51 191.978 144.51C192.995 144.51 193.779 144.757 194.33 145.252C194.881 145.747 195.156 146.503 195.156 147.52V152H193.882ZM191.446 152.084C190.895 152.084 190.41 151.991 189.99 151.804C189.579 151.617 189.262 151.361 189.038 151.034C188.814 150.698 188.702 150.32 188.702 149.9C188.702 149.499 188.795 149.135 188.982 148.808C189.178 148.481 189.491 148.22 189.92 148.024C190.359 147.828 190.947 147.73 191.684 147.73H194.036V148.696H191.74C191.068 148.696 190.615 148.808 190.382 149.032C190.149 149.256 190.032 149.527 190.032 149.844C190.032 150.208 190.177 150.502 190.466 150.726C190.755 150.941 191.157 151.048 191.67 151.048C192.174 151.048 192.613 150.936 192.986 150.712C193.369 150.488 193.644 150.161 193.812 149.732L194.078 150.656C193.901 151.095 193.588 151.445 193.14 151.706C192.692 151.958 192.127 152.084 191.446 152.084ZM201.605 144.51C202.212 144.51 202.744 144.627 203.201 144.86C203.668 145.093 204.032 145.448 204.293 145.924C204.554 146.4 204.685 147.002 204.685 147.73V152H203.341V147.884C203.341 147.165 203.164 146.624 202.809 146.26C202.464 145.896 201.974 145.714 201.339 145.714C200.863 145.714 200.448 145.807 200.093 145.994C199.738 146.181 199.463 146.456 199.267 146.82C199.08 147.184 198.987 147.637 198.987 148.178V152H197.643V144.58H198.931V146.582L198.721 146.05C198.964 145.565 199.337 145.187 199.841 144.916C200.345 144.645 200.933 144.51 201.605 144.51ZM209.72 152.084C208.974 152.084 208.395 151.883 207.984 151.482C207.574 151.081 207.368 150.507 207.368 149.76V142.956H208.712V149.704C208.712 150.105 208.81 150.413 209.006 150.628C209.212 150.843 209.501 150.95 209.874 150.95C210.294 150.95 210.644 150.833 210.924 150.6L211.344 151.566C211.139 151.743 210.892 151.874 210.602 151.958C210.322 152.042 210.028 152.084 209.72 152.084ZM206.108 145.686V144.58H210.84V145.686H206.108ZM215.097 152.084C214.481 152.084 213.893 152 213.333 151.832C212.783 151.664 212.349 151.459 212.031 151.216L212.591 150.152C212.909 150.367 213.301 150.549 213.767 150.698C214.234 150.847 214.71 150.922 215.195 150.922C215.821 150.922 216.269 150.833 216.539 150.656C216.819 150.479 216.959 150.231 216.959 149.914C216.959 149.681 216.875 149.499 216.707 149.368C216.539 149.237 216.315 149.139 216.035 149.074C215.765 149.009 215.461 148.953 215.125 148.906C214.789 148.85 214.453 148.785 214.117 148.71C213.781 148.626 213.473 148.514 213.193 148.374C212.913 148.225 212.689 148.024 212.521 147.772C212.353 147.511 212.269 147.165 212.269 146.736C212.269 146.288 212.395 145.896 212.647 145.56C212.899 145.224 213.254 144.967 213.711 144.79C214.178 144.603 214.729 144.51 215.363 144.51C215.849 144.51 216.339 144.571 216.833 144.692C217.337 144.804 217.748 144.967 218.065 145.182L217.491 146.246C217.155 146.022 216.805 145.868 216.441 145.784C216.077 145.7 215.713 145.658 215.349 145.658C214.761 145.658 214.323 145.756 214.033 145.952C213.744 146.139 213.599 146.381 213.599 146.68C213.599 146.932 213.683 147.128 213.851 147.268C214.029 147.399 214.253 147.501 214.523 147.576C214.803 147.651 215.111 147.716 215.447 147.772C215.783 147.819 216.119 147.884 216.455 147.968C216.791 148.043 217.095 148.15 217.365 148.29C217.645 148.43 217.869 148.626 218.037 148.878C218.215 149.13 218.303 149.466 218.303 149.886C218.303 150.334 218.173 150.721 217.911 151.048C217.65 151.375 217.281 151.631 216.805 151.818C216.329 151.995 215.76 152.084 215.097 152.084ZM228.349 152V150.432L228.279 150.138V147.464C228.279 146.895 228.111 146.456 227.775 146.148C227.448 145.831 226.953 145.672 226.291 145.672C225.852 145.672 225.423 145.747 225.003 145.896C224.583 146.036 224.228 146.227 223.939 146.47L223.379 145.462C223.761 145.154 224.219 144.921 224.751 144.762C225.292 144.594 225.857 144.51 226.445 144.51C227.462 144.51 228.246 144.757 228.797 145.252C229.347 145.747 229.623 146.503 229.623 147.52V152H228.349ZM225.913 152.084C225.362 152.084 224.877 151.991 224.457 151.804C224.046 151.617 223.729 151.361 223.505 151.034C223.281 150.698 223.169 150.32 223.169 149.9C223.169 149.499 223.262 149.135 223.449 148.808C223.645 148.481 223.957 148.22 224.387 148.024C224.825 147.828 225.413 147.73 226.151 147.73H228.503V148.696H226.207C225.535 148.696 225.082 148.808 224.849 149.032C224.615 149.256 224.499 149.527 224.499 149.844C224.499 150.208 224.643 150.502 224.933 150.726C225.222 150.941 225.623 151.048 226.137 151.048C226.641 151.048 227.079 150.936 227.453 150.712C227.835 150.488 228.111 150.161 228.279 149.732L228.545 150.656C228.367 151.095 228.055 151.445 227.607 151.706C227.159 151.958 226.594 152.084 225.913 152.084ZM232.11 152V144.58H233.398V146.596L233.272 146.092C233.477 145.579 233.823 145.187 234.308 144.916C234.793 144.645 235.391 144.51 236.1 144.51V145.812C236.044 145.803 235.988 145.798 235.932 145.798C235.885 145.798 235.839 145.798 235.792 145.798C235.073 145.798 234.504 146.013 234.084 146.442C233.664 146.871 233.454 147.492 233.454 148.304V152H232.11ZM240.992 152.084C240.199 152.084 239.499 151.921 238.892 151.594C238.295 151.267 237.828 150.819 237.492 150.25C237.165 149.681 237.002 149.027 237.002 148.29C237.002 147.553 237.161 146.899 237.478 146.33C237.805 145.761 238.248 145.317 238.808 145C239.377 144.673 240.017 144.51 240.726 144.51C241.445 144.51 242.079 144.669 242.63 144.986C243.181 145.303 243.61 145.751 243.918 146.33C244.235 146.899 244.394 147.567 244.394 148.332C244.394 148.388 244.389 148.453 244.38 148.528C244.38 148.603 244.375 148.673 244.366 148.738H238.052V147.772H243.666L243.12 148.108C243.129 147.632 243.031 147.207 242.826 146.834C242.621 146.461 242.336 146.171 241.972 145.966C241.617 145.751 241.202 145.644 240.726 145.644C240.259 145.644 239.844 145.751 239.48 145.966C239.116 146.171 238.831 146.465 238.626 146.848C238.421 147.221 238.318 147.651 238.318 148.136V148.36C238.318 148.855 238.43 149.298 238.654 149.69C238.887 150.073 239.209 150.371 239.62 150.586C240.031 150.801 240.502 150.908 241.034 150.908C241.473 150.908 241.869 150.833 242.224 150.684C242.588 150.535 242.905 150.311 243.176 150.012L243.918 150.88C243.582 151.272 243.162 151.571 242.658 151.776C242.163 151.981 241.608 152.084 240.992 152.084ZM254.626 152V150.432L254.556 150.138V147.464C254.556 146.895 254.388 146.456 254.052 146.148C253.725 145.831 253.231 145.672 252.568 145.672C252.129 145.672 251.7 145.747 251.28 145.896C250.86 146.036 250.505 146.227 250.216 146.47L249.656 145.462C250.039 145.154 250.496 144.921 251.028 144.762C251.569 144.594 252.134 144.51 252.722 144.51C253.739 144.51 254.523 144.757 255.074 145.252C255.625 145.747 255.9 146.503 255.9 147.52V152H254.626ZM252.19 152.084C251.639 152.084 251.154 151.991 250.734 151.804C250.323 151.617 250.006 151.361 249.782 151.034C249.558 150.698 249.446 150.32 249.446 149.9C249.446 149.499 249.539 149.135 249.726 148.808C249.922 148.481 250.235 148.22 250.664 148.024C251.103 147.828 251.691 147.73 252.428 147.73H254.78V148.696H252.484C251.812 148.696 251.359 148.808 251.126 149.032C250.893 149.256 250.776 149.527 250.776 149.844C250.776 150.208 250.921 150.502 251.21 150.726C251.499 150.941 251.901 151.048 252.414 151.048C252.918 151.048 253.357 150.936 253.73 150.712C254.113 150.488 254.388 150.161 254.556 149.732L254.822 150.656C254.645 151.095 254.332 151.445 253.884 151.706C253.436 151.958 252.871 152.084 252.19 152.084ZM264.695 152.084C263.948 152.084 263.37 151.883 262.959 151.482C262.548 151.081 262.343 150.507 262.343 149.76V142.956H263.687V149.704C263.687 150.105 263.785 150.413 263.981 150.628C264.186 150.843 264.476 150.95 264.849 150.95C265.269 150.95 265.619 150.833 265.899 150.6L266.319 151.566C266.114 151.743 265.866 151.874 265.577 151.958C265.297 152.042 265.003 152.084 264.695 152.084ZM261.083 145.686V144.58H265.815V145.686H261.083ZM271.002 152.084C270.208 152.084 269.508 151.921 268.902 151.594C268.304 151.267 267.838 150.819 267.502 150.25C267.175 149.681 267.012 149.027 267.012 148.29C267.012 147.553 267.17 146.899 267.488 146.33C267.814 145.761 268.258 145.317 268.818 145C269.387 144.673 270.026 144.51 270.736 144.51C271.454 144.51 272.089 144.669 272.64 144.986C273.19 145.303 273.62 145.751 273.928 146.33C274.245 146.899 274.404 147.567 274.404 148.332C274.404 148.388 274.399 148.453 274.39 148.528C274.39 148.603 274.385 148.673 274.376 148.738H268.062V147.772H273.676L273.13 148.108C273.139 147.632 273.041 147.207 272.836 146.834C272.63 146.461 272.346 146.171 271.982 145.966C271.627 145.751 271.212 145.644 270.736 145.644C270.269 145.644 269.854 145.751 269.49 145.966C269.126 146.171 268.841 146.465 268.636 146.848C268.43 147.221 268.328 147.651 268.328 148.136V148.36C268.328 148.855 268.44 149.298 268.664 149.69C268.897 150.073 269.219 150.371 269.63 150.586C270.04 150.801 270.512 150.908 271.044 150.908C271.482 150.908 271.879 150.833 272.234 150.684C272.598 150.535 272.915 150.311 273.186 150.012L273.928 150.88C273.592 151.272 273.172 151.571 272.668 151.776C272.173 151.981 271.618 152.084 271.002 152.084ZM280.671 152V150.432L280.601 150.138V147.464C280.601 146.895 280.433 146.456 280.097 146.148C279.77 145.831 279.276 145.672 278.613 145.672C278.174 145.672 277.745 145.747 277.325 145.896C276.905 146.036 276.55 146.227 276.261 146.47L275.701 145.462C276.084 145.154 276.541 144.921 277.073 144.762C277.614 144.594 278.179 144.51 278.767 144.51C279.784 144.51 280.568 144.757 281.119 145.252C281.67 145.747 281.945 146.503 281.945 147.52V152H280.671ZM278.235 152.084C277.684 152.084 277.199 151.991 276.779 151.804C276.368 151.617 276.051 151.361 275.827 151.034C275.603 150.698 275.491 150.32 275.491 149.9C275.491 149.499 275.584 149.135 275.771 148.808C275.967 148.481 276.28 148.22 276.709 148.024C277.148 147.828 277.736 147.73 278.473 147.73H280.825V148.696H278.529C277.857 148.696 277.404 148.808 277.171 149.032C276.938 149.256 276.821 149.527 276.821 149.844C276.821 150.208 276.966 150.502 277.255 150.726C277.544 150.941 277.946 151.048 278.459 151.048C278.963 151.048 279.402 150.936 279.775 150.712C280.158 150.488 280.433 150.161 280.601 149.732L280.867 150.656C280.69 151.095 280.377 151.445 279.929 151.706C279.481 151.958 278.916 152.084 278.235 152.084ZM293.714 144.51C294.312 144.51 294.839 144.627 295.296 144.86C295.754 145.093 296.108 145.448 296.36 145.924C296.622 146.4 296.752 147.002 296.752 147.73V152H295.408V147.884C295.408 147.165 295.24 146.624 294.904 146.26C294.568 145.896 294.097 145.714 293.49 145.714C293.042 145.714 292.65 145.807 292.314 145.994C291.978 146.181 291.717 146.456 291.53 146.82C291.353 147.184 291.264 147.637 291.264 148.178V152H289.92V147.884C289.92 147.165 289.752 146.624 289.416 146.26C289.09 145.896 288.618 145.714 288.002 145.714C287.564 145.714 287.176 145.807 286.84 145.994C286.504 146.181 286.243 146.456 286.056 146.82C285.87 147.184 285.776 147.637 285.776 148.178V152H284.432V144.58H285.72V146.554L285.51 146.05C285.744 145.565 286.103 145.187 286.588 144.916C287.074 144.645 287.638 144.51 288.282 144.51C288.992 144.51 289.603 144.687 290.116 145.042C290.63 145.387 290.966 145.915 291.124 146.624L290.578 146.4C290.802 145.831 291.194 145.373 291.754 145.028C292.314 144.683 292.968 144.51 293.714 144.51ZM306.163 152.084C305.416 152.084 304.754 151.921 304.175 151.594C303.596 151.267 303.139 150.819 302.803 150.25C302.467 149.671 302.299 149.018 302.299 148.29C302.299 147.553 302.467 146.899 302.803 146.33C303.139 145.761 303.596 145.317 304.175 145C304.754 144.673 305.416 144.51 306.163 144.51C306.9 144.51 307.558 144.673 308.137 145C308.725 145.317 309.182 145.761 309.509 146.33C309.845 146.89 310.013 147.543 310.013 148.29C310.013 149.027 309.845 149.681 309.509 150.25C309.182 150.819 308.725 151.267 308.137 151.594C307.558 151.921 306.9 152.084 306.163 152.084ZM306.163 150.908C306.639 150.908 307.064 150.801 307.437 150.586C307.82 150.371 308.118 150.068 308.333 149.676C308.548 149.275 308.655 148.813 308.655 148.29C308.655 147.758 308.548 147.301 308.333 146.918C308.118 146.526 307.82 146.223 307.437 146.008C307.064 145.793 306.639 145.686 306.163 145.686C305.687 145.686 305.262 145.793 304.889 146.008C304.516 146.223 304.217 146.526 303.993 146.918C303.769 147.301 303.657 147.758 303.657 148.29C303.657 148.813 303.769 149.275 303.993 149.676C304.217 150.068 304.516 150.371 304.889 150.586C305.262 150.801 305.687 150.908 306.163 150.908ZM312.068 152V143.922C312.068 143.194 312.278 142.615 312.698 142.186C313.127 141.747 313.734 141.528 314.518 141.528C314.807 141.528 315.082 141.565 315.344 141.64C315.614 141.705 315.843 141.813 316.03 141.962L315.624 142.984C315.484 142.872 315.325 142.788 315.148 142.732C314.97 142.667 314.784 142.634 314.588 142.634C314.196 142.634 313.897 142.746 313.692 142.97C313.486 143.185 313.384 143.507 313.384 143.936V144.93L313.412 145.546V152H312.068ZM310.808 145.686V144.58H315.54V145.686H310.808ZM85.47 169V160.922C85.47 160.194 85.68 159.615 86.1 159.186C86.5293 158.747 87.136 158.528 87.92 158.528C88.2093 158.528 88.4847 158.565 88.746 158.64C89.0167 158.705 89.2453 158.813 89.432 158.962L89.026 159.984C88.886 159.872 88.7273 159.788 88.55 159.732C88.3727 159.667 88.186 159.634 87.99 159.634C87.598 159.634 87.2993 159.746 87.094 159.97C86.8887 160.185 86.786 160.507 86.786 160.936V161.93L86.814 162.546V169H85.47ZM84.21 162.686V161.58H88.942V162.686H84.21ZM90.216 169V161.58H91.56V169H90.216ZM90.888 160.152C90.6267 160.152 90.4073 160.068 90.23 159.9C90.062 159.732 89.978 159.527 89.978 159.284C89.978 159.032 90.062 158.822 90.23 158.654C90.4073 158.486 90.6267 158.402 90.888 158.402C91.1493 158.402 91.364 158.486 91.532 158.654C91.7093 158.813 91.798 159.013 91.798 159.256C91.798 159.508 91.714 159.723 91.546 159.9C91.378 160.068 91.1587 160.152 90.888 160.152ZM96.0657 169L92.8177 161.58H94.2177L97.1017 168.3H96.4297L99.3697 161.58H100.686L97.4377 169H96.0657ZM105.039 169.084C104.246 169.084 103.546 168.921 102.939 168.594C102.342 168.267 101.875 167.819 101.539 167.25C101.212 166.681 101.049 166.027 101.049 165.29C101.049 164.553 101.208 163.899 101.525 163.33C101.852 162.761 102.295 162.317 102.855 162C103.424 161.673 104.064 161.51 104.773 161.51C105.492 161.51 106.126 161.669 106.677 161.986C107.228 162.303 107.657 162.751 107.965 163.33C108.282 163.899 108.441 164.567 108.441 165.332C108.441 165.388 108.436 165.453 108.427 165.528C108.427 165.603 108.422 165.673 108.413 165.738H102.099V164.772H107.713L107.167 165.108C107.176 164.632 107.078 164.207 106.873 163.834C106.668 163.461 106.383 163.171 106.019 162.966C105.664 162.751 105.249 162.644 104.773 162.644C104.306 162.644 103.891 162.751 103.527 162.966C103.163 163.171 102.878 163.465 102.673 163.848C102.468 164.221 102.365 164.651 102.365 165.136V165.36C102.365 165.855 102.477 166.298 102.701 166.69C102.934 167.073 103.256 167.371 103.667 167.586C104.078 167.801 104.549 167.908 105.081 167.908C105.52 167.908 105.916 167.833 106.271 167.684C106.635 167.535 106.952 167.311 107.223 167.012L107.965 167.88C107.629 168.272 107.209 168.571 106.705 168.776C106.21 168.981 105.655 169.084 105.039 169.084ZM117.371 169.084C116.578 169.084 115.878 168.921 115.271 168.594C114.674 168.267 114.207 167.819 113.871 167.25C113.544 166.681 113.381 166.027 113.381 165.29C113.381 164.553 113.54 163.899 113.857 163.33C114.184 162.761 114.627 162.317 115.187 162C115.756 161.673 116.396 161.51 117.105 161.51C117.824 161.51 118.458 161.669 119.009 161.986C119.56 162.303 119.989 162.751 120.297 163.33C120.614 163.899 120.773 164.567 120.773 165.332C120.773 165.388 120.768 165.453 120.759 165.528C120.759 165.603 120.754 165.673 120.745 165.738H114.431V164.772H120.045L119.499 165.108C119.508 164.632 119.41 164.207 119.205 163.834C119 163.461 118.715 163.171 118.351 162.966C117.996 162.751 117.581 162.644 117.105 162.644C116.638 162.644 116.223 162.751 115.859 162.966C115.495 163.171 115.21 163.465 115.005 163.848C114.8 164.221 114.697 164.651 114.697 165.136V165.36C114.697 165.855 114.809 166.298 115.033 166.69C115.266 167.073 115.588 167.371 115.999 167.586C116.41 167.801 116.881 167.908 117.413 167.908C117.852 167.908 118.248 167.833 118.603 167.684C118.967 167.535 119.284 167.311 119.555 167.012L120.297 167.88C119.961 168.272 119.541 168.571 119.037 168.776C118.542 168.981 117.987 169.084 117.371 169.084ZM122.639 169V158.612H123.983V169H122.639ZM126.549 169V161.58H127.893V169H126.549ZM127.221 160.152C126.96 160.152 126.741 160.068 126.563 159.9C126.395 159.732 126.311 159.527 126.311 159.284C126.311 159.032 126.395 158.822 126.563 158.654C126.741 158.486 126.96 158.402 127.221 158.402C127.483 158.402 127.697 158.486 127.865 158.654C128.043 158.813 128.131 159.013 128.131 159.256C128.131 159.508 128.047 159.723 127.879 159.9C127.711 160.068 127.492 160.152 127.221 160.152ZM133.008 169.084C132.261 169.084 131.682 168.883 131.272 168.482C130.861 168.081 130.656 167.507 130.656 166.76V159.956H132V166.704C132 167.105 132.098 167.413 132.294 167.628C132.499 167.843 132.788 167.95 133.162 167.95C133.582 167.95 133.932 167.833 134.212 167.6L134.632 168.566C134.426 168.743 134.179 168.874 133.89 168.958C133.61 169.042 133.316 169.084 133.008 169.084ZM129.396 162.686V161.58H134.128V162.686H129.396ZM139.314 169.084C138.521 169.084 137.821 168.921 137.214 168.594C136.617 168.267 136.15 167.819 135.814 167.25C135.488 166.681 135.324 166.027 135.324 165.29C135.324 164.553 135.483 163.899 135.8 163.33C136.127 162.761 136.57 162.317 137.13 162C137.7 161.673 138.339 161.51 139.048 161.51C139.767 161.51 140.402 161.669 140.952 161.986C141.503 162.303 141.932 162.751 142.24 163.33C142.558 163.899 142.716 164.567 142.716 165.332C142.716 165.388 142.712 165.453 142.702 165.528C142.702 165.603 142.698 165.673 142.688 165.738H136.374V164.772H141.988L141.442 165.108C141.452 164.632 141.354 164.207 141.148 163.834C140.943 163.461 140.658 163.171 140.294 162.966C139.94 162.751 139.524 162.644 139.048 162.644C138.582 162.644 138.166 162.751 137.802 162.966C137.438 163.171 137.154 163.465 136.948 163.848C136.743 164.221 136.64 164.651 136.64 165.136V165.36C136.64 165.855 136.752 166.298 136.976 166.69C137.21 167.073 137.532 167.371 137.942 167.586C138.353 167.801 138.824 167.908 139.356 167.908C139.795 167.908 140.192 167.833 140.546 167.684C140.91 167.535 141.228 167.311 141.498 167.012L142.24 167.88C141.904 168.272 141.484 168.571 140.98 168.776C140.486 168.981 139.93 169.084 139.314 169.084ZM150.47 169.084C149.854 169.084 149.266 169 148.706 168.832C148.156 168.664 147.722 168.459 147.404 168.216L147.964 167.152C148.282 167.367 148.674 167.549 149.14 167.698C149.607 167.847 150.083 167.922 150.568 167.922C151.194 167.922 151.642 167.833 151.912 167.656C152.192 167.479 152.332 167.231 152.332 166.914C152.332 166.681 152.248 166.499 152.08 166.368C151.912 166.237 151.688 166.139 151.408 166.074C151.138 166.009 150.834 165.953 150.498 165.906C150.162 165.85 149.826 165.785 149.49 165.71C149.154 165.626 148.846 165.514 148.566 165.374C148.286 165.225 148.062 165.024 147.894 164.772C147.726 164.511 147.642 164.165 147.642 163.736C147.642 163.288 147.768 162.896 148.02 162.56C148.272 162.224 148.627 161.967 149.084 161.79C149.551 161.603 150.102 161.51 150.736 161.51C151.222 161.51 151.712 161.571 152.206 161.692C152.71 161.804 153.121 161.967 153.438 162.182L152.864 163.246C152.528 163.022 152.178 162.868 151.814 162.784C151.45 162.7 151.086 162.658 150.722 162.658C150.134 162.658 149.696 162.756 149.406 162.952C149.117 163.139 148.972 163.381 148.972 163.68C148.972 163.932 149.056 164.128 149.224 164.268C149.402 164.399 149.626 164.501 149.896 164.576C150.176 164.651 150.484 164.716 150.82 164.772C151.156 164.819 151.492 164.884 151.828 164.968C152.164 165.043 152.468 165.15 152.738 165.29C153.018 165.43 153.242 165.626 153.41 165.878C153.588 166.13 153.676 166.466 153.676 166.886C153.676 167.334 153.546 167.721 153.284 168.048C153.023 168.375 152.654 168.631 152.178 168.818C151.702 168.995 151.133 169.084 150.47 169.084ZM158.478 169.084C157.843 169.084 157.283 168.967 156.798 168.734C156.322 168.501 155.949 168.146 155.678 167.67C155.417 167.185 155.286 166.578 155.286 165.85V161.58H156.63V165.696C156.63 166.424 156.803 166.97 157.148 167.334C157.503 167.698 157.997 167.88 158.632 167.88C159.099 167.88 159.505 167.787 159.85 167.6C160.195 167.404 160.461 167.124 160.648 166.76C160.835 166.387 160.928 165.939 160.928 165.416V161.58H162.272V169H160.998V166.998L161.208 167.53C160.965 168.025 160.601 168.407 160.116 168.678C159.631 168.949 159.085 169.084 158.478 169.084ZM164.831 169V161.58H166.119V163.596L165.993 163.092C166.198 162.579 166.543 162.187 167.029 161.916C167.514 161.645 168.111 161.51 168.821 161.51V162.812C168.765 162.803 168.709 162.798 168.653 162.798C168.606 162.798 168.559 162.798 168.513 162.798C167.794 162.798 167.225 163.013 166.805 163.442C166.385 163.871 166.175 164.492 166.175 165.304V169H164.831ZM172.724 169L169.476 161.58H170.876L173.76 168.3H173.088L176.028 161.58H177.344L174.096 169H172.724ZM178.598 169V161.58H179.942V169H178.598ZM179.27 160.152C179.009 160.152 178.79 160.068 178.612 159.9C178.444 159.732 178.36 159.527 178.36 159.284C178.36 159.032 178.444 158.822 178.612 158.654C178.79 158.486 179.009 158.402 179.27 158.402C179.532 158.402 179.746 158.486 179.914 158.654C180.092 158.813 180.18 159.013 180.18 159.256C180.18 159.508 180.096 159.723 179.928 159.9C179.76 160.068 179.541 160.152 179.27 160.152ZM184.454 169L181.206 161.58H182.606L185.49 168.3H184.818L187.758 161.58H189.074L185.826 169H184.454ZM193.302 169.084C192.555 169.084 191.892 168.921 191.314 168.594C190.735 168.267 190.278 167.819 189.942 167.25C189.606 166.671 189.438 166.018 189.438 165.29C189.438 164.553 189.606 163.899 189.942 163.33C190.278 162.761 190.735 162.317 191.314 162C191.892 161.673 192.555 161.51 193.302 161.51C194.039 161.51 194.697 161.673 195.276 162C195.864 162.317 196.321 162.761 196.648 163.33C196.984 163.89 197.152 164.543 197.152 165.29C197.152 166.027 196.984 166.681 196.648 167.25C196.321 167.819 195.864 168.267 195.276 168.594C194.697 168.921 194.039 169.084 193.302 169.084ZM193.302 167.908C193.778 167.908 194.202 167.801 194.576 167.586C194.958 167.371 195.257 167.068 195.472 166.676C195.686 166.275 195.794 165.813 195.794 165.29C195.794 164.758 195.686 164.301 195.472 163.918C195.257 163.526 194.958 163.223 194.576 163.008C194.202 162.793 193.778 162.686 193.302 162.686C192.826 162.686 192.401 162.793 192.028 163.008C191.654 163.223 191.356 163.526 191.132 163.918C190.908 164.301 190.796 164.758 190.796 165.29C190.796 165.813 190.908 166.275 191.132 166.676C191.356 167.068 191.654 167.371 192.028 167.586C192.401 167.801 192.826 167.908 193.302 167.908ZM199.01 169V161.58H200.298V163.596L200.172 163.092C200.378 162.579 200.723 162.187 201.208 161.916C201.694 161.645 202.291 161.51 203 161.51V162.812C202.944 162.803 202.888 162.798 202.832 162.798C202.786 162.798 202.739 162.798 202.692 162.798C201.974 162.798 201.404 163.013 200.984 163.442C200.564 163.871 200.354 164.492 200.354 165.304V169H199.01ZM206.867 169.084C206.251 169.084 205.663 169 205.103 168.832C204.552 168.664 204.118 168.459 203.801 168.216L204.361 167.152C204.678 167.367 205.07 167.549 205.537 167.698C206.004 167.847 206.48 167.922 206.965 167.922C207.59 167.922 208.038 167.833 208.309 167.656C208.589 167.479 208.729 167.231 208.729 166.914C208.729 166.681 208.645 166.499 208.477 166.368C208.309 166.237 208.085 166.139 207.805 166.074C207.534 166.009 207.231 165.953 206.895 165.906C206.559 165.85 206.223 165.785 205.887 165.71C205.551 165.626 205.243 165.514 204.963 165.374C204.683 165.225 204.459 165.024 204.291 164.772C204.123 164.511 204.039 164.165 204.039 163.736C204.039 163.288 204.165 162.896 204.417 162.56C204.669 162.224 205.024 161.967 205.481 161.79C205.948 161.603 206.498 161.51 207.133 161.51C207.618 161.51 208.108 161.571 208.603 161.692C209.107 161.804 209.518 161.967 209.835 162.182L209.261 163.246C208.925 163.022 208.575 162.868 208.211 162.784C207.847 162.7 207.483 162.658 207.119 162.658C206.531 162.658 206.092 162.756 205.803 162.952C205.514 163.139 205.369 163.381 205.369 163.68C205.369 163.932 205.453 164.128 205.621 164.268C205.798 164.399 206.022 164.501 206.293 164.576C206.573 164.651 206.881 164.716 207.217 164.772C207.553 164.819 207.889 164.884 208.225 164.968C208.561 165.043 208.864 165.15 209.135 165.29C209.415 165.43 209.639 165.626 209.807 165.878C209.984 166.13 210.073 166.466 210.073 166.886C210.073 167.334 209.942 167.721 209.681 168.048C209.42 168.375 209.051 168.631 208.575 168.818C208.099 168.995 207.53 169.084 206.867 169.084ZM217.08 169L214.322 161.58H215.596L218.046 168.3H217.444L219.992 161.58H221.126L223.618 168.3H223.03L225.536 161.58H226.74L223.968 169H222.68L220.342 162.868H220.734L218.368 169H217.08ZM232.066 161.51C232.673 161.51 233.205 161.627 233.662 161.86C234.129 162.093 234.493 162.448 234.754 162.924C235.015 163.4 235.146 164.002 235.146 164.73V169H233.802V164.884C233.802 164.165 233.625 163.624 233.27 163.26C232.925 162.896 232.435 162.714 231.8 162.714C231.324 162.714 230.909 162.807 230.554 162.994C230.199 163.181 229.924 163.456 229.728 163.82C229.541 164.184 229.448 164.637 229.448 165.178V169H228.104V158.612H229.448V163.582L229.182 163.05C229.425 162.565 229.798 162.187 230.302 161.916C230.806 161.645 231.394 161.51 232.066 161.51ZM240.811 169.084C240.065 169.084 239.402 168.921 238.823 168.594C238.245 168.267 237.787 167.819 237.451 167.25C237.115 166.671 236.947 166.018 236.947 165.29C236.947 164.553 237.115 163.899 237.451 163.33C237.787 162.761 238.245 162.317 238.823 162C239.402 161.673 240.065 161.51 240.811 161.51C241.549 161.51 242.207 161.673 242.785 162C243.373 162.317 243.831 162.761 244.157 163.33C244.493 163.89 244.661 164.543 244.661 165.29C244.661 166.027 244.493 166.681 244.157 167.25C243.831 167.819 243.373 168.267 242.785 168.594C242.207 168.921 241.549 169.084 240.811 169.084ZM240.811 167.908C241.287 167.908 241.712 167.801 242.085 167.586C242.468 167.371 242.767 167.068 242.981 166.676C243.196 166.275 243.303 165.813 243.303 165.29C243.303 164.758 243.196 164.301 242.981 163.918C242.767 163.526 242.468 163.223 242.085 163.008C241.712 162.793 241.287 162.686 240.811 162.686C240.335 162.686 239.911 162.793 239.537 163.008C239.164 163.223 238.865 163.526 238.641 163.918C238.417 164.301 238.305 164.758 238.305 165.29C238.305 165.813 238.417 166.275 238.641 166.676C238.865 167.068 239.164 167.371 239.537 167.586C239.911 167.801 240.335 167.908 240.811 167.908ZM254.242 161.51C254.849 161.51 255.381 161.627 255.838 161.86C256.305 162.093 256.669 162.448 256.93 162.924C257.191 163.4 257.322 164.002 257.322 164.73V169H255.978V164.884C255.978 164.165 255.801 163.624 255.446 163.26C255.101 162.896 254.611 162.714 253.976 162.714C253.5 162.714 253.085 162.807 252.73 162.994C252.375 163.181 252.1 163.456 251.904 163.82C251.717 164.184 251.624 164.637 251.624 165.178V169H250.28V158.612H251.624V163.582L251.358 163.05C251.601 162.565 251.974 162.187 252.478 161.916C252.982 161.645 253.57 161.51 254.242 161.51ZM264.415 169V167.432L264.345 167.138V164.464C264.345 163.895 264.177 163.456 263.841 163.148C263.514 162.831 263.02 162.672 262.357 162.672C261.918 162.672 261.489 162.747 261.069 162.896C260.649 163.036 260.294 163.227 260.005 163.47L259.445 162.462C259.828 162.154 260.285 161.921 260.817 161.762C261.358 161.594 261.923 161.51 262.511 161.51C263.528 161.51 264.312 161.757 264.863 162.252C265.414 162.747 265.689 163.503 265.689 164.52V169H264.415ZM261.979 169.084C261.428 169.084 260.943 168.991 260.523 168.804C260.112 168.617 259.795 168.361 259.571 168.034C259.347 167.698 259.235 167.32 259.235 166.9C259.235 166.499 259.328 166.135 259.515 165.808C259.711 165.481 260.024 165.22 260.453 165.024C260.892 164.828 261.48 164.73 262.217 164.73H264.569V165.696H262.273C261.601 165.696 261.148 165.808 260.915 166.032C260.682 166.256 260.565 166.527 260.565 166.844C260.565 167.208 260.71 167.502 260.999 167.726C261.288 167.941 261.69 168.048 262.203 168.048C262.707 168.048 263.146 167.936 263.519 167.712C263.902 167.488 264.177 167.161 264.345 166.732L264.611 167.656C264.434 168.095 264.121 168.445 263.673 168.706C263.225 168.958 262.66 169.084 261.979 169.084ZM269.986 169L266.738 161.58H268.138L271.022 168.3H270.35L273.29 161.58H274.606L271.358 169H269.986ZM278.959 169.084C278.166 169.084 277.466 168.921 276.859 168.594C276.262 168.267 275.795 167.819 275.459 167.25C275.132 166.681 274.969 166.027 274.969 165.29C274.969 164.553 275.128 163.899 275.445 163.33C275.772 162.761 276.215 162.317 276.775 162C277.344 161.673 277.984 161.51 278.693 161.51C279.412 161.51 280.046 161.669 280.597 161.986C281.148 162.303 281.577 162.751 281.885 163.33C282.202 163.899 282.361 164.567 282.361 165.332C282.361 165.388 282.356 165.453 282.347 165.528C282.347 165.603 282.342 165.673 282.333 165.738H276.019V164.772H281.633L281.087 165.108C281.096 164.632 280.998 164.207 280.793 163.834C280.588 163.461 280.303 163.171 279.939 162.966C279.584 162.751 279.169 162.644 278.693 162.644C278.226 162.644 277.811 162.751 277.447 162.966C277.083 163.171 276.798 163.465 276.593 163.848C276.388 164.221 276.285 164.651 276.285 165.136V165.36C276.285 165.855 276.397 166.298 276.621 166.69C276.854 167.073 277.176 167.371 277.587 167.586C277.998 167.801 278.469 167.908 279.001 167.908C279.44 167.908 279.836 167.833 280.191 167.684C280.555 167.535 280.872 167.311 281.143 167.012L281.885 167.88C281.549 168.272 281.129 168.571 280.625 168.776C280.13 168.981 279.575 169.084 278.959 169.084ZM287.987 169V161.58H289.275V163.596L289.149 163.092C289.354 162.579 289.7 162.187 290.185 161.916C290.67 161.645 291.268 161.51 291.977 161.51V162.812C291.921 162.803 291.865 162.798 291.809 162.798C291.762 162.798 291.716 162.798 291.669 162.798C290.95 162.798 290.381 163.013 289.961 163.442C289.541 163.871 289.331 164.492 289.331 165.304V169H287.987ZM293.633 169V161.58H294.977V169H293.633ZM294.305 160.152C294.044 160.152 293.825 160.068 293.647 159.9C293.479 159.732 293.395 159.527 293.395 159.284C293.395 159.032 293.479 158.822 293.647 158.654C293.825 158.486 294.044 158.402 294.305 158.402C294.567 158.402 294.781 158.486 294.949 158.654C295.127 158.813 295.215 159.013 295.215 159.256C295.215 159.508 295.131 159.723 294.963 159.9C294.795 160.068 294.576 160.152 294.305 160.152ZM299.672 169.084C299.056 169.084 298.468 169 297.908 168.832C297.357 168.664 296.923 168.459 296.606 168.216L297.166 167.152C297.483 167.367 297.875 167.549 298.342 167.698C298.808 167.847 299.284 167.922 299.77 167.922C300.395 167.922 300.843 167.833 301.114 167.656C301.394 167.479 301.534 167.231 301.534 166.914C301.534 166.681 301.45 166.499 301.282 166.368C301.114 166.237 300.89 166.139 300.61 166.074C300.339 166.009 300.036 165.953 299.7 165.906C299.364 165.85 299.028 165.785 298.692 165.71C298.356 165.626 298.048 165.514 297.768 165.374C297.488 165.225 297.264 165.024 297.096 164.772C296.928 164.511 296.844 164.165 296.844 163.736C296.844 163.288 296.97 162.896 297.222 162.56C297.474 162.224 297.828 161.967 298.286 161.79C298.752 161.603 299.303 161.51 299.938 161.51C300.423 161.51 300.913 161.571 301.408 161.692C301.912 161.804 302.322 161.967 302.64 162.182L302.066 163.246C301.73 163.022 301.38 162.868 301.016 162.784C300.652 162.7 300.288 162.658 299.924 162.658C299.336 162.658 298.897 162.756 298.608 162.952C298.318 163.139 298.174 163.381 298.174 163.68C298.174 163.932 298.258 164.128 298.426 164.268C298.603 164.399 298.827 164.501 299.098 164.576C299.378 164.651 299.686 164.716 300.022 164.772C300.358 164.819 300.694 164.884 301.03 164.968C301.366 165.043 301.669 165.15 301.94 165.29C302.22 165.43 302.444 165.626 302.612 165.878C302.789 166.13 302.878 166.466 302.878 166.886C302.878 167.334 302.747 167.721 302.486 168.048C302.224 168.375 301.856 168.631 301.38 168.818C300.904 168.995 300.334 169.084 299.672 169.084ZM307.861 169.084C307.068 169.084 306.368 168.921 305.761 168.594C305.164 168.267 304.697 167.819 304.361 167.25C304.035 166.681 303.871 166.027 303.871 165.29C303.871 164.553 304.03 163.899 304.347 163.33C304.674 162.761 305.117 162.317 305.677 162C306.247 161.673 306.886 161.51 307.595 161.51C308.314 161.51 308.949 161.669 309.499 161.986C310.05 162.303 310.479 162.751 310.787 163.33C311.105 163.899 311.263 164.567 311.263 165.332C311.263 165.388 311.259 165.453 311.249 165.528C311.249 165.603 311.245 165.673 311.235 165.738H304.921V164.772H310.535L309.989 165.108C309.999 164.632 309.901 164.207 309.695 163.834C309.49 163.461 309.205 163.171 308.841 162.966C308.487 162.751 308.071 162.644 307.595 162.644C307.129 162.644 306.713 162.751 306.349 162.966C305.985 163.171 305.701 163.465 305.495 163.848C305.29 164.221 305.187 164.651 305.187 165.136V165.36C305.187 165.855 305.299 166.298 305.523 166.69C305.757 167.073 306.079 167.371 306.489 167.586C306.9 167.801 307.371 167.908 307.903 167.908C308.342 167.908 308.739 167.833 309.093 167.684C309.457 167.535 309.775 167.311 310.045 167.012L310.787 167.88C310.451 168.272 310.031 168.571 309.527 168.776C309.033 168.981 308.477 169.084 307.861 169.084ZM317.091 161.51C317.698 161.51 318.23 161.627 318.687 161.86C319.154 162.093 319.518 162.448 319.779 162.924C320.041 163.4 320.171 164.002 320.171 164.73V169H318.827V164.884C318.827 164.165 318.65 163.624 318.295 163.26C317.95 162.896 317.46 162.714 316.825 162.714C316.349 162.714 315.934 162.807 315.579 162.994C315.225 163.181 314.949 163.456 314.753 163.82C314.567 164.184 314.473 164.637 314.473 165.178V169H313.129V161.58H314.417V163.582L314.207 163.05C314.45 162.565 314.823 162.187 315.327 161.916C315.831 161.645 316.419 161.51 317.091 161.51ZM85.47 186V177.922C85.47 177.194 85.68 176.615 86.1 176.186C86.5293 175.747 87.136 175.528 87.92 175.528C88.2093 175.528 88.4847 175.565 88.746 175.64C89.0167 175.705 89.2453 175.813 89.432 175.962L89.026 176.984C88.886 176.872 88.7273 176.788 88.55 176.732C88.3727 176.667 88.186 176.634 87.99 176.634C87.598 176.634 87.2993 176.746 87.094 176.97C86.8887 177.185 86.786 177.507 86.786 177.936V178.93L86.814 179.546V186H85.47ZM84.21 179.686V178.58H88.942V179.686H84.21ZM90.2095 186V178.58H91.4975V180.596L91.3715 180.092C91.5769 179.579 91.9222 179.187 92.4075 178.916C92.8929 178.645 93.4902 178.51 94.1995 178.51V179.812C94.1435 179.803 94.0875 179.798 94.0315 179.798C93.9849 179.798 93.9382 179.798 93.8915 179.798C93.1729 179.798 92.6035 180.013 92.1835 180.442C91.7635 180.871 91.5535 181.492 91.5535 182.304V186H90.2095ZM98.9657 186.084C98.219 186.084 97.5563 185.921 96.9777 185.594C96.399 185.267 95.9417 184.819 95.6057 184.25C95.2697 183.671 95.1017 183.018 95.1017 182.29C95.1017 181.553 95.2697 180.899 95.6057 180.33C95.9417 179.761 96.399 179.317 96.9777 179C97.5563 178.673 98.219 178.51 98.9657 178.51C99.703 178.51 100.361 178.673 100.94 179C101.528 179.317 101.985 179.761 102.312 180.33C102.648 180.89 102.816 181.543 102.816 182.29C102.816 183.027 102.648 183.681 102.312 184.25C101.985 184.819 101.528 185.267 100.94 185.594C100.361 185.921 99.703 186.084 98.9657 186.084ZM98.9657 184.908C99.4417 184.908 99.8663 184.801 100.24 184.586C100.622 184.371 100.921 184.068 101.136 183.676C101.35 183.275 101.458 182.813 101.458 182.29C101.458 181.758 101.35 181.301 101.136 180.918C100.921 180.526 100.622 180.223 100.24 180.008C99.8663 179.793 99.4417 179.686 98.9657 179.686C98.4897 179.686 98.065 179.793 97.6917 180.008C97.3183 180.223 97.0197 180.526 96.7957 180.918C96.5717 181.301 96.4597 181.758 96.4597 182.29C96.4597 182.813 96.5717 183.275 96.7957 183.676C97.0197 184.068 97.3183 184.371 97.6917 184.586C98.065 184.801 98.4897 184.908 98.9657 184.908ZM113.956 178.51C114.554 178.51 115.081 178.627 115.538 178.86C115.996 179.093 116.35 179.448 116.602 179.924C116.864 180.4 116.994 181.002 116.994 181.73V186H115.65V181.884C115.65 181.165 115.482 180.624 115.146 180.26C114.81 179.896 114.339 179.714 113.732 179.714C113.284 179.714 112.892 179.807 112.556 179.994C112.22 180.181 111.959 180.456 111.772 180.82C111.595 181.184 111.506 181.637 111.506 182.178V186H110.162V181.884C110.162 181.165 109.994 180.624 109.658 180.26C109.332 179.896 108.86 179.714 108.244 179.714C107.806 179.714 107.418 179.807 107.082 179.994C106.746 180.181 106.485 180.456 106.298 180.82C106.112 181.184 106.018 181.637 106.018 182.178V186H104.674V178.58H105.962V180.554L105.752 180.05C105.986 179.565 106.345 179.187 106.83 178.916C107.316 178.645 107.88 178.51 108.524 178.51C109.234 178.51 109.845 178.687 110.358 179.042C110.872 179.387 111.208 179.915 111.366 180.624L110.82 180.4C111.044 179.831 111.436 179.373 111.996 179.028C112.556 178.683 113.21 178.51 113.956 178.51ZM125.775 186.084C125.028 186.084 124.45 185.883 124.039 185.482C123.628 185.081 123.423 184.507 123.423 183.76V176.956H124.767V183.704C124.767 184.105 124.865 184.413 125.061 184.628C125.266 184.843 125.556 184.95 125.929 184.95C126.349 184.95 126.699 184.833 126.979 184.6L127.399 185.566C127.194 185.743 126.946 185.874 126.657 185.958C126.377 186.042 126.083 186.084 125.775 186.084ZM122.163 179.686V178.58H126.895V179.686H122.163ZM132.986 178.51C133.593 178.51 134.125 178.627 134.582 178.86C135.049 179.093 135.413 179.448 135.674 179.924C135.935 180.4 136.066 181.002 136.066 181.73V186H134.722V181.884C134.722 181.165 134.545 180.624 134.19 180.26C133.845 179.896 133.355 179.714 132.72 179.714C132.244 179.714 131.829 179.807 131.474 179.994C131.119 180.181 130.844 180.456 130.648 180.82C130.461 181.184 130.368 181.637 130.368 182.178V186H129.024V175.612H130.368V180.582L130.102 180.05C130.345 179.565 130.718 179.187 131.222 178.916C131.726 178.645 132.314 178.51 132.986 178.51ZM141.857 186.084C141.064 186.084 140.364 185.921 139.757 185.594C139.16 185.267 138.693 184.819 138.357 184.25C138.031 183.681 137.867 183.027 137.867 182.29C137.867 181.553 138.026 180.899 138.343 180.33C138.67 179.761 139.113 179.317 139.673 179C140.243 178.673 140.882 178.51 141.591 178.51C142.31 178.51 142.945 178.669 143.495 178.986C144.046 179.303 144.475 179.751 144.783 180.33C145.101 180.899 145.259 181.567 145.259 182.332C145.259 182.388 145.255 182.453 145.245 182.528C145.245 182.603 145.241 182.673 145.231 182.738H138.917V181.772H144.531L143.985 182.108C143.995 181.632 143.897 181.207 143.691 180.834C143.486 180.461 143.201 180.171 142.837 179.966C142.483 179.751 142.067 179.644 141.591 179.644C141.125 179.644 140.709 179.751 140.345 179.966C139.981 180.171 139.697 180.465 139.491 180.848C139.286 181.221 139.183 181.651 139.183 182.136V182.36C139.183 182.855 139.295 183.298 139.519 183.69C139.753 184.073 140.075 184.371 140.485 184.586C140.896 184.801 141.367 184.908 141.899 184.908C142.338 184.908 142.735 184.833 143.089 184.684C143.453 184.535 143.771 184.311 144.041 184.012L144.783 184.88C144.447 185.272 144.027 185.571 143.523 185.776C143.029 185.981 142.473 186.084 141.857 186.084ZM155.491 186V184.432L155.421 184.138V181.464C155.421 180.895 155.253 180.456 154.917 180.148C154.591 179.831 154.096 179.672 153.433 179.672C152.995 179.672 152.565 179.747 152.145 179.896C151.725 180.036 151.371 180.227 151.081 180.47L150.521 179.462C150.904 179.154 151.361 178.921 151.893 178.762C152.435 178.594 152.999 178.51 153.587 178.51C154.605 178.51 155.389 178.757 155.939 179.252C156.49 179.747 156.765 180.503 156.765 181.52V186H155.491ZM153.055 186.084C152.505 186.084 152.019 185.991 151.599 185.804C151.189 185.617 150.871 185.361 150.647 185.034C150.423 184.698 150.311 184.32 150.311 183.9C150.311 183.499 150.405 183.135 150.591 182.808C150.787 182.481 151.1 182.22 151.529 182.024C151.968 181.828 152.556 181.73 153.293 181.73H155.645V182.696H153.349C152.677 182.696 152.225 182.808 151.991 183.032C151.758 183.256 151.641 183.527 151.641 183.844C151.641 184.208 151.786 184.502 152.075 184.726C152.365 184.941 152.766 185.048 153.279 185.048C153.783 185.048 154.222 184.936 154.595 184.712C154.978 184.488 155.253 184.161 155.421 183.732L155.687 184.656C155.51 185.095 155.197 185.445 154.749 185.706C154.301 185.958 153.737 186.084 153.055 186.084ZM161.381 186.084C160.765 186.084 160.177 186 159.617 185.832C159.066 185.664 158.632 185.459 158.315 185.216L158.875 184.152C159.192 184.367 159.584 184.549 160.051 184.698C160.517 184.847 160.993 184.922 161.479 184.922C162.104 184.922 162.552 184.833 162.823 184.656C163.103 184.479 163.243 184.231 163.243 183.914C163.243 183.681 163.159 183.499 162.991 183.368C162.823 183.237 162.599 183.139 162.319 183.074C162.048 183.009 161.745 182.953 161.409 182.906C161.073 182.85 160.737 182.785 160.401 182.71C160.065 182.626 159.757 182.514 159.477 182.374C159.197 182.225 158.973 182.024 158.805 181.772C158.637 181.511 158.553 181.165 158.553 180.736C158.553 180.288 158.679 179.896 158.931 179.56C159.183 179.224 159.537 178.967 159.995 178.79C160.461 178.603 161.012 178.51 161.647 178.51C162.132 178.51 162.622 178.571 163.117 178.692C163.621 178.804 164.031 178.967 164.349 179.182L163.775 180.246C163.439 180.022 163.089 179.868 162.725 179.784C162.361 179.7 161.997 179.658 161.633 179.658C161.045 179.658 160.606 179.756 160.317 179.952C160.027 180.139 159.883 180.381 159.883 180.68C159.883 180.932 159.967 181.128 160.135 181.268C160.312 181.399 160.536 181.501 160.807 181.576C161.087 181.651 161.395 181.716 161.731 181.772C162.067 181.819 162.403 181.884 162.739 181.968C163.075 182.043 163.378 182.15 163.649 182.29C163.929 182.43 164.153 182.626 164.321 182.878C164.498 183.13 164.587 183.466 164.587 183.886C164.587 184.334 164.456 184.721 164.195 185.048C163.933 185.375 163.565 185.631 163.089 185.818C162.613 185.995 162.043 186.084 161.381 186.084ZM170.228 178.51C170.835 178.51 171.367 178.627 171.824 178.86C172.291 179.093 172.655 179.448 172.916 179.924C173.178 180.4 173.308 181.002 173.308 181.73V186H171.964V181.884C171.964 181.165 171.787 180.624 171.432 180.26C171.087 179.896 170.597 179.714 169.962 179.714C169.486 179.714 169.071 179.807 168.716 179.994C168.362 180.181 168.086 180.456 167.89 180.82C167.704 181.184 167.61 181.637 167.61 182.178V186H166.266V175.612H167.61V180.582L167.344 180.05C167.587 179.565 167.96 179.187 168.464 178.916C168.968 178.645 169.556 178.51 170.228 178.51ZM179.099 186.084C178.306 186.084 177.606 185.921 176.999 185.594C176.402 185.267 175.935 184.819 175.599 184.25C175.273 183.681 175.109 183.027 175.109 182.29C175.109 181.553 175.268 180.899 175.585 180.33C175.912 179.761 176.355 179.317 176.915 179C177.485 178.673 178.124 178.51 178.833 178.51C179.552 178.51 180.187 178.669 180.737 178.986C181.288 179.303 181.717 179.751 182.025 180.33C182.343 180.899 182.501 181.567 182.501 182.332C182.501 182.388 182.497 182.453 182.487 182.528C182.487 182.603 182.483 182.673 182.473 182.738H176.159V181.772H181.773L181.227 182.108C181.237 181.632 181.139 181.207 180.933 180.834C180.728 180.461 180.443 180.171 180.079 179.966C179.725 179.751 179.309 179.644 178.833 179.644C178.367 179.644 177.951 179.751 177.587 179.966C177.223 180.171 176.939 180.465 176.733 180.848C176.528 181.221 176.425 181.651 176.425 182.136V182.36C176.425 182.855 176.537 183.298 176.761 183.69C176.995 184.073 177.317 184.371 177.727 184.586C178.138 184.801 178.609 184.908 179.141 184.908C179.58 184.908 179.977 184.833 180.331 184.684C180.695 184.535 181.013 184.311 181.283 184.012L182.025 184.88C181.689 185.272 181.269 185.571 180.765 185.776C180.271 185.981 179.715 186.084 179.099 186.084ZM186.496 186.084C185.88 186.084 185.292 186 184.732 185.832C184.181 185.664 183.747 185.459 183.43 185.216L183.99 184.152C184.307 184.367 184.699 184.549 185.166 184.698C185.632 184.847 186.108 184.922 186.594 184.922C187.219 184.922 187.667 184.833 187.938 184.656C188.218 184.479 188.358 184.231 188.358 183.914C188.358 183.681 188.274 183.499 188.106 183.368C187.938 183.237 187.714 183.139 187.434 183.074C187.163 183.009 186.86 182.953 186.524 182.906C186.188 182.85 185.852 182.785 185.516 182.71C185.18 182.626 184.872 182.514 184.592 182.374C184.312 182.225 184.088 182.024 183.92 181.772C183.752 181.511 183.668 181.165 183.668 180.736C183.668 180.288 183.794 179.896 184.046 179.56C184.298 179.224 184.652 178.967 185.11 178.79C185.576 178.603 186.127 178.51 186.762 178.51C187.247 178.51 187.737 178.571 188.232 178.692C188.736 178.804 189.146 178.967 189.464 179.182L188.89 180.246C188.554 180.022 188.204 179.868 187.84 179.784C187.476 179.7 187.112 179.658 186.748 179.658C186.16 179.658 185.721 179.756 185.432 179.952C185.142 180.139 184.998 180.381 184.998 180.68C184.998 180.932 185.082 181.128 185.25 181.268C185.427 181.399 185.651 181.501 185.922 181.576C186.202 181.651 186.51 181.716 186.846 181.772C187.182 181.819 187.518 181.884 187.854 181.968C188.19 182.043 188.493 182.15 188.764 182.29C189.044 182.43 189.268 182.626 189.436 182.878C189.613 183.13 189.702 183.466 189.702 183.886C189.702 184.334 189.571 184.721 189.31 185.048C189.048 185.375 188.68 185.631 188.204 185.818C187.728 185.995 187.158 186.084 186.496 186.084ZM198.319 186.084C197.573 186.084 196.91 185.921 196.331 185.594C195.753 185.267 195.295 184.819 194.959 184.25C194.623 183.671 194.455 183.018 194.455 182.29C194.455 181.553 194.623 180.899 194.959 180.33C195.295 179.761 195.753 179.317 196.331 179C196.91 178.673 197.573 178.51 198.319 178.51C199.057 178.51 199.715 178.673 200.293 179C200.881 179.317 201.339 179.761 201.665 180.33C202.001 180.89 202.169 181.543 202.169 182.29C202.169 183.027 202.001 183.681 201.665 184.25C201.339 184.819 200.881 185.267 200.293 185.594C199.715 185.921 199.057 186.084 198.319 186.084ZM198.319 184.908C198.795 184.908 199.22 184.801 199.593 184.586C199.976 184.371 200.275 184.068 200.489 183.676C200.704 183.275 200.811 182.813 200.811 182.29C200.811 181.758 200.704 181.301 200.489 180.918C200.275 180.526 199.976 180.223 199.593 180.008C199.22 179.793 198.795 179.686 198.319 179.686C197.843 179.686 197.419 179.793 197.045 180.008C196.672 180.223 196.373 180.526 196.149 180.918C195.925 181.301 195.813 181.758 195.813 182.29C195.813 182.813 195.925 183.275 196.149 183.676C196.373 184.068 196.672 184.371 197.045 184.586C197.419 184.801 197.843 184.908 198.319 184.908ZM204.224 186V177.922C204.224 177.194 204.434 176.615 204.854 176.186C205.283 175.747 205.89 175.528 206.674 175.528C206.963 175.528 207.239 175.565 207.5 175.64C207.771 175.705 207.999 175.813 208.186 175.962L207.78 176.984C207.64 176.872 207.481 176.788 207.304 176.732C207.127 176.667 206.94 176.634 206.744 176.634C206.352 176.634 206.053 176.746 205.848 176.97C205.643 177.185 205.54 177.507 205.54 177.936V178.93L205.568 179.546V186H204.224ZM202.964 179.686V178.58H207.696V179.686H202.964ZM215.271 186.084C214.525 186.084 213.946 185.883 213.535 185.482C213.125 185.081 212.919 184.507 212.919 183.76V176.956H214.263V183.704C214.263 184.105 214.361 184.413 214.557 184.628C214.763 184.843 215.052 184.95 215.425 184.95C215.845 184.95 216.195 184.833 216.475 184.6L216.895 185.566C216.69 185.743 216.443 185.874 216.153 185.958C215.873 186.042 215.579 186.084 215.271 186.084ZM211.659 179.686V178.58H216.391V179.686H211.659ZM222.482 178.51C223.089 178.51 223.621 178.627 224.078 178.86C224.545 179.093 224.909 179.448 225.17 179.924C225.431 180.4 225.562 181.002 225.562 181.73V186H224.218V181.884C224.218 181.165 224.041 180.624 223.686 180.26C223.341 179.896 222.851 179.714 222.216 179.714C221.74 179.714 221.325 179.807 220.97 179.994C220.615 180.181 220.34 180.456 220.144 180.82C219.957 181.184 219.864 181.637 219.864 182.178V186H218.52V175.612H219.864V180.582L219.598 180.05C219.841 179.565 220.214 179.187 220.718 178.916C221.222 178.645 221.81 178.51 222.482 178.51ZM231.353 186.084C230.56 186.084 229.86 185.921 229.253 185.594C228.656 185.267 228.189 184.819 227.853 184.25C227.527 183.681 227.363 183.027 227.363 182.29C227.363 181.553 227.522 180.899 227.839 180.33C228.166 179.761 228.609 179.317 229.169 179C229.739 178.673 230.378 178.51 231.087 178.51C231.806 178.51 232.441 178.669 232.991 178.986C233.542 179.303 233.971 179.751 234.279 180.33C234.597 180.899 234.755 181.567 234.755 182.332C234.755 182.388 234.751 182.453 234.741 182.528C234.741 182.603 234.737 182.673 234.727 182.738H228.413V181.772H234.027L233.481 182.108C233.491 181.632 233.393 181.207 233.187 180.834C232.982 180.461 232.697 180.171 232.333 179.966C231.979 179.751 231.563 179.644 231.087 179.644C230.621 179.644 230.205 179.751 229.841 179.966C229.477 180.171 229.193 180.465 228.987 180.848C228.782 181.221 228.679 181.651 228.679 182.136V182.36C228.679 182.855 228.791 183.298 229.015 183.69C229.249 184.073 229.571 184.371 229.981 184.586C230.392 184.801 230.863 184.908 231.395 184.908C231.834 184.908 232.231 184.833 232.585 184.684C232.949 184.535 233.267 184.311 233.537 184.012L234.279 184.88C233.943 185.272 233.523 185.571 233.019 185.776C232.525 185.981 231.969 186.084 231.353 186.084ZM243.559 186.084C242.813 186.084 242.15 185.921 241.571 185.594C240.993 185.267 240.535 184.819 240.199 184.25C239.863 183.671 239.695 183.018 239.695 182.29C239.695 181.553 239.863 180.899 240.199 180.33C240.535 179.761 240.993 179.317 241.571 179C242.15 178.673 242.813 178.51 243.559 178.51C244.297 178.51 244.955 178.673 245.533 179C246.121 179.317 246.579 179.761 246.905 180.33C247.241 180.89 247.409 181.543 247.409 182.29C247.409 183.027 247.241 183.681 246.905 184.25C246.579 184.819 246.121 185.267 245.533 185.594C244.955 185.921 244.297 186.084 243.559 186.084ZM243.559 184.908C244.035 184.908 244.46 184.801 244.833 184.586C245.216 184.371 245.515 184.068 245.729 183.676C245.944 183.275 246.051 182.813 246.051 182.29C246.051 181.758 245.944 181.301 245.729 180.918C245.515 180.526 245.216 180.223 244.833 180.008C244.46 179.793 244.035 179.686 243.559 179.686C243.083 179.686 242.659 179.793 242.285 180.008C241.912 180.223 241.613 180.526 241.389 180.918C241.165 181.301 241.053 181.758 241.053 182.29C241.053 182.813 241.165 183.275 241.389 183.676C241.613 184.068 241.912 184.371 242.285 184.586C242.659 184.801 243.083 184.908 243.559 184.908ZM249.268 186V175.612H250.612V186H249.268ZM256.244 186.084C255.526 186.084 254.882 185.925 254.312 185.608C253.752 185.291 253.309 184.847 252.982 184.278C252.656 183.709 252.492 183.046 252.492 182.29C252.492 181.534 252.656 180.876 252.982 180.316C253.309 179.747 253.752 179.303 254.312 178.986C254.882 178.669 255.526 178.51 256.244 178.51C256.87 178.51 257.434 178.65 257.938 178.93C258.442 179.21 258.844 179.63 259.142 180.19C259.45 180.75 259.604 181.45 259.604 182.29C259.604 183.13 259.455 183.83 259.156 184.39C258.867 184.95 258.47 185.375 257.966 185.664C257.462 185.944 256.888 186.084 256.244 186.084ZM256.356 184.908C256.823 184.908 257.243 184.801 257.616 184.586C257.999 184.371 258.298 184.068 258.512 183.676C258.736 183.275 258.848 182.813 258.848 182.29C258.848 181.758 258.736 181.301 258.512 180.918C258.298 180.526 257.999 180.223 257.616 180.008C257.243 179.793 256.823 179.686 256.356 179.686C255.88 179.686 255.456 179.793 255.082 180.008C254.709 180.223 254.41 180.526 254.186 180.918C253.962 181.301 253.85 181.758 253.85 182.29C253.85 182.813 253.962 183.275 254.186 183.676C254.41 184.068 254.709 184.371 255.082 184.586C255.456 184.801 255.88 184.908 256.356 184.908ZM258.89 186V183.998L258.974 182.276L258.834 180.554V175.612H260.178V186H258.89ZM268.049 186L265.291 178.58H266.565L269.015 185.3H268.413L270.961 178.58H272.095L274.587 185.3H273.999L276.505 178.58H277.709L274.937 186H273.649L271.311 179.868H271.703L269.337 186H268.049ZM282.046 186.084C281.299 186.084 280.636 185.921 280.058 185.594C279.479 185.267 279.022 184.819 278.686 184.25C278.35 183.671 278.182 183.018 278.182 182.29C278.182 181.553 278.35 180.899 278.686 180.33C279.022 179.761 279.479 179.317 280.058 179C280.636 178.673 281.299 178.51 282.046 178.51C282.783 178.51 283.441 178.673 284.02 179C284.608 179.317 285.065 179.761 285.392 180.33C285.728 180.89 285.896 181.543 285.896 182.29C285.896 183.027 285.728 183.681 285.392 184.25C285.065 184.819 284.608 185.267 284.02 185.594C283.441 185.921 282.783 186.084 282.046 186.084ZM282.046 184.908C282.522 184.908 282.946 184.801 283.32 184.586C283.702 184.371 284.001 184.068 284.216 183.676C284.43 183.275 284.538 182.813 284.538 182.29C284.538 181.758 284.43 181.301 284.216 180.918C284.001 180.526 283.702 180.223 283.32 180.008C282.946 179.793 282.522 179.686 282.046 179.686C281.57 179.686 281.145 179.793 280.772 180.008C280.398 180.223 280.1 180.526 279.876 180.918C279.652 181.301 279.54 181.758 279.54 182.29C279.54 182.813 279.652 183.275 279.876 183.676C280.1 184.068 280.398 184.371 280.772 184.586C281.145 184.801 281.57 184.908 282.046 184.908ZM287.754 186V178.58H289.042V180.596L288.916 180.092C289.122 179.579 289.467 179.187 289.952 178.916C290.438 178.645 291.035 178.51 291.744 178.51V179.812C291.688 179.803 291.632 179.798 291.576 179.798C291.53 179.798 291.483 179.798 291.436 179.798C290.718 179.798 290.148 180.013 289.728 180.442C289.308 180.871 289.098 181.492 289.098 182.304V186H287.754ZM293.401 186V175.612H294.745V186H293.401ZM300.377 186.084C299.658 186.084 299.014 185.925 298.445 185.608C297.885 185.291 297.442 184.847 297.115 184.278C296.788 183.709 296.625 183.046 296.625 182.29C296.625 181.534 296.788 180.876 297.115 180.316C297.442 179.747 297.885 179.303 298.445 178.986C299.014 178.669 299.658 178.51 300.377 178.51C301.002 178.51 301.567 178.65 302.071 178.93C302.575 179.21 302.976 179.63 303.275 180.19C303.583 180.75 303.737 181.45 303.737 182.29C303.737 183.13 303.588 183.83 303.289 184.39C303 184.95 302.603 185.375 302.099 185.664C301.595 185.944 301.021 186.084 300.377 186.084ZM300.489 184.908C300.956 184.908 301.376 184.801 301.749 184.586C302.132 184.371 302.43 184.068 302.645 183.676C302.869 183.275 302.981 182.813 302.981 182.29C302.981 181.758 302.869 181.301 302.645 180.918C302.43 180.526 302.132 180.223 301.749 180.008C301.376 179.793 300.956 179.686 300.489 179.686C300.013 179.686 299.588 179.793 299.215 180.008C298.842 180.223 298.543 180.526 298.319 180.918C298.095 181.301 297.983 181.758 297.983 182.29C297.983 182.813 298.095 183.275 298.319 183.676C298.543 184.068 298.842 184.371 299.215 184.586C299.588 184.801 300.013 184.908 300.489 184.908ZM303.023 186V183.998L303.107 182.276L302.967 180.554V175.612H304.311V186H303.023ZM307.176 186.084C306.915 186.084 306.691 185.995 306.504 185.818C306.317 185.631 306.224 185.398 306.224 185.118C306.224 184.838 306.317 184.609 306.504 184.432C306.691 184.255 306.915 184.166 307.176 184.166C307.428 184.166 307.643 184.255 307.82 184.432C308.007 184.609 308.1 184.838 308.1 185.118C308.1 185.398 308.007 185.631 307.82 185.818C307.643 185.995 307.428 186.084 307.176 186.084Z" fill="white"/>
<defs>
<filter id="filter0_bd_3215_390" x="-73.9" y="0.100006" width="568.8" height="361.8" filterUnits="userSpaceOnUse" color-interpolation-filters="sRGB">
<feFlood flood-opacity="0" result="BackgroundImageFix"/>
<feGaussianBlur in="BackgroundImageFix" stdDeviation="42.6"/>
<feComposite in2="SourceAlpha" operator="in" result="effect1_backgroundBlur_3215_390"/>
<feColorMatrix in="SourceAlpha" type="matrix" values="0 0 0 0 0 0 0 0 0 0 0 0 0 0 0 0 0 0 127 0" result="hardAlpha"/>
<feOffset dy="20"/>
<feGaussianBlur stdDeviation="67.7"/>
<feComposite in2="hardAlpha" operator="out"/>
<feColorMatrix type="matrix" values="0 0 0 0 0.501961 0 0 0 0 0.384314 0 0 0 0 1 0 0 0 0.24 0"/>
<feBlend mode="normal" in2="effect1_backgroundBlur_3215_390" result="effect2_dropShadow_3215_390"/>
<feBlend mode="normal" in="SourceGraphic" in2="effect2_dropShadow_3215_390" result="shape"/>
</filter>
</defs>
</svg>
