<svg width="375" height="554" viewBox="0 0 375 554" fill="none" xmlns="http://www.w3.org/2000/svg">
<g filter="url(#filter0_bd_3216_608)">
<path d="M187 398H322C325.314 398 328 395.314 328 392V188.985C328 187.394 327.368 185.868 326.243 184.743L259.257 117.757C258.132 116.632 256.606 116 255.015 116H187H52C48.6863 116 46 118.686 46 122V325.015C46 326.606 46.6321 328.132 47.7574 329.257L114.743 396.243C115.868 397.368 117.394 398 118.985 398H187Z" fill="url(#paint0_linear_3216_608)" fill-opacity="0.2" shape-rendering="crispEdges"/>
<path d="M187 398H322C325.314 398 328 395.314 328 392V188.985C328 187.394 327.368 185.868 326.243 184.743L259.257 117.757C258.132 116.632 256.606 116 255.015 116H187H52C48.6863 116 46 118.686 46 122V325.015C46 326.606 46.6321 328.132 47.7574 329.257L114.743 396.243C115.868 397.368 117.394 398 118.985 398H187Z" stroke="url(#paint1_linear_3216_608)" stroke-linecap="round" shape-rendering="crispEdges"/>
<path d="M187 398H322C325.314 398 328 395.314 328 392V188.985C328 187.394 327.368 185.868 326.243 184.743L259.257 117.757C258.132 116.632 256.606 116 255.015 116H187H52C48.6863 116 46 118.686 46 122V325.015C46 326.606 46.6321 328.132 47.7574 329.257L114.743 396.243C115.868 397.368 117.394 398 118.985 398H187Z" stroke="#8062FF" stroke-opacity="0.24" stroke-linecap="round" shape-rendering="crispEdges"/>
</g>
<defs>
<filter id="filter0_bd_3216_608" x="-89.9" y="0.100006" width="553.8" height="553.8" filterUnits="userSpaceOnUse" color-interpolation-filters="sRGB">
<feFlood flood-opacity="0" result="BackgroundImageFix"/>
<feGaussianBlur in="BackgroundImageFix" stdDeviation="42.6"/>
<feComposite in2="SourceAlpha" operator="in" result="effect1_backgroundBlur_3216_608"/>
<feColorMatrix in="SourceAlpha" type="matrix" values="0 0 0 0 0 0 0 0 0 0 0 0 0 0 0 0 0 0 127 0" result="hardAlpha"/>
<feOffset dy="20"/>
<feGaussianBlur stdDeviation="67.7"/>
<feComposite in2="hardAlpha" operator="out"/>
<feColorMatrix type="matrix" values="0 0 0 0 0.501961 0 0 0 0 0.384314 0 0 0 0 1 0 0 0 0.24 0"/>
<feBlend mode="normal" in2="effect1_backgroundBlur_3216_608" result="effect2_dropShadow_3216_608"/>
<feBlend mode="normal" in="SourceGraphic" in2="effect2_dropShadow_3216_608" result="shape"/>
</filter>
<linearGradient id="paint0_linear_3216_608" x1="438.5" y1="483" x2="-27.9044" y2="382.567" gradientUnits="userSpaceOnUse">
<stop stop-opacity="0"/>
<stop offset="1" stop-color="#8062FF"/>
</linearGradient>
<linearGradient id="paint1_linear_3216_608" x1="29.5" y1="80" x2="144.616" y2="193.909" gradientUnits="userSpaceOnUse">
<stop stop-color="white" stop-opacity="0"/>
<stop offset="0.130217" stop-color="white" stop-opacity="0.945138"/>
<stop offset="1" stop-color="white" stop-opacity="0"/>
</linearGradient>
</defs>
</svg>
