<svg width="172" height="172" viewBox="0 0 172 172" fill="none" xmlns="http://www.w3.org/2000/svg">
<path d="M42.182 1.52512L41.829 1.17219L42.182 1.52513L1.52513 42.182C0.868759 42.8384 0.5 43.7286 0.5 44.6569V168C0.5 169.933 2.067 171.5 4 171.5H86H127.343C128.271 171.5 129.162 171.131 129.818 170.475L170.475 129.818L170.828 130.171L170.475 129.818C171.131 129.162 171.5 128.271 171.5 127.343V4C171.5 2.067 169.933 0.5 168 0.5H86H44.6569C43.7286 0.5 42.8383 0.86875 42.182 1.52512Z" stroke="url(#paint0_linear_3041_858)"/>
<defs>
<linearGradient id="paint0_linear_3041_858" x1="172" y1="0" x2="86" y2="172" gradientUnits="userSpaceOnUse">
<stop offset="0.06" stop-color="#F9F9F9" stop-opacity="0.94"/>
<stop offset="1" stop-color="#8062FF" stop-opacity="0"/>
</linearGradient>
</defs>
</svg>
